<svg width="60" height="60" viewBox="0 0 60 60" fill="none" xmlns="http://www.w3.org/2000/svg">
<g filter="url(#filter0_i_4182_8777)">
<circle cx="30" cy="30" r="30" fill="#7C1AFC"/>
</g>
<g filter="url(#filter1_bd_4182_8777)">
<circle cx="30" cy="30" r="24" fill="#711AE5"/>
</g>
<path d="M45 29.4986C44.9954 33.343 43.4137 37.0287 40.6017 39.7473C37.7897 42.4658 33.9771 43.9952 30.0001 44C21.4739 44 15.0447 36.9498 15.0002 29.4986C14.9701 24.4118 17.9198 19.5956 22.648 16.8163C23.3827 16.3839 24.1505 16.0063 24.9447 15.6868C25.3164 15.5481 25.6853 15.4177 26.0571 15.2817L28.4226 19.5554L33.4192 28.5828C33.4379 28.6049 33.4551 28.6281 33.4709 28.6522L33.9876 29.5971C34.0161 29.6615 34.041 29.7272 34.0623 29.7942C34.0781 29.8302 34.0924 29.8649 34.1068 29.9024C34.1059 29.907 34.1059 29.9117 34.1068 29.9163C34.3967 30.8171 34.4021 31.7811 34.1221 32.6849C33.8421 33.5888 33.2896 34.3913 32.5352 34.9898C31.7808 35.5884 30.8588 35.9558 29.8871 36.045C28.9155 36.1341 27.9385 35.9411 27.081 35.4905C26.2235 35.0399 25.5246 34.3522 25.0736 33.5155C24.6227 32.6788 24.4403 31.731 24.5497 30.7935C24.659 29.856 25.0553 28.9713 25.6877 28.2527C26.3201 27.5341 27.1599 27.0142 28.0997 26.7596L28.1456 26.7457L24.8269 20.7514C22.6442 21.9452 20.9749 23.8539 20.1204 26.1331C19.2659 28.4123 19.2826 30.9117 20.1673 33.1801C21.052 35.4485 22.7466 37.3363 24.945 38.5028C27.1435 39.6693 29.7009 40.0375 32.1555 39.541C34.6102 39.0446 36.8004 37.7161 38.3306 35.7954C39.8608 33.8748 40.6303 31.4886 40.5 29.0676C40.3698 26.6466 39.3484 24.3504 37.6204 22.5936C35.8923 20.8367 33.5714 19.735 31.0767 19.4874C30.2398 18.011 29.3542 16.5555 28.5504 15.068C29.0269 15.0236 29.5106 15 30.0015 15C33.9778 15.0051 37.7896 16.5343 40.6012 19.2522C43.4128 21.9701 44.9947 25.6549 45 29.4986Z" fill="white"/>
<defs>
<filter id="filter0_i_4182_8777" x="0" y="0" width="60" height="60" filterUnits="userSpaceOnUse" color-interpolation-filters="sRGB">
<feFlood flood-opacity="0" result="BackgroundImageFix"/>
<feBlend mode="normal" in="SourceGraphic" in2="BackgroundImageFix" result="shape"/>
<feColorMatrix in="SourceAlpha" type="matrix" values="0 0 0 0 0 0 0 0 0 0 0 0 0 0 0 0 0 0 127 0" result="hardAlpha"/>
<feMorphology radius="4" operator="erode" in="SourceAlpha" result="effect1_innerShadow_4182_8777"/>
<feOffset/>
<feGaussianBlur stdDeviation="11"/>
<feComposite in2="hardAlpha" operator="arithmetic" k2="-1" k3="1"/>
<feColorMatrix type="matrix" values="0 0 0 0 0 0 0 0 0 0 0 0 0 0 0 0 0 0 0.52 0"/>
<feBlend mode="normal" in2="shape" result="effect1_innerShadow_4182_8777"/>
</filter>
<filter id="filter1_bd_4182_8777" x="0" y="0" width="60" height="60" filterUnits="userSpaceOnUse" color-interpolation-filters="sRGB">
<feFlood flood-opacity="0" result="BackgroundImageFix"/>
<feGaussianBlur in="BackgroundImageFix" stdDeviation="3"/>
<feComposite in2="SourceAlpha" operator="in" result="effect1_backgroundBlur_4182_8777"/>
<feColorMatrix in="SourceAlpha" type="matrix" values="0 0 0 0 0 0 0 0 0 0 0 0 0 0 0 0 0 0 127 0" result="hardAlpha"/>
<feOffset/>
<feGaussianBlur stdDeviation="0.5"/>
<feComposite in2="hardAlpha" operator="out"/>
<feColorMatrix type="matrix" values="0 0 0 0 0 0 0 0 0 0 0 0 0 0 0 0 0 0 0.08 0"/>
<feBlend mode="normal" in2="effect1_backgroundBlur_4182_8777" result="effect2_dropShadow_4182_8777"/>
<feBlend mode="normal" in="SourceGraphic" in2="effect2_dropShadow_4182_8777" result="shape"/>
</filter>
</defs>
</svg>
