<svg width="18" height="21" viewBox="0 0 18 21" fill="none" xmlns="http://www.w3.org/2000/svg">
<path d="M9.046 1C5.73597 1 3.04597 3.69 3.04597 7V9.88999C3.04597 10.5 2.78597 11.43 2.47597 11.95L1.32597 13.86C0.615967 15.04 1.10597 16.35 2.40597 16.79C6.71597 18.23 11.366 18.23 15.676 16.79C16.886 16.39 17.416 14.96 16.756 13.86L15.606 11.95C15.306 11.43 15.046 10.5 15.046 9.88999V7C15.046 3.7 12.346 1 9.046 1Z" stroke="white" stroke-width="1.5" stroke-miterlimit="10" stroke-linecap="round"/>
<path d="M12.0459 17.1504C12.0459 18.8004 10.6959 20.1504 9.04588 20.1504C8.22588 20.1504 7.46588 19.8104 6.9259 19.2704C6.3859 18.7304 6.0459 17.9704 6.0459 17.1504" stroke="white" stroke-width="1.5" stroke-miterlimit="10"/>
</svg>
