<svg width="37" height="37" viewBox="0 0 37 37" fill="none" xmlns="http://www.w3.org/2000/svg">
<mask id="path-1-inside-1_1628_2532" fill="white">
<path d="M32.3747 8.79134C33.1653 8.79134 33.8169 9.38649 33.906 10.1532L33.9163 10.333V23.4372C33.9163 26.3179 31.6589 28.6713 28.8166 28.825L28.5205 28.833H9.88947L10.3398 29.2845C10.8955 29.8403 10.9383 30.7148 10.468 31.3196L10.3398 31.4648C9.78405 32.0205 8.90957 32.0633 8.30479 31.593L8.15955 31.4648L5.07622 28.3815L5.04887 28.3534C5.0151 28.3179 4.98301 28.2808 4.95272 28.2422L5.07622 28.3815C5.02165 28.3269 4.97203 28.2693 4.92736 28.2091C4.89985 28.1718 4.87399 28.1335 4.84986 28.094C4.83836 28.0755 4.8274 28.0566 4.81688 28.0376C4.80011 28.0071 4.78405 27.9757 4.76906 27.9436C4.75676 27.9174 4.74523 27.8907 4.73448 27.8638C4.72229 27.8334 4.7112 27.8029 4.70106 27.7719C4.69363 27.749 4.68649 27.7253 4.67994 27.7014C4.67067 27.6682 4.66266 27.6347 4.65576 27.6009C4.65042 27.574 4.64568 27.5472 4.64166 27.5202C4.63716 27.4909 4.63354 27.4605 4.63081 27.4298C4.6276 27.3931 4.62565 27.3571 4.62467 27.3212C4.62467 27.3112 4.62467 27.3013 4.62467 27.2913L4.62517 27.2523C4.62599 27.2194 4.62787 27.1865 4.63079 27.1537L4.62467 27.2913C4.62467 27.2133 4.63047 27.1366 4.64166 27.0617C4.64568 27.0355 4.65042 27.0086 4.65588 26.9819C4.66266 26.9479 4.67067 26.9145 4.67974 26.8815C4.68649 26.8574 4.69363 26.8337 4.70135 26.8101C4.7112 26.7798 4.72229 26.7493 4.73429 26.7193C4.74523 26.6919 4.75676 26.6653 4.76909 26.6389C4.78405 26.607 4.80011 26.5756 4.81719 26.5447C4.8274 26.5261 4.83836 26.5072 4.84975 26.4886C4.87399 26.4492 4.89985 26.4108 4.92732 26.3738C4.93411 26.3645 4.94099 26.3554 4.94797 26.3465C4.99108 26.2916 5.03233 26.2451 5.07622 26.2012L8.15955 23.1179C8.76161 22.5158 9.73774 22.5158 10.3398 23.1179C10.8955 23.6736 10.9383 24.5481 10.468 25.1529L10.3398 25.2981L9.88792 25.7497H28.5205C29.7225 25.7497 30.7104 24.8326 30.8224 23.6599L30.833 23.4372V10.333C30.833 9.48157 31.5232 8.79134 32.3747 8.79134ZM28.6946 1.4063L28.8398 1.53455L31.9231 4.61789C31.967 4.66177 32.0083 4.70829 32.0466 4.75718L31.9231 4.61789C31.9708 4.66557 32.0147 4.71561 32.0549 4.76762C32.0888 4.81175 32.1204 4.85768 32.1495 4.90532C32.161 4.9239 32.1719 4.94273 32.1825 4.96175C32.1979 4.98979 32.2128 5.01871 32.2267 5.04814C32.2403 5.07669 32.2531 5.10597 32.2649 5.13553C32.2771 5.16599 32.2882 5.19649 32.2983 5.22741C32.3057 5.25036 32.3129 5.27409 32.3194 5.29794C32.3287 5.33117 32.3367 5.36461 32.3436 5.39845C32.3489 5.4253 32.3537 5.45217 32.3577 5.47912C32.3624 5.50987 32.3661 5.54168 32.3689 5.57378C32.3713 5.60276 32.373 5.63051 32.3739 5.65828C32.3747 5.67377 32.3747 5.69085 32.3747 5.70801L32.3742 5.74703C32.3734 5.77785 32.3717 5.80865 32.3691 5.8394L32.3747 5.70801C32.3747 5.78605 32.3689 5.86273 32.3577 5.93766C32.3537 5.96385 32.3489 5.99071 32.3435 6.01746C32.3367 6.05141 32.3287 6.08485 32.3196 6.11784C32.3129 6.14193 32.3057 6.16565 32.298 6.18923C32.2882 6.21953 32.2771 6.25003 32.2651 6.28006C32.2541 6.3074 32.2426 6.33408 32.2303 6.36047C32.2153 6.39234 32.1992 6.42379 32.1822 6.4546C32.1719 6.47328 32.161 6.49212 32.1496 6.51077C32.13 6.54257 32.1094 6.5737 32.0877 6.604C32.0759 6.62077 32.0638 6.63693 32.0514 6.65289C32.0431 6.66332 32.0396 6.66779 32.036 6.67224L31.9231 6.79813L28.8398 9.88146C28.2377 10.4835 27.2616 10.4835 26.6595 9.88146C26.1038 9.32572 26.0611 8.45124 26.5313 7.84645L26.6595 7.70122L27.1083 7.24967H8.47884C7.27681 7.24967 6.28898 8.16679 6.17693 9.33947L6.16634 9.56217V22.6663C6.16634 23.5178 5.47611 24.208 4.62467 24.208C3.83405 24.208 3.18243 23.6129 3.09338 22.8461L3.08301 22.6663V9.56217C3.08301 6.68147 5.34044 4.32802 8.18279 4.17433L8.47884 4.16634H27.1099L26.6595 3.7148C26.1038 3.15905 26.0611 2.28457 26.5313 1.67979L26.6595 1.53455C27.2153 0.978805 28.0898 0.936056 28.6946 1.4063ZM18.4997 10.333C21.9054 10.333 24.6663 13.0939 24.6663 16.4997C24.6663 19.9054 21.9054 22.6663 18.4997 22.6663C15.0939 22.6663 12.333 19.9054 12.333 16.4997C12.333 13.0939 15.0939 10.333 18.4997 10.333Z"/>
</mask>
<path d="M32.3747 8.79134C33.1653 8.79134 33.8169 9.38649 33.906 10.1532L33.9163 10.333V23.4372C33.9163 26.3179 31.6589 28.6713 28.8166 28.825L28.5205 28.833H9.88947L10.3398 29.2845C10.8955 29.8403 10.9383 30.7148 10.468 31.3196L10.3398 31.4648C9.78405 32.0205 8.90957 32.0633 8.30479 31.593L8.15955 31.4648L5.07622 28.3815L5.04887 28.3534C5.0151 28.3179 4.98301 28.2808 4.95272 28.2422L5.07622 28.3815C5.02165 28.3269 4.97203 28.2693 4.92736 28.2091C4.89985 28.1718 4.87399 28.1335 4.84986 28.094C4.83836 28.0755 4.8274 28.0566 4.81688 28.0376C4.80011 28.0071 4.78405 27.9757 4.76906 27.9436C4.75676 27.9174 4.74523 27.8907 4.73448 27.8638C4.72229 27.8334 4.7112 27.8029 4.70106 27.7719C4.69363 27.749 4.68649 27.7253 4.67994 27.7014C4.67067 27.6682 4.66266 27.6347 4.65576 27.6009C4.65042 27.574 4.64568 27.5472 4.64166 27.5202C4.63716 27.4909 4.63354 27.4605 4.63081 27.4298C4.6276 27.3931 4.62565 27.3571 4.62467 27.3212C4.62467 27.3112 4.62467 27.3013 4.62467 27.2913L4.62517 27.2523C4.62599 27.2194 4.62787 27.1865 4.63079 27.1537L4.62467 27.2913C4.62467 27.2133 4.63047 27.1366 4.64166 27.0617C4.64568 27.0355 4.65042 27.0086 4.65588 26.9819C4.66266 26.9479 4.67067 26.9145 4.67974 26.8815C4.68649 26.8574 4.69363 26.8337 4.70135 26.8101C4.7112 26.7798 4.72229 26.7493 4.73429 26.7193C4.74523 26.6919 4.75676 26.6653 4.76909 26.6389C4.78405 26.607 4.80011 26.5756 4.81719 26.5447C4.8274 26.5261 4.83836 26.5072 4.84975 26.4886C4.87399 26.4492 4.89985 26.4108 4.92732 26.3738C4.93411 26.3645 4.94099 26.3554 4.94797 26.3465C4.99108 26.2916 5.03233 26.2451 5.07622 26.2012L8.15955 23.1179C8.76161 22.5158 9.73774 22.5158 10.3398 23.1179C10.8955 23.6736 10.9383 24.5481 10.468 25.1529L10.3398 25.2981L9.88792 25.7497H28.5205C29.7225 25.7497 30.7104 24.8326 30.8224 23.6599L30.833 23.4372V10.333C30.833 9.48157 31.5232 8.79134 32.3747 8.79134ZM28.6946 1.4063L28.8398 1.53455L31.9231 4.61789C31.967 4.66177 32.0083 4.70829 32.0466 4.75718L31.9231 4.61789C31.9708 4.66557 32.0147 4.71561 32.0549 4.76762C32.0888 4.81175 32.1204 4.85768 32.1495 4.90532C32.161 4.9239 32.1719 4.94273 32.1825 4.96175C32.1979 4.98979 32.2128 5.01871 32.2267 5.04814C32.2403 5.07669 32.2531 5.10597 32.2649 5.13553C32.2771 5.16599 32.2882 5.19649 32.2983 5.22741C32.3057 5.25036 32.3129 5.27409 32.3194 5.29794C32.3287 5.33117 32.3367 5.36461 32.3436 5.39845C32.3489 5.4253 32.3537 5.45217 32.3577 5.47912C32.3624 5.50987 32.3661 5.54168 32.3689 5.57378C32.3713 5.60276 32.373 5.63051 32.3739 5.65828C32.3747 5.67377 32.3747 5.69085 32.3747 5.70801L32.3742 5.74703C32.3734 5.77785 32.3717 5.80865 32.3691 5.8394L32.3747 5.70801C32.3747 5.78605 32.3689 5.86273 32.3577 5.93766C32.3537 5.96385 32.3489 5.99071 32.3435 6.01746C32.3367 6.05141 32.3287 6.08485 32.3196 6.11784C32.3129 6.14193 32.3057 6.16565 32.298 6.18923C32.2882 6.21953 32.2771 6.25003 32.2651 6.28006C32.2541 6.3074 32.2426 6.33408 32.2303 6.36047C32.2153 6.39234 32.1992 6.42379 32.1822 6.4546C32.1719 6.47328 32.161 6.49212 32.1496 6.51077C32.13 6.54257 32.1094 6.5737 32.0877 6.604C32.0759 6.62077 32.0638 6.63693 32.0514 6.65289C32.0431 6.66332 32.0396 6.66779 32.036 6.67224L31.9231 6.79813L28.8398 9.88146C28.2377 10.4835 27.2616 10.4835 26.6595 9.88146C26.1038 9.32572 26.0611 8.45124 26.5313 7.84645L26.6595 7.70122L27.1083 7.24967H8.47884C7.27681 7.24967 6.28898 8.16679 6.17693 9.33947L6.16634 9.56217V22.6663C6.16634 23.5178 5.47611 24.208 4.62467 24.208C3.83405 24.208 3.18243 23.6129 3.09338 22.8461L3.08301 22.6663V9.56217C3.08301 6.68147 5.34044 4.32802 8.18279 4.17433L8.47884 4.16634H27.1099L26.6595 3.7148C26.1038 3.15905 26.0611 2.28457 26.5313 1.67979L26.6595 1.53455C27.2153 0.978805 28.0898 0.936056 28.6946 1.4063ZM18.4997 10.333C21.9054 10.333 24.6663 13.0939 24.6663 16.4997C24.6663 19.9054 21.9054 22.6663 18.4997 22.6663C15.0939 22.6663 12.333 19.9054 12.333 16.4997C12.333 13.0939 15.0939 10.333 18.4997 10.333Z" fill="white"/>
<path d="M33.906 10.1532L34.4051 10.1244L34.4043 10.1099L34.4026 10.0955L33.906 10.1532ZM33.9163 10.333H34.4163V10.3186L34.4155 10.3042L33.9163 10.333ZM28.8166 28.825L28.83 29.325L28.8436 29.3243L28.8166 28.825ZM28.5205 28.833V29.3332L28.534 29.3328L28.5205 28.833ZM9.88947 28.833V28.333H8.68465L9.53544 29.1861L9.88947 28.833ZM10.3398 29.2845L9.98577 29.6376L9.98624 29.6381L10.3398 29.2845ZM10.468 31.3196L10.8428 31.6505L10.8532 31.6388L10.8628 31.6265L10.468 31.3196ZM10.3398 31.4648L10.6934 31.8184L10.7043 31.8074L10.7146 31.7958L10.3398 31.4648ZM8.30479 31.593L7.97384 31.9678L7.98554 31.9782L7.99787 31.9878L8.30479 31.593ZM8.15955 31.4648L7.806 31.8184L7.81697 31.8293L7.8286 31.8396L8.15955 31.4648ZM5.07622 28.3815L4.72266 28.735H4.72266L5.07622 28.3815ZM5.04887 28.3534L4.68647 28.698L4.69087 28.7025L5.04887 28.3534ZM4.95272 28.2422L5.32686 27.9105L4.55934 28.5508L4.95272 28.2422ZM4.92736 28.2091L4.52507 28.506L4.52595 28.5072L4.92736 28.2091ZM4.84986 28.094L5.27653 27.8333L5.27495 27.8308L4.84986 28.094ZM4.81688 28.0376L4.37881 28.2786L4.37944 28.2798L4.81688 28.0376ZM4.76906 27.9436L5.22198 27.7318L5.22173 27.7313L4.76906 27.9436ZM4.73448 27.8638L5.19884 27.6784L5.19866 27.678L4.73448 27.8638ZM4.70106 27.7719L4.22535 27.9259L4.22593 27.9277L4.70106 27.7719ZM4.67994 27.7014L5.16206 27.5689L5.16156 27.5671L4.67994 27.7014ZM4.65576 27.6009L4.16535 27.6984L4.16584 27.7008L4.65576 27.6009ZM4.64166 27.5202L5.13618 27.4464L5.1359 27.4445L4.64166 27.5202ZM4.63081 27.4298L4.13271 27.4734L4.13278 27.4741L4.63081 27.4298ZM4.62467 27.3212H4.12449L4.12486 27.3348L4.62467 27.3212ZM4.62517 27.2523L4.12528 27.2397L4.1252 27.246L4.62517 27.2523ZM4.63079 27.1537L5.1303 27.1759L4.13276 27.1094L4.63079 27.1537ZM4.64166 27.0617L4.14745 26.9858L4.14715 26.9878L4.64166 27.0617ZM4.65588 26.9819L5.1458 27.0818L5.14619 27.0799L4.65588 26.9819ZM4.67974 26.8815L4.19827 26.7466L4.19765 26.7489L4.67974 26.8815ZM4.70135 26.8101L5.17651 26.9658L5.1769 26.9646L4.70135 26.8101ZM4.73429 26.7193L4.27003 26.5336L4.27003 26.5337L4.73429 26.7193ZM4.76909 26.6389L4.31648 26.4264L4.31603 26.4274L4.76909 26.6389ZM4.81719 26.5447L5.25446 26.7872L5.25593 26.7845L4.81719 26.5447ZM4.84975 26.4886L4.42385 26.2267L4.42306 26.2279L4.84975 26.4886ZM4.92732 26.3738L5.32892 26.6717L5.33154 26.6681L4.92732 26.3738ZM4.94797 26.3465L4.55491 26.0374L4.55325 26.0395L4.94797 26.3465ZM5.07622 26.2012L5.42977 26.5548L5.07622 26.2012ZM8.15955 23.1179L8.5131 23.4714L8.15955 23.1179ZM10.3398 23.1179L10.6934 22.7643L10.3398 23.1179ZM10.468 25.1529L10.8428 25.4838L10.8532 25.4721L10.8628 25.4598L10.468 25.1529ZM10.3398 25.2981L10.6932 25.6518L10.7043 25.6408L10.7146 25.6291L10.3398 25.2981ZM9.88792 25.7497L9.5345 25.396L8.68019 26.2497H9.88792V25.7497ZM30.8224 23.6599L31.3202 23.7074L31.3213 23.6956L31.3219 23.6836L30.8224 23.6599ZM30.833 23.4372L31.3324 23.4609L31.333 23.4491V23.4372H30.833ZM28.6946 1.4063L29.0255 1.03151L29.0138 1.02117L29.0015 1.01158L28.6946 1.4063ZM28.8398 1.53455L29.1934 1.181L29.1824 1.17003L29.1708 1.15976L28.8398 1.53455ZM31.9231 4.61789L32.2767 4.26433V4.26433L31.9231 4.61789ZM32.0466 4.75718L31.6725 5.08888L32.44 4.44856L32.0466 4.75718ZM32.0549 4.76762L32.4514 4.46306L32.4507 4.46216L32.0549 4.76762ZM32.1495 4.90532L31.7228 5.16603L31.7244 5.16857L32.1495 4.90532ZM32.1825 4.96175L32.6206 4.72083L32.6199 4.71957L32.1825 4.96175ZM32.2267 5.04814L31.775 5.26241L31.7753 5.26304L32.2267 5.04814ZM32.2649 5.13553L31.8005 5.32093L31.8007 5.32137L32.2649 5.13553ZM32.2983 5.22741L32.774 5.07344L32.7734 5.07167L32.2983 5.22741ZM32.3194 5.29794L31.8373 5.43046L31.8378 5.43225L32.3194 5.29794ZM32.3436 5.39845L32.834 5.30095L32.8335 5.29859L32.3436 5.39845ZM32.3577 5.47912L31.8632 5.55296L31.8634 5.55473L32.3577 5.47912ZM32.3689 5.57378L32.8672 5.53187L32.8671 5.53082L32.3689 5.57378ZM32.3739 5.65828L31.874 5.67431L31.8745 5.68399L32.3739 5.65828ZM32.3742 5.74703L32.8741 5.7596L32.8741 5.75332L32.3742 5.74703ZM32.3691 5.8394L31.8695 5.8182L32.8673 5.88175L32.3691 5.8394ZM32.3577 5.93766L32.8519 6.01355L32.8522 6.01151L32.3577 5.93766ZM32.3435 6.01746L31.8535 5.91756L31.8532 5.9195L32.3435 6.01746ZM32.3196 6.11784L32.8011 6.25272L32.8017 6.25045L32.3196 6.11784ZM32.298 6.18923L31.8228 6.03357L31.8225 6.03476L32.298 6.18923ZM32.2651 6.28006L32.7293 6.4657L32.7293 6.46568L32.2651 6.28006ZM32.2303 6.36047L32.6829 6.57295L32.6833 6.572L32.2303 6.36047ZM32.1822 6.4546L31.7449 6.21211L31.7434 6.2148L32.1822 6.4546ZM32.1496 6.51077L32.5753 6.77299L32.5763 6.77141L32.1496 6.51077ZM32.0877 6.604L31.6811 6.31308L31.6796 6.3152L32.0877 6.604ZM32.0514 6.65289L32.4431 6.9637L32.4461 6.95981L32.0514 6.65289ZM32.036 6.67224L32.4083 7.006L32.4174 6.99584L32.4259 6.9852L32.036 6.67224ZM31.9231 6.79813L32.2767 7.15168L32.2863 7.14204L32.2954 7.13189L31.9231 6.79813ZM26.6595 9.88146L26.306 10.235L26.6595 9.88146ZM26.5313 7.84645L26.1565 7.5155L26.1462 7.52721L26.1366 7.53954L26.5313 7.84645ZM26.6595 7.70122L26.3049 7.34875L26.2945 7.35921L26.2848 7.37027L26.6595 7.70122ZM27.1083 7.24967L27.463 7.60214L28.3102 6.74967H27.1083V7.24967ZM6.17693 9.33947L5.67919 9.2919L5.67806 9.30379L5.67749 9.31573L6.17693 9.33947ZM6.16634 9.56217L5.6669 9.53843L5.66634 9.5503V9.56217H6.16634ZM3.09338 22.8461L2.59421 22.8749L2.59505 22.8894L2.59672 22.9038L3.09338 22.8461ZM3.08301 22.6663H2.58301V22.6807L2.58384 22.6951L3.08301 22.6663ZM8.18279 4.17433L8.1693 3.67432L8.15579 3.67505L8.18279 4.17433ZM8.47884 4.16634V3.66616L8.46536 3.66652L8.47884 4.16634ZM27.1099 4.16634V4.66634H28.3147L27.4639 3.81326L27.1099 4.16634ZM26.6595 3.7148L27.0136 3.36172L27.0131 3.36124L26.6595 3.7148ZM26.5313 1.67979L26.1565 1.34884L26.1462 1.36054L26.1366 1.37287L26.5313 1.67979ZM26.6595 1.53455L26.306 1.181L26.295 1.19197L26.2848 1.2036L26.6595 1.53455ZM32.3747 9.29134C32.9085 9.29134 33.3492 9.69337 33.4093 10.2109L34.4026 10.0955C34.2846 9.07961 33.4221 8.29134 32.3747 8.29134V9.29134ZM33.4068 10.182L33.4172 10.3618L34.4155 10.3042L34.4051 10.1244L33.4068 10.182ZM33.4163 10.333V23.4372H34.4163V10.333H33.4163ZM33.4163 23.4372C33.4163 26.0508 31.3681 28.1863 28.7896 28.3258L28.8436 29.3243C31.9497 29.1563 34.4163 26.585 34.4163 23.4372H33.4163ZM28.8031 28.3252L28.507 28.3332L28.534 29.3328L28.83 29.3248L28.8031 28.3252ZM28.5205 28.333H9.88947V29.333H28.5205V28.333ZM9.53544 29.1861L9.98577 29.6376L10.6938 28.9315L10.2435 28.4799L9.53544 29.1861ZM9.98624 29.6381C10.3615 30.0133 10.3907 30.6044 10.0733 31.0126L10.8628 31.6265C11.4858 30.8251 11.4296 29.6673 10.6934 28.931L9.98624 29.6381ZM10.0933 30.9886L9.96501 31.1338L10.7146 31.7958L10.8428 31.6505L10.0933 30.9886ZM9.98624 31.1112C9.61101 31.4865 9.01993 31.5157 8.6117 31.1983L7.99787 31.9878C8.79921 32.6108 9.95709 32.5546 10.6934 31.8184L9.98624 31.1112ZM8.63574 31.2183L8.4905 31.09L7.8286 31.8396L7.97384 31.9678L8.63574 31.2183ZM8.5131 31.1112L5.42977 28.0279L4.72266 28.735L7.806 31.8184L8.5131 31.1112ZM5.43421 28.0324L5.40686 28.0044L4.69087 28.7025L4.71823 28.7305L5.43421 28.0324ZM5.41124 28.0089C5.38835 27.9848 5.36661 27.9597 5.3461 27.9335L4.55934 28.5508C4.59941 28.6019 4.64185 28.651 4.6865 28.6979L5.41124 28.0089ZM4.57858 28.5739L4.70208 28.7132L5.45035 28.0498L5.32686 27.9105L4.57858 28.5739ZM5.42977 28.0279C5.39255 27.9907 5.35891 27.9516 5.32876 27.911L4.52595 28.5072C4.58515 28.5869 4.65075 28.6631 4.72266 28.735L5.42977 28.0279ZM5.32964 27.9122C5.31049 27.8862 5.29281 27.86 5.27652 27.8333L4.4232 28.3547C4.45517 28.407 4.4892 28.4574 4.52507 28.506L5.32964 27.9122ZM5.27495 27.8308C5.26826 27.82 5.26141 27.8083 5.25431 27.7954L4.37944 28.2798C4.39339 28.305 4.40846 28.3309 4.42477 28.3573L5.27495 27.8308ZM5.25494 27.7966C5.24318 27.7752 5.23212 27.7535 5.22198 27.7318L4.31613 28.1554C4.33598 28.1979 4.35703 28.2391 4.37881 28.2786L5.25494 27.7966ZM5.22173 27.7313C5.21375 27.7143 5.20609 27.6966 5.19884 27.6784L4.27012 28.0492C4.28436 28.0849 4.29978 28.1206 4.31639 28.156L5.22173 27.7313ZM5.19866 27.678C5.19042 27.6574 5.18298 27.6369 5.17619 27.6162L4.22593 27.9277C4.23941 27.9688 4.25415 28.0093 4.2703 28.0497L5.19866 27.678ZM5.17676 27.618C5.17148 27.6017 5.16651 27.5851 5.16205 27.5689L4.19782 27.8339C4.20648 27.8654 4.21578 27.8963 4.22536 27.9259L5.17676 27.618ZM5.16156 27.5671C5.1556 27.5457 5.15033 27.5238 5.14569 27.501L4.16584 27.7008C4.17499 27.7457 4.18574 27.7906 4.19831 27.8357L5.16156 27.5671ZM5.14616 27.5034C5.14223 27.4836 5.1389 27.4646 5.13618 27.4464L4.14714 27.5941C4.15247 27.6297 4.15862 27.6645 4.16536 27.6984L5.14616 27.5034ZM5.1359 27.4445C5.13311 27.4263 5.1307 27.4064 5.12884 27.3855L4.13278 27.4741C4.13637 27.5145 4.14122 27.5554 4.14742 27.5959L5.1359 27.4445ZM5.1289 27.3862C5.12665 27.3604 5.12522 27.3345 5.12449 27.3076L4.12486 27.3348C4.12608 27.3798 4.12854 27.4258 4.13271 27.4734L5.1289 27.3862ZM5.12467 27.3212C5.12467 27.3212 5.12467 27.3211 5.12467 27.3211C5.12467 27.3211 5.12467 27.3211 5.12467 27.3211C5.12467 27.321 5.12467 27.321 5.12467 27.321C5.12467 27.321 5.12467 27.321 5.12467 27.3209C5.12467 27.3209 5.12467 27.3209 5.12467 27.3209C5.12467 27.3209 5.12467 27.3208 5.12467 27.3208C5.12467 27.3208 5.12467 27.3208 5.12467 27.3208C5.12467 27.3208 5.12467 27.3207 5.12467 27.3207C5.12467 27.3207 5.12467 27.3207 5.12467 27.3207C5.12467 27.3206 5.12467 27.3206 5.12467 27.3206C5.12467 27.3206 5.12467 27.3206 5.12467 27.3205C5.12467 27.3205 5.12467 27.3205 5.12467 27.3205C5.12467 27.3205 5.12467 27.3204 5.12467 27.3204C5.12467 27.3204 5.12467 27.3204 5.12467 27.3204C5.12467 27.3203 5.12467 27.3203 5.12467 27.3203C5.12467 27.3203 5.12467 27.3203 5.12467 27.3202C5.12467 27.3202 5.12467 27.3202 5.12467 27.3202C5.12467 27.3202 5.12467 27.3201 5.12467 27.3201C5.12467 27.3201 5.12467 27.3201 5.12467 27.3201C5.12467 27.3201 5.12467 27.32 5.12467 27.32C5.12467 27.32 5.12467 27.32 5.12467 27.32C5.12467 27.3199 5.12467 27.3199 5.12467 27.3199C5.12467 27.3199 5.12467 27.3199 5.12467 27.3198C5.12467 27.3198 5.12467 27.3198 5.12467 27.3198C5.12467 27.3198 5.12467 27.3197 5.12467 27.3197C5.12467 27.3197 5.12467 27.3197 5.12467 27.3197C5.12467 27.3196 5.12467 27.3196 5.12467 27.3196C5.12467 27.3196 5.12467 27.3196 5.12467 27.3195C5.12467 27.3195 5.12467 27.3195 5.12467 27.3195C5.12467 27.3195 5.12467 27.3195 5.12467 27.3194C5.12467 27.3194 5.12467 27.3194 5.12467 27.3194C5.12467 27.3194 5.12467 27.3193 5.12467 27.3193C5.12467 27.3193 5.12467 27.3193 5.12467 27.3193C5.12467 27.3192 5.12467 27.3192 5.12467 27.3192C5.12467 27.3192 5.12467 27.3192 5.12467 27.3191C5.12467 27.3191 5.12467 27.3191 5.12467 27.3191C5.12467 27.3191 5.12467 27.319 5.12467 27.319C5.12467 27.319 5.12467 27.319 5.12467 27.319C5.12467 27.3189 5.12467 27.3189 5.12467 27.3189C5.12467 27.3189 5.12467 27.3189 5.12467 27.3188C5.12467 27.3188 5.12467 27.3188 5.12467 27.3188C5.12467 27.3188 5.12467 27.3188 5.12467 27.3187C5.12467 27.3187 5.12467 27.3187 5.12467 27.3187C5.12467 27.3187 5.12467 27.3186 5.12467 27.3186C5.12467 27.3186 5.12467 27.3186 5.12467 27.3186C5.12467 27.3185 5.12467 27.3185 5.12467 27.3185C5.12467 27.3185 5.12467 27.3185 5.12467 27.3184C5.12467 27.3184 5.12467 27.3184 5.12467 27.3184C5.12467 27.3184 5.12467 27.3183 5.12467 27.3183C5.12467 27.3183 5.12467 27.3183 5.12467 27.3183C5.12467 27.3182 5.12467 27.3182 5.12467 27.3182C5.12467 27.3182 5.12467 27.3182 5.12467 27.3181C5.12467 27.3181 5.12467 27.3181 5.12467 27.3181C5.12467 27.3181 5.12467 27.3181 5.12467 27.318C5.12467 27.318 5.12467 27.318 5.12467 27.318C5.12467 27.318 5.12467 27.3179 5.12467 27.3179C5.12467 27.3179 5.12467 27.3179 5.12467 27.3179C5.12467 27.3178 5.12467 27.3178 5.12467 27.3178C5.12467 27.3178 5.12467 27.3178 5.12467 27.3177C5.12467 27.3177 5.12467 27.3177 5.12467 27.3177C5.12467 27.3177 5.12467 27.3176 5.12467 27.3176C5.12467 27.3176 5.12467 27.3176 5.12467 27.3176C5.12467 27.3175 5.12467 27.3175 5.12467 27.3175C5.12467 27.3175 5.12467 27.3175 5.12467 27.3175C5.12467 27.3174 5.12467 27.3174 5.12467 27.3174C5.12467 27.3174 5.12467 27.3174 5.12467 27.3173C5.12467 27.3173 5.12467 27.3173 5.12467 27.3173C5.12467 27.3173 5.12467 27.3172 5.12467 27.3172C5.12467 27.3172 5.12467 27.3172 5.12467 27.3172C5.12467 27.3171 5.12467 27.3171 5.12467 27.3171C5.12467 27.3171 5.12467 27.3171 5.12467 27.317C5.12467 27.317 5.12467 27.317 5.12467 27.317C5.12467 27.317 5.12467 27.3169 5.12467 27.3169C5.12467 27.3169 5.12467 27.3169 5.12467 27.3169C5.12467 27.3168 5.12467 27.3168 5.12467 27.3168C5.12467 27.3168 5.12467 27.3168 5.12467 27.3168C5.12467 27.3167 5.12467 27.3167 5.12467 27.3167C5.12467 27.3167 5.12467 27.3167 5.12467 27.3166C5.12467 27.3166 5.12467 27.3166 5.12467 27.3166C5.12467 27.3166 5.12467 27.3165 5.12467 27.3165C5.12467 27.3165 5.12467 27.3165 5.12467 27.3165C5.12467 27.3164 5.12467 27.3164 5.12467 27.3164C5.12467 27.3164 5.12467 27.3164 5.12467 27.3163C5.12467 27.3163 5.12467 27.3163 5.12467 27.3163C5.12467 27.3163 5.12467 27.3162 5.12467 27.3162C5.12467 27.3162 5.12467 27.3162 5.12467 27.3162C5.12467 27.3162 5.12467 27.3161 5.12467 27.3161C5.12467 27.3161 5.12467 27.3161 5.12467 27.3161C5.12467 27.316 5.12467 27.316 5.12467 27.316C5.12467 27.316 5.12467 27.316 5.12467 27.3159C5.12467 27.3159 5.12467 27.3159 5.12467 27.3159C5.12467 27.3159 5.12467 27.3158 5.12467 27.3158C5.12467 27.3158 5.12467 27.3158 5.12467 27.3158C5.12467 27.3157 5.12467 27.3157 5.12467 27.3157C5.12467 27.3157 5.12467 27.3157 5.12467 27.3156C5.12467 27.3156 5.12467 27.3156 5.12467 27.3156C5.12467 27.3156 5.12467 27.3155 5.12467 27.3155C5.12467 27.3155 5.12467 27.3155 5.12467 27.3155C5.12467 27.3155 5.12467 27.3154 5.12467 27.3154C5.12467 27.3154 5.12467 27.3154 5.12467 27.3154C5.12467 27.3153 5.12467 27.3153 5.12467 27.3153C5.12467 27.3153 5.12467 27.3153 5.12467 27.3152C5.12467 27.3152 5.12467 27.3152 5.12467 27.3152C5.12467 27.3152 5.12467 27.3151 5.12467 27.3151C5.12467 27.3151 5.12467 27.3151 5.12467 27.3151C5.12467 27.315 5.12467 27.315 5.12467 27.315C5.12467 27.315 5.12467 27.315 5.12467 27.3149C5.12467 27.3149 5.12467 27.3149 5.12467 27.3149C5.12467 27.3149 5.12467 27.3148 5.12467 27.3148C5.12467 27.3148 5.12467 27.3148 5.12467 27.3148C5.12467 27.3148 5.12467 27.3147 5.12467 27.3147C5.12467 27.3147 5.12467 27.3147 5.12467 27.3147C5.12467 27.3146 5.12467 27.3146 5.12467 27.3146C5.12467 27.3146 5.12467 27.3146 5.12467 27.3145C5.12467 27.3145 5.12467 27.3145 5.12467 27.3145C5.12467 27.3145 5.12467 27.3144 5.12467 27.3144C5.12467 27.3144 5.12467 27.3144 5.12467 27.3144C5.12467 27.3143 5.12467 27.3143 5.12467 27.3143C5.12467 27.3143 5.12467 27.3143 5.12467 27.3142C5.12467 27.3142 5.12467 27.3142 5.12467 27.3142C5.12467 27.3142 5.12467 27.3142 5.12467 27.3141C5.12467 27.3141 5.12467 27.3141 5.12467 27.3141C5.12467 27.3141 5.12467 27.314 5.12467 27.314C5.12467 27.314 5.12467 27.314 5.12467 27.314C5.12467 27.3139 5.12467 27.3139 5.12467 27.3139C5.12467 27.3139 5.12467 27.3139 5.12467 27.3138C5.12467 27.3138 5.12467 27.3138 5.12467 27.3138C5.12467 27.3138 5.12467 27.3137 5.12467 27.3137C5.12467 27.3137 5.12467 27.3137 5.12467 27.3137C5.12467 27.3136 5.12467 27.3136 5.12467 27.3136C5.12467 27.3136 5.12467 27.3136 5.12467 27.3135C5.12467 27.3135 5.12467 27.3135 5.12467 27.3135C5.12467 27.3135 5.12467 27.3135 5.12467 27.3134C5.12467 27.3134 5.12467 27.3134 5.12467 27.3134C5.12467 27.3134 5.12467 27.3133 5.12467 27.3133C5.12467 27.3133 5.12467 27.3133 5.12467 27.3133C5.12467 27.3132 5.12467 27.3132 5.12467 27.3132C5.12467 27.3132 5.12467 27.3132 5.12467 27.3131C5.12467 27.3131 5.12467 27.3131 5.12467 27.3131C5.12467 27.3131 5.12467 27.313 5.12467 27.313C5.12467 27.313 5.12467 27.313 5.12467 27.313C5.12467 27.3129 5.12467 27.3129 5.12467 27.3129C5.12467 27.3129 5.12467 27.3129 5.12467 27.3129C5.12467 27.3128 5.12467 27.3128 5.12467 27.3128C5.12467 27.3128 5.12467 27.3128 5.12467 27.3127C5.12467 27.3127 5.12467 27.3127 5.12467 27.3127C5.12467 27.3127 5.12467 27.3126 5.12467 27.3126C5.12467 27.3126 5.12467 27.3126 5.12467 27.3126C5.12467 27.3125 5.12467 27.3125 5.12467 27.3125C5.12467 27.3125 5.12467 27.3125 5.12467 27.3124C5.12467 27.3124 5.12467 27.3124 5.12467 27.3124C5.12467 27.3124 5.12467 27.3123 5.12467 27.3123C5.12467 27.3123 5.12467 27.3123 5.12467 27.3123C5.12467 27.3122 5.12467 27.3122 5.12467 27.3122C5.12467 27.3122 5.12467 27.3122 5.12467 27.3122C5.12467 27.3121 5.12467 27.3121 5.12467 27.3121C5.12467 27.3121 5.12467 27.3121 5.12467 27.312C5.12467 27.312 5.12467 27.312 5.12467 27.312C5.12467 27.312 5.12467 27.3119 5.12467 27.3119C5.12467 27.3119 5.12467 27.3119 5.12467 27.3119C5.12467 27.3118 5.12467 27.3118 5.12467 27.3118C5.12467 27.3118 5.12467 27.3118 5.12467 27.3117C5.12467 27.3117 5.12467 27.3117 5.12467 27.3117C5.12467 27.3117 5.12467 27.3116 5.12467 27.3116C5.12467 27.3116 5.12467 27.3116 5.12467 27.3116C5.12467 27.3116 5.12467 27.3115 5.12467 27.3115C5.12467 27.3115 5.12467 27.3115 5.12467 27.3115C5.12467 27.3114 5.12467 27.3114 5.12467 27.3114C5.12467 27.3114 5.12467 27.3114 5.12467 27.3113C5.12467 27.3113 5.12467 27.3113 5.12467 27.3113C5.12467 27.3113 5.12467 27.3112 5.12467 27.3112C5.12467 27.3112 5.12467 27.3112 5.12467 27.3112C5.12467 27.3111 5.12467 27.3111 5.12467 27.3111C5.12467 27.3111 5.12467 27.3111 5.12467 27.311C5.12467 27.311 5.12467 27.311 5.12467 27.311C5.12467 27.311 5.12467 27.3109 5.12467 27.3109C5.12467 27.3109 5.12467 27.3109 5.12467 27.3109C5.12467 27.3109 5.12467 27.3108 5.12467 27.3108C5.12467 27.3108 5.12467 27.3108 5.12467 27.3108C5.12467 27.3107 5.12467 27.3107 5.12467 27.3107C5.12467 27.3107 5.12467 27.3107 5.12467 27.3106C5.12467 27.3106 5.12467 27.3106 5.12467 27.3106C5.12467 27.3106 5.12467 27.3105 5.12467 27.3105C5.12467 27.3105 5.12467 27.3105 5.12467 27.3105C5.12467 27.3104 5.12467 27.3104 5.12467 27.3104C5.12467 27.3104 5.12467 27.3104 5.12467 27.3103C5.12467 27.3103 5.12467 27.3103 5.12467 27.3103C5.12467 27.3103 5.12467 27.3102 5.12467 27.3102C5.12467 27.3102 5.12467 27.3102 5.12467 27.3102C5.12467 27.3102 5.12467 27.3101 5.12467 27.3101C5.12467 27.3101 5.12467 27.3101 5.12467 27.3101C5.12467 27.31 5.12467 27.31 5.12467 27.31C5.12467 27.31 5.12467 27.31 5.12467 27.3099C5.12467 27.3099 5.12467 27.3099 5.12467 27.3099C5.12467 27.3099 5.12467 27.3098 5.12467 27.3098C5.12467 27.3098 5.12467 27.3098 5.12467 27.3098C5.12467 27.3097 5.12467 27.3097 5.12467 27.3097C5.12467 27.3097 5.12467 27.3097 5.12467 27.3096C5.12467 27.3096 5.12467 27.3096 5.12467 27.3096C5.12467 27.3096 5.12467 27.3095 5.12467 27.3095C5.12467 27.3095 5.12467 27.3095 5.12467 27.3095C5.12467 27.3095 5.12467 27.3094 5.12467 27.3094C5.12467 27.3094 5.12467 27.3094 5.12467 27.3094C5.12467 27.3093 5.12467 27.3093 5.12467 27.3093C5.12467 27.3093 5.12467 27.3093 5.12467 27.3092C5.12467 27.3092 5.12467 27.3092 5.12467 27.3092C5.12467 27.3092 5.12467 27.3091 5.12467 27.3091C5.12467 27.3091 5.12467 27.3091 5.12467 27.3091C5.12467 27.309 5.12467 27.309 5.12467 27.309C5.12467 27.309 5.12467 27.309 5.12467 27.3089C5.12467 27.3089 5.12467 27.3089 5.12467 27.3089C5.12467 27.3089 5.12467 27.3089 5.12467 27.3088C5.12467 27.3088 5.12467 27.3088 5.12467 27.3088C5.12467 27.3088 5.12467 27.3087 5.12467 27.3087C5.12467 27.3087 5.12467 27.3087 5.12467 27.3087C5.12467 27.3086 5.12467 27.3086 5.12467 27.3086C5.12467 27.3086 5.12467 27.3086 5.12467 27.3085C5.12467 27.3085 5.12467 27.3085 5.12467 27.3085C5.12467 27.3085 5.12467 27.3084 5.12467 27.3084C5.12467 27.3084 5.12467 27.3084 5.12467 27.3084C5.12467 27.3083 5.12467 27.3083 5.12467 27.3083C5.12467 27.3083 5.12467 27.3083 5.12467 27.3082C5.12467 27.3082 5.12467 27.3082 5.12467 27.3082C5.12467 27.3082 5.12467 27.3082 5.12467 27.3081C5.12467 27.3081 5.12467 27.3081 5.12467 27.3081C5.12467 27.3081 5.12467 27.308 5.12467 27.308C5.12467 27.308 5.12467 27.308 5.12467 27.308C5.12467 27.3079 5.12467 27.3079 5.12467 27.3079C5.12467 27.3079 5.12467 27.3079 5.12467 27.3078C5.12467 27.3078 5.12467 27.3078 5.12467 27.3078C5.12467 27.3078 5.12467 27.3077 5.12467 27.3077C5.12467 27.3077 5.12467 27.3077 5.12467 27.3077C5.12467 27.3076 5.12467 27.3076 5.12467 27.3076C5.12467 27.3076 5.12467 27.3076 5.12467 27.3076C5.12467 27.3075 5.12467 27.3075 5.12467 27.3075C5.12467 27.3075 5.12467 27.3075 5.12467 27.3074C5.12467 27.3074 5.12467 27.3074 5.12467 27.3074C5.12467 27.3074 5.12467 27.3073 5.12467 27.3073C5.12467 27.3073 5.12467 27.3073 5.12467 27.3073C5.12467 27.3072 5.12467 27.3072 5.12467 27.3072C5.12467 27.3072 5.12467 27.3072 5.12467 27.3071C5.12467 27.3071 5.12467 27.3071 5.12467 27.3071C5.12467 27.3071 5.12467 27.307 5.12467 27.307C5.12467 27.307 5.12467 27.307 5.12467 27.307C5.12467 27.3069 5.12467 27.3069 5.12467 27.3069C5.12467 27.3069 5.12467 27.3069 5.12467 27.3069C5.12467 27.3068 5.12467 27.3068 5.12467 27.3068C5.12467 27.3068 5.12467 27.3068 5.12467 27.3067C5.12467 27.3067 5.12467 27.3067 5.12467 27.3067C5.12467 27.3067 5.12467 27.3066 5.12467 27.3066C5.12467 27.3066 5.12467 27.3066 5.12467 27.3066C5.12467 27.3065 5.12467 27.3065 5.12467 27.3065C5.12467 27.3065 5.12467 27.3065 5.12467 27.3064C5.12467 27.3064 5.12467 27.3064 5.12467 27.3064C5.12467 27.3064 5.12467 27.3063 5.12467 27.3063C5.12467 27.3063 5.12467 27.3063 5.12467 27.3063C5.12467 27.3062 5.12467 27.3062 5.12467 27.3062C5.12467 27.3062 5.12467 27.3062 5.12467 27.3062C5.12467 27.3061 5.12467 27.3061 5.12467 27.3061C5.12467 27.3061 5.12467 27.3061 5.12467 27.306C5.12467 27.306 5.12467 27.306 5.12467 27.306C5.12467 27.306 5.12467 27.3059 5.12467 27.3059C5.12467 27.3059 5.12467 27.3059 5.12467 27.3059C5.12467 27.3058 5.12467 27.3058 5.12467 27.3058C5.12467 27.3058 5.12467 27.3058 5.12467 27.3057C5.12467 27.3057 5.12467 27.3057 5.12467 27.3057C5.12467 27.3057 5.12467 27.3056 5.12467 27.3056C5.12467 27.3056 5.12467 27.3056 5.12467 27.3056C5.12467 27.3055 5.12467 27.3055 5.12467 27.3055C5.12467 27.3055 5.12467 27.3055 5.12467 27.3055C5.12467 27.3054 5.12467 27.3054 5.12467 27.3054C5.12467 27.3054 5.12467 27.3054 5.12467 27.3053C5.12467 27.3053 5.12467 27.3053 5.12467 27.3053C5.12467 27.3053 5.12467 27.3052 5.12467 27.3052C5.12467 27.3052 5.12467 27.3052 5.12467 27.3052C5.12467 27.3051 5.12467 27.3051 5.12467 27.3051C5.12467 27.3051 5.12467 27.3051 5.12467 27.305C5.12467 27.305 5.12467 27.305 5.12467 27.305C5.12467 27.305 5.12467 27.3049 5.12467 27.3049C5.12467 27.3049 5.12467 27.3049 5.12467 27.3049C5.12467 27.3048 5.12467 27.3048 5.12467 27.3048C5.12467 27.3048 5.12467 27.3048 5.12467 27.3048C5.12467 27.3047 5.12467 27.3047 5.12467 27.3047C5.12467 27.3047 5.12467 27.3047 5.12467 27.3046C5.12467 27.3046 5.12467 27.3046 5.12467 27.3046C5.12467 27.3046 5.12467 27.3045 5.12467 27.3045C5.12467 27.3045 5.12467 27.3045 5.12467 27.3045C5.12467 27.3044 5.12467 27.3044 5.12467 27.3044C5.12467 27.3044 5.12467 27.3044 5.12467 27.3043C5.12467 27.3043 5.12467 27.3043 5.12467 27.3043C5.12467 27.3043 5.12467 27.3042 5.12467 27.3042C5.12467 27.3042 5.12467 27.3042 5.12467 27.3042C5.12467 27.3042 5.12467 27.3041 5.12467 27.3041C5.12467 27.3041 5.12467 27.3041 5.12467 27.3041C5.12467 27.304 5.12467 27.304 5.12467 27.304C5.12467 27.304 5.12467 27.304 5.12467 27.3039C5.12467 27.3039 5.12467 27.3039 5.12467 27.3039C5.12467 27.3039 5.12467 27.3038 5.12467 27.3038C5.12467 27.3038 5.12467 27.3038 5.12467 27.3038C5.12467 27.3037 5.12467 27.3037 5.12467 27.3037C5.12467 27.3037 5.12467 27.3037 5.12467 27.3036C5.12467 27.3036 5.12467 27.3036 5.12467 27.3036C5.12467 27.3036 5.12467 27.3035 5.12467 27.3035C5.12467 27.3035 5.12467 27.3035 5.12467 27.3035C5.12467 27.3035 5.12467 27.3034 5.12467 27.3034C5.12467 27.3034 5.12467 27.3034 5.12467 27.3034C5.12467 27.3033 5.12467 27.3033 5.12467 27.3033C5.12467 27.3033 5.12467 27.3033 5.12467 27.3032C5.12467 27.3032 5.12467 27.3032 5.12467 27.3032C5.12467 27.3032 5.12467 27.3031 5.12467 27.3031C5.12467 27.3031 5.12467 27.3031 5.12467 27.3031C5.12467 27.303 5.12467 27.303 5.12467 27.303C5.12467 27.303 5.12467 27.303 5.12467 27.3029C5.12467 27.3029 5.12467 27.3029 5.12467 27.3029C5.12467 27.3029 5.12467 27.3028 5.12467 27.3028C5.12467 27.3028 5.12467 27.3028 5.12467 27.3028C5.12467 27.3028 5.12467 27.3027 5.12467 27.3027C5.12467 27.3027 5.12467 27.3027 5.12467 27.3027C5.12467 27.3026 5.12467 27.3026 5.12467 27.3026C5.12467 27.3026 5.12467 27.3026 5.12467 27.3025C5.12467 27.3025 5.12467 27.3025 5.12467 27.3025C5.12467 27.3025 5.12467 27.3024 5.12467 27.3024C5.12467 27.3024 5.12467 27.3024 5.12467 27.3024C5.12467 27.3023 5.12467 27.3023 5.12467 27.3023C5.12467 27.3023 5.12467 27.3023 5.12467 27.3022C5.12467 27.3022 5.12467 27.3022 5.12467 27.3022C5.12467 27.3022 5.12467 27.3022 5.12467 27.3021C5.12467 27.3021 5.12467 27.3021 5.12467 27.3021C5.12467 27.3021 5.12467 27.302 5.12467 27.302C5.12467 27.302 5.12467 27.302 5.12467 27.302C5.12467 27.3019 5.12467 27.3019 5.12467 27.3019C5.12467 27.3019 5.12467 27.3019 5.12467 27.3018C5.12467 27.3018 5.12467 27.3018 5.12467 27.3018C5.12467 27.3018 5.12467 27.3017 5.12467 27.3017C5.12467 27.3017 5.12467 27.3017 5.12467 27.3017C5.12467 27.3016 5.12467 27.3016 5.12467 27.3016C5.12467 27.3016 5.12467 27.3016 5.12467 27.3015C5.12467 27.3015 5.12467 27.3015 5.12467 27.3015C5.12467 27.3015 5.12467 27.3015 5.12467 27.3014C5.12467 27.3014 5.12467 27.3014 5.12467 27.3014C5.12467 27.3014 5.12467 27.3013 5.12467 27.3013C5.12467 27.3013 5.12467 27.3013 5.12467 27.3013C5.12467 27.3012 5.12467 27.3012 5.12467 27.3012C5.12467 27.3012 5.12467 27.3012 5.12467 27.3011C5.12467 27.3011 5.12467 27.3011 5.12467 27.3011C5.12467 27.3011 5.12467 27.301 5.12467 27.301C5.12467 27.301 5.12467 27.301 5.12467 27.301C5.12467 27.3009 5.12467 27.3009 5.12467 27.3009C5.12467 27.3009 5.12467 27.3009 5.12467 27.3008C5.12467 27.3008 5.12467 27.3008 5.12467 27.3008C5.12467 27.3008 5.12467 27.3008 5.12467 27.3007C5.12467 27.3007 5.12467 27.3007 5.12467 27.3007C5.12467 27.3007 5.12467 27.3006 5.12467 27.3006C5.12467 27.3006 5.12467 27.3006 5.12467 27.3006C5.12467 27.3005 5.12467 27.3005 5.12467 27.3005C5.12467 27.3005 5.12467 27.3005 5.12467 27.3004C5.12467 27.3004 5.12467 27.3004 5.12467 27.3004C5.12467 27.3004 5.12467 27.3003 5.12467 27.3003C5.12467 27.3003 5.12467 27.3003 5.12467 27.3003C5.12467 27.3002 5.12467 27.3002 5.12467 27.3002C5.12467 27.3002 5.12467 27.3002 5.12467 27.3001C5.12467 27.3001 5.12467 27.3001 5.12467 27.3001C5.12467 27.3001 5.12467 27.3001 5.12467 27.3C5.12467 27.3 5.12467 27.3 5.12467 27.3C5.12467 27.3 5.12467 27.2999 5.12467 27.2999C5.12467 27.2999 5.12467 27.2999 5.12467 27.2999C5.12467 27.2998 5.12467 27.2998 5.12467 27.2998C5.12467 27.2998 5.12467 27.2998 5.12467 27.2997C5.12467 27.2997 5.12467 27.2997 5.12467 27.2997C5.12467 27.2997 5.12467 27.2996 5.12467 27.2996C5.12467 27.2996 5.12467 27.2996 5.12467 27.2996C5.12467 27.2995 5.12467 27.2995 5.12467 27.2995C5.12467 27.2995 5.12467 27.2995 5.12467 27.2994C5.12467 27.2994 5.12467 27.2994 5.12467 27.2994C5.12467 27.2994 5.12467 27.2994 5.12467 27.2993C5.12467 27.2993 5.12467 27.2993 5.12467 27.2993C5.12467 27.2993 5.12467 27.2992 5.12467 27.2992C5.12467 27.2992 5.12467 27.2992 5.12467 27.2992C5.12467 27.2991 5.12467 27.2991 5.12467 27.2991C5.12467 27.2991 5.12467 27.2991 5.12467 27.299C5.12467 27.299 5.12467 27.299 5.12467 27.299C5.12467 27.299 5.12467 27.2989 5.12467 27.2989C5.12467 27.2989 5.12467 27.2989 5.12467 27.2989C5.12467 27.2988 5.12467 27.2988 5.12467 27.2988C5.12467 27.2988 5.12467 27.2988 5.12467 27.2987C5.12467 27.2987 5.12467 27.2987 5.12467 27.2987C5.12467 27.2987 5.12467 27.2987 5.12467 27.2986C5.12467 27.2986 5.12467 27.2986 5.12467 27.2986C5.12467 27.2986 5.12467 27.2985 5.12467 27.2985C5.12467 27.2985 5.12467 27.2985 5.12467 27.2985C5.12467 27.2984 5.12467 27.2984 5.12467 27.2984C5.12467 27.2984 5.12467 27.2984 5.12467 27.2983C5.12467 27.2983 5.12467 27.2983 5.12467 27.2983C5.12467 27.2983 5.12467 27.2982 5.12467 27.2982C5.12467 27.2982 5.12467 27.2982 5.12467 27.2982C5.12467 27.2981 5.12467 27.2981 5.12467 27.2981C5.12467 27.2981 5.12467 27.2981 5.12467 27.298C5.12467 27.298 5.12467 27.298 5.12467 27.298C5.12467 27.298 5.12467 27.298 5.12467 27.2979C5.12467 27.2979 5.12467 27.2979 5.12467 27.2979C5.12467 27.2979 5.12467 27.2978 5.12467 27.2978C5.12467 27.2978 5.12467 27.2978 5.12467 27.2978C5.12467 27.2977 5.12467 27.2977 5.12467 27.2977C5.12467 27.2977 5.12467 27.2977 5.12467 27.2976C5.12467 27.2976 5.12467 27.2976 5.12467 27.2976C5.12467 27.2976 5.12467 27.2975 5.12467 27.2975C5.12467 27.2975 5.12467 27.2975 5.12467 27.2975C5.12467 27.2974 5.12467 27.2974 5.12467 27.2974C5.12467 27.2974 5.12467 27.2974 5.12467 27.2973C5.12467 27.2973 5.12467 27.2973 5.12467 27.2973C5.12467 27.2973 5.12467 27.2973 5.12467 27.2972C5.12467 27.2972 5.12467 27.2972 5.12467 27.2972C5.12467 27.2972 5.12467 27.2971 5.12467 27.2971C5.12467 27.2971 5.12467 27.2971 5.12467 27.2971C5.12467 27.297 5.12467 27.297 5.12467 27.297C5.12467 27.297 5.12467 27.297 5.12467 27.2969C5.12467 27.2969 5.12467 27.2969 5.12467 27.2969C5.12467 27.2969 5.12467 27.2968 5.12467 27.2968C5.12467 27.2968 5.12467 27.2968 5.12467 27.2968C5.12467 27.2967 5.12467 27.2967 5.12467 27.2967C5.12467 27.2967 5.12467 27.2967 5.12467 27.2966C5.12467 27.2966 5.12467 27.2966 5.12467 27.2966C5.12467 27.2966 5.12467 27.2966 5.12467 27.2965C5.12467 27.2965 5.12467 27.2965 5.12467 27.2965C5.12467 27.2965 5.12467 27.2964 5.12467 27.2964C5.12467 27.2964 5.12467 27.2964 5.12467 27.2964C5.12467 27.2963 5.12467 27.2963 5.12467 27.2963C5.12467 27.2963 5.12467 27.2963 5.12467 27.2962C5.12467 27.2962 5.12467 27.2962 5.12467 27.2962C5.12467 27.2962 5.12467 27.2961 5.12467 27.2961C5.12467 27.2961 5.12467 27.2961 5.12467 27.2961C5.12467 27.296 5.12467 27.296 5.12467 27.296C5.12467 27.296 5.12467 27.296 5.12467 27.2959C5.12467 27.2959 5.12467 27.2959 5.12467 27.2959C5.12467 27.2959 5.12467 27.2959 5.12467 27.2958C5.12467 27.2958 5.12467 27.2958 5.12467 27.2958C5.12467 27.2958 5.12467 27.2957 5.12467 27.2957C5.12467 27.2957 5.12467 27.2957 5.12467 27.2957C5.12467 27.2956 5.12467 27.2956 5.12467 27.2956C5.12467 27.2956 5.12467 27.2956 5.12467 27.2955C5.12467 27.2955 5.12467 27.2955 5.12467 27.2955C5.12467 27.2955 5.12467 27.2954 5.12467 27.2954C5.12467 27.2954 5.12467 27.2954 5.12467 27.2954C5.12467 27.2953 5.12467 27.2953 5.12467 27.2953C5.12467 27.2953 5.12467 27.2953 5.12467 27.2952C5.12467 27.2952 5.12467 27.2952 5.12467 27.2952C5.12467 27.2952 5.12467 27.2952 5.12467 27.2951C5.12467 27.2951 5.12467 27.2951 5.12467 27.2951C5.12467 27.2951 5.12467 27.295 5.12467 27.295C5.12467 27.295 5.12467 27.295 5.12467 27.295C5.12467 27.2949 5.12467 27.2949 5.12467 27.2949C5.12467 27.2949 5.12467 27.2949 5.12467 27.2948C5.12467 27.2948 5.12467 27.2948 5.12467 27.2948C5.12467 27.2948 5.12467 27.2947 5.12467 27.2947C5.12467 27.2947 5.12467 27.2947 5.12467 27.2947C5.12467 27.2946 5.12467 27.2946 5.12467 27.2946C5.12467 27.2946 5.12467 27.2946 5.12467 27.2945C5.12467 27.2945 5.12467 27.2945 5.12467 27.2945C5.12467 27.2945 5.12467 27.2945 5.12467 27.2944C5.12467 27.2944 5.12467 27.2944 5.12467 27.2944C5.12467 27.2944 5.12467 27.2943 5.12467 27.2943C5.12467 27.2943 5.12467 27.2943 5.12467 27.2943C5.12467 27.2942 5.12467 27.2942 5.12467 27.2942C5.12467 27.2942 5.12467 27.2942 5.12467 27.2941C5.12467 27.2941 5.12467 27.2941 5.12467 27.2941C5.12467 27.2941 5.12467 27.294 5.12467 27.294C5.12467 27.294 5.12467 27.294 5.12467 27.294C5.12467 27.2939 5.12467 27.2939 5.12467 27.2939C5.12467 27.2939 5.12467 27.2939 5.12467 27.2938C5.12467 27.2938 5.12467 27.2938 5.12467 27.2938C5.12467 27.2938 5.12467 27.2938 5.12467 27.2937C5.12467 27.2937 5.12467 27.2937 5.12467 27.2937C5.12467 27.2937 5.12467 27.2936 5.12467 27.2936C5.12467 27.2936 5.12467 27.2936 5.12467 27.2936C5.12467 27.2935 5.12467 27.2935 5.12467 27.2935C5.12467 27.2935 5.12467 27.2935 5.12467 27.2934C5.12467 27.2934 5.12467 27.2934 5.12467 27.2934C5.12467 27.2934 5.12467 27.2933 5.12467 27.2933C5.12467 27.2933 5.12467 27.2933 5.12467 27.2933C5.12467 27.2932 5.12467 27.2932 5.12467 27.2932C5.12467 27.2932 5.12467 27.2932 5.12467 27.2931C5.12467 27.2931 5.12467 27.2931 5.12467 27.2931C5.12467 27.2931 5.12467 27.2931 5.12467 27.293C5.12467 27.293 5.12467 27.293 5.12467 27.293C5.12467 27.293 5.12467 27.2929 5.12467 27.2929C5.12467 27.2929 5.12467 27.2929 5.12467 27.2929C5.12467 27.2928 5.12467 27.2928 5.12467 27.2928C5.12467 27.2928 5.12467 27.2928 5.12467 27.2927C5.12467 27.2927 5.12467 27.2927 5.12467 27.2927C5.12467 27.2927 5.12467 27.2926 5.12467 27.2926C5.12467 27.2926 5.12467 27.2926 5.12467 27.2926C5.12467 27.2925 5.12467 27.2925 5.12467 27.2925C5.12467 27.2925 5.12467 27.2925 5.12467 27.2924C5.12467 27.2924 5.12467 27.2924 5.12467 27.2924C5.12467 27.2924 5.12467 27.2924 5.12467 27.2923C5.12467 27.2923 5.12467 27.2923 5.12467 27.2923C5.12467 27.2923 5.12467 27.2922 5.12467 27.2922C5.12467 27.2922 5.12467 27.2922 5.12467 27.2922C5.12467 27.2921 5.12467 27.2921 5.12467 27.2921C5.12467 27.2921 5.12467 27.2921 5.12467 27.292C5.12467 27.292 5.12467 27.292 5.12467 27.292C5.12467 27.292 5.12467 27.2919 5.12467 27.2919C5.12467 27.2919 5.12467 27.2919 5.12467 27.2919C5.12467 27.2918 5.12467 27.2918 5.12467 27.2918C5.12467 27.2918 5.12467 27.2918 5.12467 27.2917C5.12467 27.2917 5.12467 27.2917 5.12467 27.2917C5.12467 27.2917 5.12467 27.2917 5.12467 27.2916C5.12467 27.2916 5.12467 27.2916 5.12467 27.2916C5.12467 27.2916 5.12467 27.2915 5.12467 27.2915C5.12467 27.2915 5.12467 27.2915 5.12467 27.2915C5.12467 27.2914 5.12467 27.2914 5.12467 27.2914C5.12467 27.2914 5.12467 27.2914 5.12467 27.2913H4.12467C4.12467 27.2914 4.12467 27.2914 4.12467 27.2914C4.12467 27.2914 4.12467 27.2914 4.12467 27.2915C4.12467 27.2915 4.12467 27.2915 4.12467 27.2915C4.12467 27.2915 4.12467 27.2916 4.12467 27.2916C4.12467 27.2916 4.12467 27.2916 4.12467 27.2916C4.12467 27.2917 4.12467 27.2917 4.12467 27.2917C4.12467 27.2917 4.12467 27.2917 4.12467 27.2917C4.12467 27.2918 4.12467 27.2918 4.12467 27.2918C4.12467 27.2918 4.12467 27.2918 4.12467 27.2919C4.12467 27.2919 4.12467 27.2919 4.12467 27.2919C4.12467 27.2919 4.12467 27.292 4.12467 27.292C4.12467 27.292 4.12467 27.292 4.12467 27.292C4.12467 27.2921 4.12467 27.2921 4.12467 27.2921C4.12467 27.2921 4.12467 27.2921 4.12467 27.2922C4.12467 27.2922 4.12467 27.2922 4.12467 27.2922C4.12467 27.2922 4.12467 27.2923 4.12467 27.2923C4.12467 27.2923 4.12467 27.2923 4.12467 27.2923C4.12467 27.2924 4.12467 27.2924 4.12467 27.2924C4.12467 27.2924 4.12467 27.2924 4.12467 27.2924C4.12467 27.2925 4.12467 27.2925 4.12467 27.2925C4.12467 27.2925 4.12467 27.2925 4.12467 27.2926C4.12467 27.2926 4.12467 27.2926 4.12467 27.2926C4.12467 27.2926 4.12467 27.2927 4.12467 27.2927C4.12467 27.2927 4.12467 27.2927 4.12467 27.2927C4.12467 27.2928 4.12467 27.2928 4.12467 27.2928C4.12467 27.2928 4.12467 27.2928 4.12467 27.2929C4.12467 27.2929 4.12467 27.2929 4.12467 27.2929C4.12467 27.2929 4.12467 27.293 4.12467 27.293C4.12467 27.293 4.12467 27.293 4.12467 27.293C4.12467 27.2931 4.12467 27.2931 4.12467 27.2931C4.12467 27.2931 4.12467 27.2931 4.12467 27.2931C4.12467 27.2932 4.12467 27.2932 4.12467 27.2932C4.12467 27.2932 4.12467 27.2932 4.12467 27.2933C4.12467 27.2933 4.12467 27.2933 4.12467 27.2933C4.12467 27.2933 4.12467 27.2934 4.12467 27.2934C4.12467 27.2934 4.12467 27.2934 4.12467 27.2934C4.12467 27.2935 4.12467 27.2935 4.12467 27.2935C4.12467 27.2935 4.12467 27.2935 4.12467 27.2936C4.12467 27.2936 4.12467 27.2936 4.12467 27.2936C4.12467 27.2936 4.12467 27.2937 4.12467 27.2937C4.12467 27.2937 4.12467 27.2937 4.12467 27.2937C4.12467 27.2938 4.12467 27.2938 4.12467 27.2938C4.12467 27.2938 4.12467 27.2938 4.12467 27.2938C4.12467 27.2939 4.12467 27.2939 4.12467 27.2939C4.12467 27.2939 4.12467 27.2939 4.12467 27.294C4.12467 27.294 4.12467 27.294 4.12467 27.294C4.12467 27.294 4.12467 27.2941 4.12467 27.2941C4.12467 27.2941 4.12467 27.2941 4.12467 27.2941C4.12467 27.2942 4.12467 27.2942 4.12467 27.2942C4.12467 27.2942 4.12467 27.2942 4.12467 27.2943C4.12467 27.2943 4.12467 27.2943 4.12467 27.2943C4.12467 27.2943 4.12467 27.2944 4.12467 27.2944C4.12467 27.2944 4.12467 27.2944 4.12467 27.2944C4.12467 27.2945 4.12467 27.2945 4.12467 27.2945C4.12467 27.2945 4.12467 27.2945 4.12467 27.2945C4.12467 27.2946 4.12467 27.2946 4.12467 27.2946C4.12467 27.2946 4.12467 27.2946 4.12467 27.2947C4.12467 27.2947 4.12467 27.2947 4.12467 27.2947C4.12467 27.2947 4.12467 27.2948 4.12467 27.2948C4.12467 27.2948 4.12467 27.2948 4.12467 27.2948C4.12467 27.2949 4.12467 27.2949 4.12467 27.2949C4.12467 27.2949 4.12467 27.2949 4.12467 27.295C4.12467 27.295 4.12467 27.295 4.12467 27.295C4.12467 27.295 4.12467 27.2951 4.12467 27.2951C4.12467 27.2951 4.12467 27.2951 4.12467 27.2951C4.12467 27.2952 4.12467 27.2952 4.12467 27.2952C4.12467 27.2952 4.12467 27.2952 4.12467 27.2952C4.12467 27.2953 4.12467 27.2953 4.12467 27.2953C4.12467 27.2953 4.12467 27.2953 4.12467 27.2954C4.12467 27.2954 4.12467 27.2954 4.12467 27.2954C4.12467 27.2954 4.12467 27.2955 4.12467 27.2955C4.12467 27.2955 4.12467 27.2955 4.12467 27.2955C4.12467 27.2956 4.12467 27.2956 4.12467 27.2956C4.12467 27.2956 4.12467 27.2956 4.12467 27.2957C4.12467 27.2957 4.12467 27.2957 4.12467 27.2957C4.12467 27.2957 4.12467 27.2958 4.12467 27.2958C4.12467 27.2958 4.12467 27.2958 4.12467 27.2958C4.12467 27.2959 4.12467 27.2959 4.12467 27.2959C4.12467 27.2959 4.12467 27.2959 4.12467 27.2959C4.12467 27.296 4.12467 27.296 4.12467 27.296C4.12467 27.296 4.12467 27.296 4.12467 27.2961C4.12467 27.2961 4.12467 27.2961 4.12467 27.2961C4.12467 27.2961 4.12467 27.2962 4.12467 27.2962C4.12467 27.2962 4.12467 27.2962 4.12467 27.2962C4.12467 27.2963 4.12467 27.2963 4.12467 27.2963C4.12467 27.2963 4.12467 27.2963 4.12467 27.2964C4.12467 27.2964 4.12467 27.2964 4.12467 27.2964C4.12467 27.2964 4.12467 27.2965 4.12467 27.2965C4.12467 27.2965 4.12467 27.2965 4.12467 27.2965C4.12467 27.2966 4.12467 27.2966 4.12467 27.2966C4.12467 27.2966 4.12467 27.2966 4.12467 27.2966C4.12467 27.2967 4.12467 27.2967 4.12467 27.2967C4.12467 27.2967 4.12467 27.2967 4.12467 27.2968C4.12467 27.2968 4.12467 27.2968 4.12467 27.2968C4.12467 27.2968 4.12467 27.2969 4.12467 27.2969C4.12467 27.2969 4.12467 27.2969 4.12467 27.2969C4.12467 27.297 4.12467 27.297 4.12467 27.297C4.12467 27.297 4.12467 27.297 4.12467 27.2971C4.12467 27.2971 4.12467 27.2971 4.12467 27.2971C4.12467 27.2971 4.12467 27.2972 4.12467 27.2972C4.12467 27.2972 4.12467 27.2972 4.12467 27.2972C4.12467 27.2973 4.12467 27.2973 4.12467 27.2973C4.12467 27.2973 4.12467 27.2973 4.12467 27.2973C4.12467 27.2974 4.12467 27.2974 4.12467 27.2974C4.12467 27.2974 4.12467 27.2974 4.12467 27.2975C4.12467 27.2975 4.12467 27.2975 4.12467 27.2975C4.12467 27.2975 4.12467 27.2976 4.12467 27.2976C4.12467 27.2976 4.12467 27.2976 4.12467 27.2976C4.12467 27.2977 4.12467 27.2977 4.12467 27.2977C4.12467 27.2977 4.12467 27.2977 4.12467 27.2978C4.12467 27.2978 4.12467 27.2978 4.12467 27.2978C4.12467 27.2978 4.12467 27.2979 4.12467 27.2979C4.12467 27.2979 4.12467 27.2979 4.12467 27.2979C4.12467 27.298 4.12467 27.298 4.12467 27.298C4.12467 27.298 4.12467 27.298 4.12467 27.298C4.12467 27.2981 4.12467 27.2981 4.12467 27.2981C4.12467 27.2981 4.12467 27.2981 4.12467 27.2982C4.12467 27.2982 4.12467 27.2982 4.12467 27.2982C4.12467 27.2982 4.12467 27.2983 4.12467 27.2983C4.12467 27.2983 4.12467 27.2983 4.12467 27.2983C4.12467 27.2984 4.12467 27.2984 4.12467 27.2984C4.12467 27.2984 4.12467 27.2984 4.12467 27.2985C4.12467 27.2985 4.12467 27.2985 4.12467 27.2985C4.12467 27.2985 4.12467 27.2986 4.12467 27.2986C4.12467 27.2986 4.12467 27.2986 4.12467 27.2986C4.12467 27.2987 4.12467 27.2987 4.12467 27.2987C4.12467 27.2987 4.12467 27.2987 4.12467 27.2987C4.12467 27.2988 4.12467 27.2988 4.12467 27.2988C4.12467 27.2988 4.12467 27.2988 4.12467 27.2989C4.12467 27.2989 4.12467 27.2989 4.12467 27.2989C4.12467 27.2989 4.12467 27.299 4.12467 27.299C4.12467 27.299 4.12467 27.299 4.12467 27.299C4.12467 27.2991 4.12467 27.2991 4.12467 27.2991C4.12467 27.2991 4.12467 27.2991 4.12467 27.2992C4.12467 27.2992 4.12467 27.2992 4.12467 27.2992C4.12467 27.2992 4.12467 27.2993 4.12467 27.2993C4.12467 27.2993 4.12467 27.2993 4.12467 27.2993C4.12467 27.2994 4.12467 27.2994 4.12467 27.2994C4.12467 27.2994 4.12467 27.2994 4.12467 27.2994C4.12467 27.2995 4.12467 27.2995 4.12467 27.2995C4.12467 27.2995 4.12467 27.2995 4.12467 27.2996C4.12467 27.2996 4.12467 27.2996 4.12467 27.2996C4.12467 27.2996 4.12467 27.2997 4.12467 27.2997C4.12467 27.2997 4.12467 27.2997 4.12467 27.2997C4.12467 27.2998 4.12467 27.2998 4.12467 27.2998C4.12467 27.2998 4.12467 27.2998 4.12467 27.2999C4.12467 27.2999 4.12467 27.2999 4.12467 27.2999C4.12467 27.2999 4.12467 27.3 4.12467 27.3C4.12467 27.3 4.12467 27.3 4.12467 27.3C4.12467 27.3001 4.12467 27.3001 4.12467 27.3001C4.12467 27.3001 4.12467 27.3001 4.12467 27.3001C4.12467 27.3002 4.12467 27.3002 4.12467 27.3002C4.12467 27.3002 4.12467 27.3002 4.12467 27.3003C4.12467 27.3003 4.12467 27.3003 4.12467 27.3003C4.12467 27.3003 4.12467 27.3004 4.12467 27.3004C4.12467 27.3004 4.12467 27.3004 4.12467 27.3004C4.12467 27.3005 4.12467 27.3005 4.12467 27.3005C4.12467 27.3005 4.12467 27.3005 4.12467 27.3006C4.12467 27.3006 4.12467 27.3006 4.12467 27.3006C4.12467 27.3006 4.12467 27.3007 4.12467 27.3007C4.12467 27.3007 4.12467 27.3007 4.12467 27.3007C4.12467 27.3008 4.12467 27.3008 4.12467 27.3008C4.12467 27.3008 4.12467 27.3008 4.12467 27.3008C4.12467 27.3009 4.12467 27.3009 4.12467 27.3009C4.12467 27.3009 4.12467 27.3009 4.12467 27.301C4.12467 27.301 4.12467 27.301 4.12467 27.301C4.12467 27.301 4.12467 27.3011 4.12467 27.3011C4.12467 27.3011 4.12467 27.3011 4.12467 27.3011C4.12467 27.3012 4.12467 27.3012 4.12467 27.3012C4.12467 27.3012 4.12467 27.3012 4.12467 27.3013C4.12467 27.3013 4.12467 27.3013 4.12467 27.3013C4.12467 27.3013 4.12467 27.3014 4.12467 27.3014C4.12467 27.3014 4.12467 27.3014 4.12467 27.3014C4.12467 27.3015 4.12467 27.3015 4.12467 27.3015C4.12467 27.3015 4.12467 27.3015 4.12467 27.3015C4.12467 27.3016 4.12467 27.3016 4.12467 27.3016C4.12467 27.3016 4.12467 27.3016 4.12467 27.3017C4.12467 27.3017 4.12467 27.3017 4.12467 27.3017C4.12467 27.3017 4.12467 27.3018 4.12467 27.3018C4.12467 27.3018 4.12467 27.3018 4.12467 27.3018C4.12467 27.3019 4.12467 27.3019 4.12467 27.3019C4.12467 27.3019 4.12467 27.3019 4.12467 27.302C4.12467 27.302 4.12467 27.302 4.12467 27.302C4.12467 27.302 4.12467 27.3021 4.12467 27.3021C4.12467 27.3021 4.12467 27.3021 4.12467 27.3021C4.12467 27.3022 4.12467 27.3022 4.12467 27.3022C4.12467 27.3022 4.12467 27.3022 4.12467 27.3022C4.12467 27.3023 4.12467 27.3023 4.12467 27.3023C4.12467 27.3023 4.12467 27.3023 4.12467 27.3024C4.12467 27.3024 4.12467 27.3024 4.12467 27.3024C4.12467 27.3024 4.12467 27.3025 4.12467 27.3025C4.12467 27.3025 4.12467 27.3025 4.12467 27.3025C4.12467 27.3026 4.12467 27.3026 4.12467 27.3026C4.12467 27.3026 4.12467 27.3026 4.12467 27.3027C4.12467 27.3027 4.12467 27.3027 4.12467 27.3027C4.12467 27.3027 4.12467 27.3028 4.12467 27.3028C4.12467 27.3028 4.12467 27.3028 4.12467 27.3028C4.12467 27.3028 4.12467 27.3029 4.12467 27.3029C4.12467 27.3029 4.12467 27.3029 4.12467 27.3029C4.12467 27.303 4.12467 27.303 4.12467 27.303C4.12467 27.303 4.12467 27.303 4.12467 27.3031C4.12467 27.3031 4.12467 27.3031 4.12467 27.3031C4.12467 27.3031 4.12467 27.3032 4.12467 27.3032C4.12467 27.3032 4.12467 27.3032 4.12467 27.3032C4.12467 27.3033 4.12467 27.3033 4.12467 27.3033C4.12467 27.3033 4.12467 27.3033 4.12467 27.3034C4.12467 27.3034 4.12467 27.3034 4.12467 27.3034C4.12467 27.3034 4.12467 27.3035 4.12467 27.3035C4.12467 27.3035 4.12467 27.3035 4.12467 27.3035C4.12467 27.3035 4.12467 27.3036 4.12467 27.3036C4.12467 27.3036 4.12467 27.3036 4.12467 27.3036C4.12467 27.3037 4.12467 27.3037 4.12467 27.3037C4.12467 27.3037 4.12467 27.3037 4.12467 27.3038C4.12467 27.3038 4.12467 27.3038 4.12467 27.3038C4.12467 27.3038 4.12467 27.3039 4.12467 27.3039C4.12467 27.3039 4.12467 27.3039 4.12467 27.3039C4.12467 27.304 4.12467 27.304 4.12467 27.304C4.12467 27.304 4.12467 27.304 4.12467 27.3041C4.12467 27.3041 4.12467 27.3041 4.12467 27.3041C4.12467 27.3041 4.12467 27.3042 4.12467 27.3042C4.12467 27.3042 4.12467 27.3042 4.12467 27.3042C4.12467 27.3042 4.12467 27.3043 4.12467 27.3043C4.12467 27.3043 4.12467 27.3043 4.12467 27.3043C4.12467 27.3044 4.12467 27.3044 4.12467 27.3044C4.12467 27.3044 4.12467 27.3044 4.12467 27.3045C4.12467 27.3045 4.12467 27.3045 4.12467 27.3045C4.12467 27.3045 4.12467 27.3046 4.12467 27.3046C4.12467 27.3046 4.12467 27.3046 4.12467 27.3046C4.12467 27.3047 4.12467 27.3047 4.12467 27.3047C4.12467 27.3047 4.12467 27.3047 4.12467 27.3048C4.12467 27.3048 4.12467 27.3048 4.12467 27.3048C4.12467 27.3048 4.12467 27.3048 4.12467 27.3049C4.12467 27.3049 4.12467 27.3049 4.12467 27.3049C4.12467 27.3049 4.12467 27.305 4.12467 27.305C4.12467 27.305 4.12467 27.305 4.12467 27.305C4.12467 27.3051 4.12467 27.3051 4.12467 27.3051C4.12467 27.3051 4.12467 27.3051 4.12467 27.3052C4.12467 27.3052 4.12467 27.3052 4.12467 27.3052C4.12467 27.3052 4.12467 27.3053 4.12467 27.3053C4.12467 27.3053 4.12467 27.3053 4.12467 27.3053C4.12467 27.3054 4.12467 27.3054 4.12467 27.3054C4.12467 27.3054 4.12467 27.3054 4.12467 27.3055C4.12467 27.3055 4.12467 27.3055 4.12467 27.3055C4.12467 27.3055 4.12467 27.3055 4.12467 27.3056C4.12467 27.3056 4.12467 27.3056 4.12467 27.3056C4.12467 27.3056 4.12467 27.3057 4.12467 27.3057C4.12467 27.3057 4.12467 27.3057 4.12467 27.3057C4.12467 27.3058 4.12467 27.3058 4.12467 27.3058C4.12467 27.3058 4.12467 27.3058 4.12467 27.3059C4.12467 27.3059 4.12467 27.3059 4.12467 27.3059C4.12467 27.3059 4.12467 27.306 4.12467 27.306C4.12467 27.306 4.12467 27.306 4.12467 27.306C4.12467 27.3061 4.12467 27.3061 4.12467 27.3061C4.12467 27.3061 4.12467 27.3061 4.12467 27.3062C4.12467 27.3062 4.12467 27.3062 4.12467 27.3062C4.12467 27.3062 4.12467 27.3062 4.12467 27.3063C4.12467 27.3063 4.12467 27.3063 4.12467 27.3063C4.12467 27.3063 4.12467 27.3064 4.12467 27.3064C4.12467 27.3064 4.12467 27.3064 4.12467 27.3064C4.12467 27.3065 4.12467 27.3065 4.12467 27.3065C4.12467 27.3065 4.12467 27.3065 4.12467 27.3066C4.12467 27.3066 4.12467 27.3066 4.12467 27.3066C4.12467 27.3066 4.12467 27.3067 4.12467 27.3067C4.12467 27.3067 4.12467 27.3067 4.12467 27.3067C4.12467 27.3068 4.12467 27.3068 4.12467 27.3068C4.12467 27.3068 4.12467 27.3068 4.12467 27.3069C4.12467 27.3069 4.12467 27.3069 4.12467 27.3069C4.12467 27.3069 4.12467 27.3069 4.12467 27.307C4.12467 27.307 4.12467 27.307 4.12467 27.307C4.12467 27.307 4.12467 27.3071 4.12467 27.3071C4.12467 27.3071 4.12467 27.3071 4.12467 27.3071C4.12467 27.3072 4.12467 27.3072 4.12467 27.3072C4.12467 27.3072 4.12467 27.3072 4.12467 27.3073C4.12467 27.3073 4.12467 27.3073 4.12467 27.3073C4.12467 27.3073 4.12467 27.3074 4.12467 27.3074C4.12467 27.3074 4.12467 27.3074 4.12467 27.3074C4.12467 27.3075 4.12467 27.3075 4.12467 27.3075C4.12467 27.3075 4.12467 27.3075 4.12467 27.3076C4.12467 27.3076 4.12467 27.3076 4.12467 27.3076C4.12467 27.3076 4.12467 27.3076 4.12467 27.3077C4.12467 27.3077 4.12467 27.3077 4.12467 27.3077C4.12467 27.3077 4.12467 27.3078 4.12467 27.3078C4.12467 27.3078 4.12467 27.3078 4.12467 27.3078C4.12467 27.3079 4.12467 27.3079 4.12467 27.3079C4.12467 27.3079 4.12467 27.3079 4.12467 27.308C4.12467 27.308 4.12467 27.308 4.12467 27.308C4.12467 27.308 4.12467 27.3081 4.12467 27.3081C4.12467 27.3081 4.12467 27.3081 4.12467 27.3081C4.12467 27.3082 4.12467 27.3082 4.12467 27.3082C4.12467 27.3082 4.12467 27.3082 4.12467 27.3082C4.12467 27.3083 4.12467 27.3083 4.12467 27.3083C4.12467 27.3083 4.12467 27.3083 4.12467 27.3084C4.12467 27.3084 4.12467 27.3084 4.12467 27.3084C4.12467 27.3084 4.12467 27.3085 4.12467 27.3085C4.12467 27.3085 4.12467 27.3085 4.12467 27.3085C4.12467 27.3086 4.12467 27.3086 4.12467 27.3086C4.12467 27.3086 4.12467 27.3086 4.12467 27.3087C4.12467 27.3087 4.12467 27.3087 4.12467 27.3087C4.12467 27.3087 4.12467 27.3088 4.12467 27.3088C4.12467 27.3088 4.12467 27.3088 4.12467 27.3088C4.12467 27.3089 4.12467 27.3089 4.12467 27.3089C4.12467 27.3089 4.12467 27.3089 4.12467 27.3089C4.12467 27.309 4.12467 27.309 4.12467 27.309C4.12467 27.309 4.12467 27.309 4.12467 27.3091C4.12467 27.3091 4.12467 27.3091 4.12467 27.3091C4.12467 27.3091 4.12467 27.3092 4.12467 27.3092C4.12467 27.3092 4.12467 27.3092 4.12467 27.3092C4.12467 27.3093 4.12467 27.3093 4.12467 27.3093C4.12467 27.3093 4.12467 27.3093 4.12467 27.3094C4.12467 27.3094 4.12467 27.3094 4.12467 27.3094C4.12467 27.3094 4.12467 27.3095 4.12467 27.3095C4.12467 27.3095 4.12467 27.3095 4.12467 27.3095C4.12467 27.3095 4.12467 27.3096 4.12467 27.3096C4.12467 27.3096 4.12467 27.3096 4.12467 27.3096C4.12467 27.3097 4.12467 27.3097 4.12467 27.3097C4.12467 27.3097 4.12467 27.3097 4.12467 27.3098C4.12467 27.3098 4.12467 27.3098 4.12467 27.3098C4.12467 27.3098 4.12467 27.3099 4.12467 27.3099C4.12467 27.3099 4.12467 27.3099 4.12467 27.3099C4.12467 27.31 4.12467 27.31 4.12467 27.31C4.12467 27.31 4.12467 27.31 4.12467 27.3101C4.12467 27.3101 4.12467 27.3101 4.12467 27.3101C4.12467 27.3101 4.12467 27.3102 4.12467 27.3102C4.12467 27.3102 4.12467 27.3102 4.12467 27.3102C4.12467 27.3102 4.12467 27.3103 4.12467 27.3103C4.12467 27.3103 4.12467 27.3103 4.12467 27.3103C4.12467 27.3104 4.12467 27.3104 4.12467 27.3104C4.12467 27.3104 4.12467 27.3104 4.12467 27.3105C4.12467 27.3105 4.12467 27.3105 4.12467 27.3105C4.12467 27.3105 4.12467 27.3106 4.12467 27.3106C4.12467 27.3106 4.12467 27.3106 4.12467 27.3106C4.12467 27.3107 4.12467 27.3107 4.12467 27.3107C4.12467 27.3107 4.12467 27.3107 4.12467 27.3108C4.12467 27.3108 4.12467 27.3108 4.12467 27.3108C4.12467 27.3108 4.12467 27.3109 4.12467 27.3109C4.12467 27.3109 4.12467 27.3109 4.12467 27.3109C4.12467 27.3109 4.12467 27.311 4.12467 27.311C4.12467 27.311 4.12467 27.311 4.12467 27.311C4.12467 27.3111 4.12467 27.3111 4.12467 27.3111C4.12467 27.3111 4.12467 27.3111 4.12467 27.3112C4.12467 27.3112 4.12467 27.3112 4.12467 27.3112C4.12467 27.3112 4.12467 27.3113 4.12467 27.3113C4.12467 27.3113 4.12467 27.3113 4.12467 27.3113C4.12467 27.3114 4.12467 27.3114 4.12467 27.3114C4.12467 27.3114 4.12467 27.3114 4.12467 27.3115C4.12467 27.3115 4.12467 27.3115 4.12467 27.3115C4.12467 27.3115 4.12467 27.3116 4.12467 27.3116C4.12467 27.3116 4.12467 27.3116 4.12467 27.3116C4.12467 27.3116 4.12467 27.3117 4.12467 27.3117C4.12467 27.3117 4.12467 27.3117 4.12467 27.3117C4.12467 27.3118 4.12467 27.3118 4.12467 27.3118C4.12467 27.3118 4.12467 27.3118 4.12467 27.3119C4.12467 27.3119 4.12467 27.3119 4.12467 27.3119C4.12467 27.3119 4.12467 27.312 4.12467 27.312C4.12467 27.312 4.12467 27.312 4.12467 27.312C4.12467 27.3121 4.12467 27.3121 4.12467 27.3121C4.12467 27.3121 4.12467 27.3121 4.12467 27.3122C4.12467 27.3122 4.12467 27.3122 4.12467 27.3122C4.12467 27.3122 4.12467 27.3122 4.12467 27.3123C4.12467 27.3123 4.12467 27.3123 4.12467 27.3123C4.12467 27.3123 4.12467 27.3124 4.12467 27.3124C4.12467 27.3124 4.12467 27.3124 4.12467 27.3124C4.12467 27.3125 4.12467 27.3125 4.12467 27.3125C4.12467 27.3125 4.12467 27.3125 4.12467 27.3126C4.12467 27.3126 4.12467 27.3126 4.12467 27.3126C4.12467 27.3126 4.12467 27.3127 4.12467 27.3127C4.12467 27.3127 4.12467 27.3127 4.12467 27.3127C4.12467 27.3128 4.12467 27.3128 4.12467 27.3128C4.12467 27.3128 4.12467 27.3128 4.12467 27.3129C4.12467 27.3129 4.12467 27.3129 4.12467 27.3129C4.12467 27.3129 4.12467 27.3129 4.12467 27.313C4.12467 27.313 4.12467 27.313 4.12467 27.313C4.12467 27.313 4.12467 27.3131 4.12467 27.3131C4.12467 27.3131 4.12467 27.3131 4.12467 27.3131C4.12467 27.3132 4.12467 27.3132 4.12467 27.3132C4.12467 27.3132 4.12467 27.3132 4.12467 27.3133C4.12467 27.3133 4.12467 27.3133 4.12467 27.3133C4.12467 27.3133 4.12467 27.3134 4.12467 27.3134C4.12467 27.3134 4.12467 27.3134 4.12467 27.3134C4.12467 27.3135 4.12467 27.3135 4.12467 27.3135C4.12467 27.3135 4.12467 27.3135 4.12467 27.3135C4.12467 27.3136 4.12467 27.3136 4.12467 27.3136C4.12467 27.3136 4.12467 27.3136 4.12467 27.3137C4.12467 27.3137 4.12467 27.3137 4.12467 27.3137C4.12467 27.3137 4.12467 27.3138 4.12467 27.3138C4.12467 27.3138 4.12467 27.3138 4.12467 27.3138C4.12467 27.3139 4.12467 27.3139 4.12467 27.3139C4.12467 27.3139 4.12467 27.3139 4.12467 27.314C4.12467 27.314 4.12467 27.314 4.12467 27.314C4.12467 27.314 4.12467 27.3141 4.12467 27.3141C4.12467 27.3141 4.12467 27.3141 4.12467 27.3141C4.12467 27.3142 4.12467 27.3142 4.12467 27.3142C4.12467 27.3142 4.12467 27.3142 4.12467 27.3142C4.12467 27.3143 4.12467 27.3143 4.12467 27.3143C4.12467 27.3143 4.12467 27.3143 4.12467 27.3144C4.12467 27.3144 4.12467 27.3144 4.12467 27.3144C4.12467 27.3144 4.12467 27.3145 4.12467 27.3145C4.12467 27.3145 4.12467 27.3145 4.12467 27.3145C4.12467 27.3146 4.12467 27.3146 4.12467 27.3146C4.12467 27.3146 4.12467 27.3146 4.12467 27.3147C4.12467 27.3147 4.12467 27.3147 4.12467 27.3147C4.12467 27.3147 4.12467 27.3148 4.12467 27.3148C4.12467 27.3148 4.12467 27.3148 4.12467 27.3148C4.12467 27.3148 4.12467 27.3149 4.12467 27.3149C4.12467 27.3149 4.12467 27.3149 4.12467 27.3149C4.12467 27.315 4.12467 27.315 4.12467 27.315C4.12467 27.315 4.12467 27.315 4.12467 27.3151C4.12467 27.3151 4.12467 27.3151 4.12467 27.3151C4.12467 27.3151 4.12467 27.3152 4.12467 27.3152C4.12467 27.3152 4.12467 27.3152 4.12467 27.3152C4.12467 27.3153 4.12467 27.3153 4.12467 27.3153C4.12467 27.3153 4.12467 27.3153 4.12467 27.3154C4.12467 27.3154 4.12467 27.3154 4.12467 27.3154C4.12467 27.3154 4.12467 27.3155 4.12467 27.3155C4.12467 27.3155 4.12467 27.3155 4.12467 27.3155C4.12467 27.3155 4.12467 27.3156 4.12467 27.3156C4.12467 27.3156 4.12467 27.3156 4.12467 27.3156C4.12467 27.3157 4.12467 27.3157 4.12467 27.3157C4.12467 27.3157 4.12467 27.3157 4.12467 27.3158C4.12467 27.3158 4.12467 27.3158 4.12467 27.3158C4.12467 27.3158 4.12467 27.3159 4.12467 27.3159C4.12467 27.3159 4.12467 27.3159 4.12467 27.3159C4.12467 27.316 4.12467 27.316 4.12467 27.316C4.12467 27.316 4.12467 27.316 4.12467 27.3161C4.12467 27.3161 4.12467 27.3161 4.12467 27.3161C4.12467 27.3161 4.12467 27.3162 4.12467 27.3162C4.12467 27.3162 4.12467 27.3162 4.12467 27.3162C4.12467 27.3162 4.12467 27.3163 4.12467 27.3163C4.12467 27.3163 4.12467 27.3163 4.12467 27.3163C4.12467 27.3164 4.12467 27.3164 4.12467 27.3164C4.12467 27.3164 4.12467 27.3164 4.12467 27.3165C4.12467 27.3165 4.12467 27.3165 4.12467 27.3165C4.12467 27.3165 4.12467 27.3166 4.12467 27.3166C4.12467 27.3166 4.12467 27.3166 4.12467 27.3166C4.12467 27.3167 4.12467 27.3167 4.12467 27.3167C4.12467 27.3167 4.12467 27.3167 4.12467 27.3168C4.12467 27.3168 4.12467 27.3168 4.12467 27.3168C4.12467 27.3168 4.12467 27.3168 4.12467 27.3169C4.12467 27.3169 4.12467 27.3169 4.12467 27.3169C4.12467 27.3169 4.12467 27.317 4.12467 27.317C4.12467 27.317 4.12467 27.317 4.12467 27.317C4.12467 27.3171 4.12467 27.3171 4.12467 27.3171C4.12467 27.3171 4.12467 27.3171 4.12467 27.3172C4.12467 27.3172 4.12467 27.3172 4.12467 27.3172C4.12467 27.3172 4.12467 27.3173 4.12467 27.3173C4.12467 27.3173 4.12467 27.3173 4.12467 27.3173C4.12467 27.3174 4.12467 27.3174 4.12467 27.3174C4.12467 27.3174 4.12467 27.3174 4.12467 27.3175C4.12467 27.3175 4.12467 27.3175 4.12467 27.3175C4.12467 27.3175 4.12467 27.3175 4.12467 27.3176C4.12467 27.3176 4.12467 27.3176 4.12467 27.3176C4.12467 27.3176 4.12467 27.3177 4.12467 27.3177C4.12467 27.3177 4.12467 27.3177 4.12467 27.3177C4.12467 27.3178 4.12467 27.3178 4.12467 27.3178C4.12467 27.3178 4.12467 27.3178 4.12467 27.3179C4.12467 27.3179 4.12467 27.3179 4.12467 27.3179C4.12467 27.3179 4.12467 27.318 4.12467 27.318C4.12467 27.318 4.12467 27.318 4.12467 27.318C4.12467 27.3181 4.12467 27.3181 4.12467 27.3181C4.12467 27.3181 4.12467 27.3181 4.12467 27.3181C4.12467 27.3182 4.12467 27.3182 4.12467 27.3182C4.12467 27.3182 4.12467 27.3182 4.12467 27.3183C4.12467 27.3183 4.12467 27.3183 4.12467 27.3183C4.12467 27.3183 4.12467 27.3184 4.12467 27.3184C4.12467 27.3184 4.12467 27.3184 4.12467 27.3184C4.12467 27.3185 4.12467 27.3185 4.12467 27.3185C4.12467 27.3185 4.12467 27.3185 4.12467 27.3186C4.12467 27.3186 4.12467 27.3186 4.12467 27.3186C4.12467 27.3186 4.12467 27.3187 4.12467 27.3187C4.12467 27.3187 4.12467 27.3187 4.12467 27.3187C4.12467 27.3188 4.12467 27.3188 4.12467 27.3188C4.12467 27.3188 4.12467 27.3188 4.12467 27.3188C4.12467 27.3189 4.12467 27.3189 4.12467 27.3189C4.12467 27.3189 4.12467 27.3189 4.12467 27.319C4.12467 27.319 4.12467 27.319 4.12467 27.319C4.12467 27.319 4.12467 27.3191 4.12467 27.3191C4.12467 27.3191 4.12467 27.3191 4.12467 27.3191C4.12467 27.3192 4.12467 27.3192 4.12467 27.3192C4.12467 27.3192 4.12467 27.3192 4.12467 27.3193C4.12467 27.3193 4.12467 27.3193 4.12467 27.3193C4.12467 27.3193 4.12467 27.3194 4.12467 27.3194C4.12467 27.3194 4.12467 27.3194 4.12467 27.3194C4.12467 27.3195 4.12467 27.3195 4.12467 27.3195C4.12467 27.3195 4.12467 27.3195 4.12467 27.3195C4.12467 27.3196 4.12467 27.3196 4.12467 27.3196C4.12467 27.3196 4.12467 27.3196 4.12467 27.3197C4.12467 27.3197 4.12467 27.3197 4.12467 27.3197C4.12467 27.3197 4.12467 27.3198 4.12467 27.3198C4.12467 27.3198 4.12467 27.3198 4.12467 27.3198C4.12467 27.3199 4.12467 27.3199 4.12467 27.3199C4.12467 27.3199 4.12467 27.3199 4.12467 27.32C4.12467 27.32 4.12467 27.32 4.12467 27.32C4.12467 27.32 4.12467 27.3201 4.12467 27.3201C4.12467 27.3201 4.12467 27.3201 4.12467 27.3201C4.12467 27.3201 4.12467 27.3202 4.12467 27.3202C4.12467 27.3202 4.12467 27.3202 4.12467 27.3202C4.12467 27.3203 4.12467 27.3203 4.12467 27.3203C4.12467 27.3203 4.12467 27.3203 4.12467 27.3204C4.12467 27.3204 4.12467 27.3204 4.12467 27.3204C4.12467 27.3204 4.12467 27.3205 4.12467 27.3205C4.12467 27.3205 4.12467 27.3205 4.12467 27.3205C4.12467 27.3206 4.12467 27.3206 4.12467 27.3206C4.12467 27.3206 4.12467 27.3206 4.12467 27.3207C4.12467 27.3207 4.12467 27.3207 4.12467 27.3207C4.12467 27.3207 4.12467 27.3208 4.12467 27.3208C4.12467 27.3208 4.12467 27.3208 4.12467 27.3208C4.12467 27.3208 4.12467 27.3209 4.12467 27.3209C4.12467 27.3209 4.12467 27.3209 4.12467 27.3209C4.12467 27.321 4.12467 27.321 4.12467 27.321C4.12467 27.321 4.12467 27.321 4.12467 27.3211C4.12467 27.3211 4.12467 27.3211 4.12467 27.3211C4.12467 27.3211 4.12467 27.3212 4.12467 27.3212H5.12467ZM5.12463 27.2976L5.12513 27.2586L4.1252 27.246L4.12471 27.2851L5.12463 27.2976ZM5.12501 27.2649C5.12557 27.2426 5.12684 27.2203 5.12882 27.1981L4.13276 27.1094C4.1289 27.1528 4.12642 27.1962 4.12532 27.2397L5.12501 27.2649ZM4.13128 27.1315L4.12517 27.2691L5.12418 27.3135L5.1303 27.1759L4.13128 27.1315ZM5.12467 27.2913C5.12467 27.2381 5.12863 27.1861 5.13618 27.1355L4.14715 26.9878C4.13232 27.0871 4.12467 27.1885 4.12467 27.2913H5.12467ZM5.13587 27.1376C5.13875 27.1188 5.14208 27.1 5.1458 27.0818L4.16596 26.882C4.15876 26.9173 4.15262 26.9522 4.14746 26.9858L5.13587 27.1376ZM5.14619 27.0799C5.15052 27.0582 5.15573 27.0363 5.16184 27.0141L4.19765 26.7489C4.1856 26.7927 4.17481 26.8377 4.16557 26.8839L5.14619 27.0799ZM5.16121 27.0164C5.16625 26.9984 5.1713 26.9817 5.17651 26.9658L4.2262 26.6545C4.21596 26.6857 4.20674 26.7164 4.19828 26.7466L5.16121 27.0164ZM5.1769 26.9646C5.18314 26.9454 5.19043 26.9253 5.19856 26.9049L4.27003 26.5337C4.25415 26.5734 4.23925 26.6143 4.22581 26.6557L5.1769 26.9646ZM5.19855 26.9049C5.20607 26.8861 5.21388 26.8681 5.22214 26.8504L4.31603 26.4274C4.29965 26.4624 4.28439 26.4977 4.27003 26.5336L5.19855 26.9049ZM5.2217 26.8513C5.23196 26.8295 5.24291 26.8081 5.25445 26.7872L4.37993 26.3023C4.3573 26.3431 4.33614 26.3845 4.31648 26.4264L5.2217 26.8513ZM5.25593 26.7845C5.26183 26.7738 5.2687 26.7619 5.27644 26.7492L4.42306 26.2279C4.40802 26.2526 4.39297 26.2784 4.37845 26.3049L5.25593 26.7845ZM5.27565 26.7505C5.29254 26.7231 5.31031 26.6968 5.32891 26.6717L4.52574 26.0759C4.48939 26.1249 4.45544 26.1753 4.42385 26.2267L5.27565 26.7505ZM5.33154 26.6681C5.3344 26.6642 5.33794 26.6595 5.34269 26.6534L4.55325 26.0395C4.54403 26.0514 4.53383 26.0648 4.52311 26.0795L5.33154 26.6681ZM5.34103 26.6555C5.3727 26.6152 5.40085 26.5837 5.42977 26.5548L4.72266 25.8477C4.66382 25.9065 4.60947 25.968 4.55491 26.0374L5.34103 26.6555ZM5.42977 26.5548L8.5131 23.4714L7.806 22.7643L4.72266 25.8477L5.42977 26.5548ZM8.5131 23.4714C8.9199 23.0646 9.57945 23.0646 9.98624 23.4714L10.6934 22.7643C9.89603 21.967 8.60332 21.967 7.806 22.7643L8.5131 23.4714ZM9.98624 23.4714C10.3615 23.8467 10.3907 24.4378 10.0733 24.846L10.8628 25.4598C11.4858 24.6585 11.4296 23.5006 10.6934 22.7643L9.98624 23.4714ZM10.0933 24.8219L9.96501 24.9672L10.7146 25.6291L10.8428 25.4838L10.0933 24.8219ZM9.98637 24.9444L9.5345 25.396L10.2413 26.1034L10.6932 25.6518L9.98637 24.9444ZM9.88792 26.2497H28.5205V25.2497H9.88792V26.2497ZM28.5205 26.2497C29.9827 26.2497 31.1838 25.1342 31.3202 23.7074L30.3247 23.6123C30.2369 24.5309 29.4624 25.2497 28.5205 25.2497V26.2497ZM31.3219 23.6836L31.3324 23.4609L30.3336 23.4134L30.323 23.6361L31.3219 23.6836ZM31.333 23.4372V10.333H30.333V23.4372H31.333ZM31.333 10.333C31.333 9.75771 31.7994 9.29134 32.3747 9.29134V8.29134C31.2471 8.29134 30.333 9.20543 30.333 10.333H31.333ZM28.3636 1.7811L28.5088 1.90934L29.1708 1.15976L29.0255 1.03151L28.3636 1.7811ZM28.4862 1.8881L31.5696 4.97144L32.2767 4.26433L29.1934 1.181L28.4862 1.8881ZM31.5696 4.97144C31.5993 5.00118 31.6273 5.0327 31.6532 5.06581L32.44 4.44856C32.3893 4.38388 32.3347 4.32236 32.2767 4.26433L31.5696 4.97144ZM32.4208 4.42549L32.2973 4.28619L31.549 4.94958L31.6725 5.08888L32.4208 4.42549ZM31.5696 4.97144C31.6021 5.00397 31.6319 5.03794 31.659 5.07307L32.4507 4.46216C32.3976 4.39328 32.3395 4.32717 32.2767 4.26433L31.5696 4.97144ZM31.6583 5.07218C31.6816 5.10252 31.7032 5.13384 31.7228 5.16602L32.5761 4.64462C32.5376 4.58153 32.4959 4.52097 32.4514 4.46306L31.6583 5.07218ZM31.7244 5.16857C31.7311 5.17935 31.7379 5.19107 31.745 5.20392L32.6199 4.71957C32.606 4.69439 32.5909 4.66845 32.5746 4.64207L31.7244 5.16857ZM31.7443 5.20266C31.7552 5.22247 31.7655 5.24251 31.775 5.26241L32.6785 4.83387C32.66 4.79491 32.6405 4.7571 32.6206 4.72083L31.7443 5.20266ZM31.7753 5.26304C31.7841 5.28152 31.7925 5.30094 31.8005 5.32093L32.7292 4.95013C32.7136 4.91099 32.6966 4.87186 32.6782 4.83324L31.7753 5.26304ZM31.8007 5.32137C31.8089 5.34195 31.8164 5.36241 31.8232 5.38315L32.7734 5.07167C32.7599 5.03056 32.7452 4.99003 32.729 4.94969L31.8007 5.32137ZM31.8226 5.38139C31.8279 5.39771 31.8328 5.41427 31.8373 5.43046L32.8015 5.16541C32.7929 5.1339 32.7836 5.10302 32.774 5.07344L31.8226 5.38139ZM31.8378 5.43225C31.8438 5.45362 31.849 5.47555 31.8537 5.49831L32.8335 5.29859C32.8244 5.25366 32.8136 5.20871 32.801 5.16362L31.8378 5.43225ZM31.8532 5.49595C31.8571 5.51573 31.8604 5.53468 31.8632 5.55296L32.8522 5.40528C32.8469 5.36966 32.8407 5.33488 32.834 5.30095L31.8532 5.49595ZM31.8634 5.55473C31.8664 5.57395 31.8689 5.59486 31.8708 5.61674L32.8671 5.53082C32.8634 5.48851 32.8584 5.44578 32.8519 5.40351L31.8634 5.55473ZM31.8707 5.61569C31.8724 5.63659 31.8735 5.65569 31.8741 5.67431L32.8736 5.64226C32.8724 5.60533 32.8703 5.56894 32.8672 5.53187L31.8707 5.61569ZM31.8745 5.68399C31.8745 5.68276 31.8746 5.68378 31.8746 5.68848C31.8747 5.69333 31.8747 5.69887 31.8747 5.70801H32.8747C32.8747 5.69395 32.8748 5.66334 32.8732 5.63257L31.8745 5.68399ZM31.8747 5.70172L31.8742 5.74073L32.8741 5.75332L32.8746 5.7143L31.8747 5.70172ZM31.8743 5.73445C31.8738 5.75534 31.8727 5.77621 31.8709 5.79704L32.8673 5.88175C32.8708 5.8411 32.873 5.80036 32.874 5.7596L31.8743 5.73445ZM32.8686 5.86059L32.8742 5.72921L31.8751 5.68681L31.8695 5.8182L32.8686 5.86059ZM31.8747 5.70801C31.8747 5.76125 31.8707 5.81325 31.8632 5.8638L32.8522 6.01151C32.867 5.91222 32.8747 5.81085 32.8747 5.70801H31.8747ZM31.8635 5.86176C31.8606 5.8805 31.8573 5.89934 31.8535 5.91756L32.8334 6.11736C32.8406 6.08209 32.8467 6.04719 32.8519 6.01355L31.8635 5.86176ZM31.8532 5.9195C31.8488 5.94117 31.8436 5.96304 31.8375 5.98523L32.8017 6.25045C32.8137 6.20665 32.8245 6.16165 32.8338 6.11542L31.8532 5.9195ZM31.8381 5.98297C31.8331 6.00095 31.828 6.01768 31.8228 6.03357L32.7731 6.34489C32.7834 6.31363 32.7926 6.28291 32.8011 6.25272L31.8381 5.98297ZM31.8225 6.03476C31.8162 6.05399 31.8089 6.07409 31.8008 6.09443L32.7293 6.46568C32.7452 6.42596 32.7601 6.38507 32.7735 6.34369L31.8225 6.03476ZM31.8008 6.09442C31.7933 6.11321 31.7855 6.13125 31.7772 6.14895L32.6833 6.572C32.6997 6.53691 32.715 6.50159 32.7293 6.4657L31.8008 6.09442ZM31.7777 6.148C31.7674 6.16985 31.7564 6.19129 31.7449 6.21211L32.6194 6.69709C32.642 6.6563 32.6632 6.61483 32.6829 6.57295L31.7777 6.148ZM31.7434 6.2148C31.7375 6.2256 31.7306 6.23746 31.7229 6.25012L32.5763 6.77141C32.5913 6.74678 32.6064 6.72096 32.6209 6.6944L31.7434 6.2148ZM31.7239 6.24854C31.71 6.27107 31.6957 6.29259 31.6811 6.31309L32.4944 6.89491C32.5231 6.8548 32.55 6.81408 32.5753 6.77299L31.7239 6.24854ZM31.6796 6.3152C31.6725 6.32511 31.665 6.3352 31.6567 6.34598L32.4461 6.95981C32.4626 6.93865 32.4792 6.91643 32.4959 6.89279L31.6796 6.3152ZM31.6597 6.34211C31.651 6.35308 31.6485 6.35619 31.646 6.35928L32.4259 6.9852C32.4306 6.97939 32.4352 6.97356 32.4431 6.96368L31.6597 6.34211ZM31.6637 6.33848L31.5508 6.46437L32.2954 7.13189L32.4083 7.006L31.6637 6.33848ZM31.5696 6.44458L28.4862 9.52791L29.1934 10.235L32.2767 7.15168L31.5696 6.44458ZM28.4862 9.52791C28.0794 9.93471 27.4199 9.93471 27.0131 9.52791L26.306 10.235C27.1033 11.0323 28.396 11.0323 29.1934 10.235L28.4862 9.52791ZM27.0131 9.52791C26.6379 9.15267 26.6086 8.5616 26.926 8.15337L26.1366 7.53954C25.5135 8.34087 25.5697 9.49876 26.306 10.235L27.0131 9.52791ZM26.9061 8.17741L27.0343 8.03217L26.2848 7.37027L26.1565 7.5155L26.9061 8.17741ZM27.0142 8.05369L27.463 7.60214L26.7537 6.8972L26.3049 7.34875L27.0142 8.05369ZM27.1083 6.74967H8.47884V7.74967H27.1083V6.74967ZM8.47884 6.74967C7.01662 6.74967 5.81553 7.86515 5.67919 9.2919L6.67466 9.38703C6.76244 8.46844 7.537 7.74967 8.47884 7.74967V6.74967ZM5.67749 9.31573L5.6669 9.53843L6.66578 9.58591L6.67636 9.3632L5.67749 9.31573ZM5.66634 9.56217V22.6663H6.66634V9.56217H5.66634ZM5.66634 22.6663C5.66634 23.2416 5.19997 23.708 4.62467 23.708V24.708C5.75226 24.708 6.66634 23.7939 6.66634 22.6663H5.66634ZM4.62467 23.708C4.09082 23.708 3.65015 23.306 3.59004 22.7884L2.59672 22.9038C2.71472 23.9197 3.57728 24.708 4.62467 24.708V23.708ZM3.59255 22.8173L3.58218 22.6375L2.58384 22.6951L2.59421 22.8749L3.59255 22.8173ZM3.58301 22.6663V9.56217H2.58301V22.6663H3.58301ZM3.58301 9.56217C3.58301 6.94857 5.63125 4.81303 8.20978 4.6736L8.15579 3.67505C5.04962 3.84302 2.58301 6.41437 2.58301 9.56217H3.58301ZM8.19627 4.67414L8.49232 4.66616L8.46536 3.66652L8.16931 3.67451L8.19627 4.67414ZM8.47884 4.66634H27.1099V3.66634H8.47884V4.66634ZM27.4639 3.81326L27.0136 3.36172L26.3055 4.06788L26.7559 4.51942L27.4639 3.81326ZM27.0131 3.36124C26.6379 2.98601 26.6086 2.39493 26.926 1.9867L26.1366 1.37287C25.5135 2.17421 25.5697 3.33209 26.306 4.06835L27.0131 3.36124ZM26.9061 2.01074L27.0343 1.8655L26.2848 1.2036L26.1565 1.34884L26.9061 2.01074ZM27.0131 1.8881C27.3883 1.51287 27.9794 1.4836 28.3876 1.80102L29.0015 1.01158C28.2001 0.388507 27.0423 0.444742 26.306 1.181L27.0131 1.8881ZM18.4997 10.833C21.6293 10.833 24.1663 13.3701 24.1663 16.4997H25.1663C25.1663 12.8178 22.1816 9.83301 18.4997 9.83301V10.833ZM24.1663 16.4997C24.1663 19.6293 21.6293 22.1663 18.4997 22.1663V23.1663C22.1816 23.1663 25.1663 20.1816 25.1663 16.4997H24.1663ZM18.4997 22.1663C15.3701 22.1663 12.833 19.6293 12.833 16.4997H11.833C11.833 20.1816 14.8178 23.1663 18.4997 23.1663V22.1663ZM12.833 16.4997C12.833 13.3701 15.3701 10.833 18.4997 10.833V9.83301C14.8178 9.83301 11.833 12.8178 11.833 16.4997H12.833Z" fill="white" mask="url(#path-1-inside-1_1628_2532)"/>
</svg>
