<svg width="20" height="20" viewBox="0 0 20 20" fill="none" xmlns="http://www.w3.org/2000/svg">
<path d="M19.0002 4.82507V9.41516C19.0002 10.5582 18.6222 11.5212 17.9472 12.1872C17.2812 12.8622 16.3182 13.2402 15.1752 13.2402V14.8693C15.1752 15.4813 14.4912 15.8503 13.9872 15.5083L13.1142 14.9323C13.1952 14.6533 13.2312 14.3473 13.2312 14.0232V10.3602C13.2312 8.52414 12.0072 7.30012 10.1712 7.30012H4.06019C3.93419 7.30012 3.8172 7.30914 3.7002 7.31814V4.82507C3.7002 2.53003 5.2302 1 7.5252 1H15.1752C17.4702 1 19.0002 2.53003 19.0002 4.82507Z" stroke="white" stroke-width="1.5" stroke-miterlimit="10" stroke-linecap="round" stroke-linejoin="round"/>
<path d="M13.231 10.3602V14.0232C13.231 14.3472 13.195 14.6532 13.114 14.9323C12.781 16.2553 11.683 17.0833 10.171 17.0833H7.723L5.005 18.8923C4.6 19.1713 4.05999 18.8743 4.05999 18.3883V17.0833C3.14199 17.0833 2.377 16.7773 1.846 16.2463C1.306 15.7063 1 14.9413 1 14.0232V10.3602C1 8.65014 2.062 7.47113 3.7 7.31813C3.817 7.30913 3.93399 7.30011 4.05999 7.30011H10.171C12.007 7.30011 13.231 8.52413 13.231 10.3602Z" stroke="white" stroke-width="1.5" stroke-miterlimit="10" stroke-linecap="round" stroke-linejoin="round"/>
</svg>
