<svg width="52" height="44" viewBox="0 0 52 44" fill="none" xmlns="http://www.w3.org/2000/svg">
<path d="M1 11.1912C1 16.8196 5.56276 21.3824 11.1912 21.3824C11.9469 21.3824 12.3248 21.3824 12.5205 21.4498C12.9302 21.5911 13.1441 21.8051 13.2854 22.2147C13.3529 22.4106 13.3529 22.7172 13.3529 23.3307V38.9853C13.3529 41.2026 15.1504 43 17.3676 43C19.5849 43 21.3824 41.2026 21.3824 38.9853V11.1912C21.3824 5.56276 16.8196 1 11.1912 1C5.56276 1 1 5.56276 1 11.1912Z" stroke="#E6E6E6" stroke-width="2" stroke-linecap="round" stroke-linejoin="round"/>
<path d="M50.4112 11.1912C50.4112 16.8196 45.8485 21.3824 40.22 21.3824C39.4642 21.3824 39.0865 21.3824 38.8906 21.4498C38.4809 21.5911 38.267 21.8051 38.1257 22.2147C38.0582 22.4106 38.0582 22.7172 38.0582 23.3307V38.9853C38.0582 41.2026 36.2609 43 34.0435 43C31.8262 43 30.0288 41.2026 30.0288 38.9853V11.1912C30.0288 5.56276 34.5915 1 40.22 1C45.8485 1 50.4112 5.56276 50.4112 11.1912Z" stroke="#E6E6E6" stroke-width="2" stroke-linecap="round" stroke-linejoin="round"/>
</svg>
