<svg width="16" height="16" viewBox="0 0 16 16" fill="none" xmlns="http://www.w3.org/2000/svg">
<path d="M7.22188 1.17371H5.83924C2.38264 1.17371 1 2.55635 1 6.01295V10.1609C1 13.6175 2.38264 15.0001 5.83924 15.0001H9.98716C13.4438 15.0001 14.8264 13.6175 14.8264 10.1609V8.77823" stroke="#292D32" stroke-linecap="round" stroke-linejoin="round"/>
<path d="M10.7059 1.87883L5.25833 7.32642C5.05093 7.53382 4.84353 7.9417 4.80205 8.23897L4.50479 10.3198C4.39418 11.0734 4.92649 11.5988 5.68003 11.4951L7.76091 11.1978C8.05126 11.1563 8.45914 10.9489 8.67345 10.7415L14.1211 5.29395C15.0612 4.35375 15.5037 3.26147 14.1211 1.87883C12.7384 0.496186 11.6461 0.938631 10.7059 1.87883Z" stroke="#292D32" stroke-miterlimit="10" stroke-linecap="round" stroke-linejoin="round"/>
<path d="M9.9248 2.65991C10.388 4.31217 11.6808 5.60494 13.3399 6.07503" stroke="#292D32" stroke-miterlimit="10" stroke-linecap="round" stroke-linejoin="round"/>
</svg>
