<svg width="21" height="22" viewBox="0 0 21 22" fill="none" xmlns="http://www.w3.org/2000/svg">
<path d="M6.5975 11.6459C6.5975 12.5776 5.30753 13.0444 4.55363 12.3854L3.85056 11.6532C3.19831 11.0834 2.14118 11.0834 1.48893 11.6532C0.889167 12.1771 0.834435 13.0112 1.36216 13.5917L5.70009 18.8571C7.21569 20.181 9.30983 21 11.6234 21C16.2495 21 20 17.7239 20 13.6829V7.34146C20 6.53317 19.25 5.87805 18.3247 5.87805C17.3994 5.87805 16.6494 6.53317 16.6494 7.34146V10.7561V4.41463C16.6494 3.60634 15.8994 2.95122 14.9741 2.95122C14.0487 2.95122 13.2988 3.60634 13.2988 4.41463V9.78049V8.31707V2.46341C13.2988 1.65512 12.5488 1 11.6234 1C10.6981 1 9.94812 1.65512 9.94812 2.46341V8.31707V9.78049V3.43902C9.94812 2.63073 9.19814 1.97561 8.27281 1.97561C7.34748 1.97561 6.5975 2.63073 6.5975 3.43902V9.29268V11.6459Z" stroke="#A18BC2" stroke-width="0.7" stroke-miterlimit="10" stroke-linecap="round" stroke-linejoin="round"/>
</svg>
