<svg width="22" height="26" viewBox="0 0 22 26" fill="none" xmlns="http://www.w3.org/2000/svg">
<path d="M6.89211 13.775C6.89211 14.8931 5.53424 15.4533 4.74067 14.6624L4.00059 13.7838C3.31401 13.1001 2.20125 13.1001 1.51466 13.7838C0.883334 14.4125 0.825721 15.4135 1.38122 16.11L5.94746 22.4285C7.54283 24.0172 9.74719 25 12.1826 25C17.0521 25 21 21.0687 21 16.2195V8.60976C21 7.6398 20.2105 6.85366 19.2365 6.85366C18.2625 6.85366 17.473 7.6398 17.473 8.60976V12.7073V5.09756C17.473 4.12761 16.6836 3.34146 15.7095 3.34146C14.7355 3.34146 13.9461 4.12761 13.9461 5.09756V11.5366V9.78049V2.7561C13.9461 1.78615 13.1566 1 12.1826 1C11.2085 1 10.4191 1.78615 10.4191 2.7561V9.78049V11.5366V3.92683C10.4191 2.95688 9.62963 2.17073 8.65559 2.17073C7.68156 2.17073 6.89211 2.95688 6.89211 3.92683V10.9512V13.775Z" fill="#E99922" stroke="black" stroke-miterlimit="10" stroke-linecap="round" stroke-linejoin="round"/>
</svg>
