<svg width="22" height="22" viewBox="0 0 22 22" fill="none" xmlns="http://www.w3.org/2000/svg">
<path d="M8 9C9.1046 9 10 8.10457 10 7C10 5.89543 9.1046 5 8 5C6.89543 5 6 5.89543 6 7C6 8.10457 6.89543 9 8 9Z" stroke="white" stroke-width="1.5" stroke-linecap="round" stroke-linejoin="round"/>
<path d="M12 1H8C3 1 1 3 1 8V14C1 19 3 21 8 21H14C19 21 21 19 21 14V9" stroke="white" stroke-width="1.5" stroke-linecap="round" stroke-linejoin="round"/>
<path d="M14.75 4H20.25" stroke="white" stroke-width="1.5" stroke-linecap="round"/>
<path d="M17.5 6.75V1.25" stroke="white" stroke-width="1.5" stroke-linecap="round"/>
<path d="M1.66992 17.9501L6.59992 14.6401C7.38992 14.1101 8.52992 14.1701 9.23988 14.7801L9.56988 15.0701C10.3499 15.7401 11.6099 15.7401 12.3899 15.0701L16.5499 11.5001C17.3299 10.8301 18.5899 10.8301 19.3699 11.5001L20.9999 12.9001" stroke="white" stroke-width="1.5" stroke-linecap="round" stroke-linejoin="round"/>
</svg>
