<svg width="10" height="11" viewBox="0 0 10 11" fill="none" xmlns="http://www.w3.org/2000/svg">
<path d="M3.66536 5.02624C3.65082 5.02624 3.64112 5.02624 3.62658 5.02624C3.60235 5.02139 3.56842 5.02139 3.53934 5.02624C2.13374 4.98261 1.07227 3.87752 1.07227 2.51554C1.07227 1.12933 2.20159 0 3.58781 0C4.974 0 6.10332 1.12933 6.10332 2.51554C6.09848 3.87752 5.03216 4.98261 3.6799 5.02624C3.67505 5.02624 3.6702 5.02624 3.66536 5.02624ZM3.58781 0.727035C2.60389 0.727035 1.7993 1.53162 1.7993 2.51554C1.7993 3.48492 2.55542 4.26527 3.51995 4.2992C3.54903 4.29435 3.61204 4.29435 3.67505 4.2992C4.62502 4.25558 5.37144 3.47523 5.37629 2.51554C5.37629 1.53162 4.5717 0.727035 3.58781 0.727035Z" fill="white"/>
<path d="M7.24077 5.08861C7.22623 5.08861 7.21168 5.08861 7.19714 5.08377C6.99842 5.10316 6.79485 4.9626 6.77546 4.76387C6.75608 4.56515 6.87725 4.38581 7.07597 4.36158C7.13413 4.35673 7.19714 4.35673 7.25046 4.35673C7.95811 4.31796 8.51065 3.73633 8.51065 3.02384C8.51065 2.28711 7.91449 1.69094 7.17776 1.69094C6.97903 1.69578 6.81424 1.53099 6.81424 1.33227C6.81424 1.13354 6.97903 0.96875 7.17776 0.96875C8.31193 0.96875 9.23769 1.89451 9.23769 3.02868C9.23769 4.14347 8.36525 5.04499 7.25531 5.08861C7.25046 5.08861 7.24561 5.08861 7.24077 5.08861Z" fill="white"/>
<path d="M3.6691 10.3233C2.71911 10.3233 1.76427 10.081 1.04208 9.59627C0.368364 9.15035 0 8.53964 0 7.87562C0 7.21159 0.368364 6.59604 1.04208 6.14527C2.49615 5.18074 4.85174 5.18074 6.29612 6.14527C6.96499 6.59119 7.3382 7.2019 7.3382 7.86592C7.3382 8.52995 6.96984 9.14551 6.29612 9.59627C5.56908 10.081 4.61909 10.3233 3.6691 10.3233ZM1.44438 6.75598C0.979074 7.06619 0.727035 7.46363 0.727035 7.88046C0.727035 8.29245 0.983921 8.6899 1.44438 8.99525C2.65125 9.80468 4.68695 9.80468 5.89382 8.99525C6.35913 8.68505 6.61117 8.2876 6.61117 7.87077C6.61117 7.45878 6.35428 7.06134 5.89382 6.75598C4.68695 5.9514 2.65125 5.9514 1.44438 6.75598Z" fill="white"/>
<path d="M8.11474 9.45147C7.9451 9.45147 7.79484 9.33514 7.76092 9.16066C7.72214 8.96193 7.84816 8.7729 8.04204 8.72928C8.34739 8.66627 8.62851 8.5451 8.84662 8.37546C9.12289 8.16704 9.27315 7.90531 9.27315 7.62904C9.27315 7.35276 9.12289 7.09103 8.85147 6.88746C8.6382 6.72267 8.37162 6.60634 8.05658 6.53364C7.8627 6.49001 7.73668 6.29614 7.7803 6.09742C7.82392 5.90354 8.0178 5.77752 8.21652 5.82114C8.63336 5.91323 8.99687 6.07803 9.29254 6.30583C9.7433 6.64512 10.0002 7.12496 10.0002 7.62904C10.0002 8.13311 9.73845 8.61296 9.28769 8.95709C8.98718 9.18974 8.60912 9.35938 8.19229 9.44178C8.16321 9.45147 8.13897 9.45147 8.11474 9.45147Z" fill="white"/>
</svg>
