<svg width="393" height="261" viewBox="0 0 393 261" fill="none" xmlns="http://www.w3.org/2000/svg">
<path d="M455.13 1.17686C455.131 7.57548 453.445 13.8614 450.242 19.4006C447.039 24.9398 442.432 29.5366 436.886 32.7274C431.34 35.9181 425.05 37.5901 418.652 37.5746C412.253 37.5591 405.972 35.8568 400.441 32.6392C394.91 29.4216 390.325 24.8026 387.149 19.248C383.973 13.6933 382.318 7.39934 382.35 1.00081C382.382 -5.39772 384.101 -11.6746 387.333 -17.1969C390.566 -22.7192 395.197 -27.2916 400.76 -30.4531L412.25 -9.00313L412.09 -8.95314C409.039 -8.10361 406.286 -6.41868 404.141 -4.0883C401.996 -1.75793 400.545 1.12523 399.951 4.23613C399.357 7.34703 399.644 10.562 400.78 13.5185C401.915 16.4751 403.854 19.0557 406.377 20.9694C408.901 22.8831 411.909 24.0538 415.062 24.3496C418.215 24.6454 421.388 24.0544 424.224 22.6433C427.059 21.2322 429.444 19.0572 431.109 16.3633C432.775 13.6695 433.655 10.5639 433.65 7.39687C433.646 5.68459 433.386 3.9825 432.88 2.34688C432.88 2.34688 432.88 2.34686 432.88 2.29686L432.73 1.90688C432.65 1.66687 432.57 1.42688 432.47 1.19688L430.68 -2.18312L430.5 -2.43312L413.2 -34.7731L405.11 -49.8831C407.803 -50.6269 410.552 -51.1519 413.33 -51.4531L413.64 -50.8531V-50.7731V-50.7231C416.4 -45.4331 419.44 -40.2631 422.3 -35.0131C431.287 -34.1297 439.625 -29.9362 445.692 -23.2477C451.759 -16.5592 455.123 -7.85365 455.13 1.17686Z" fill="#7C1AFB"/>
<path d="M382.36 1.17686C382.361 7.57445 380.675 13.8593 377.472 19.3974C374.27 24.9356 369.663 29.5312 364.117 32.7207C358.571 35.9103 352.283 37.5811 345.885 37.5644C339.487 37.5478 333.207 35.8444 327.678 32.626C322.149 29.4077 317.567 24.7881 314.393 19.2334C311.219 13.6787 309.566 7.38521 309.6 0.987717C309.635 -5.40977 311.356 -11.685 314.59 -17.2051C317.824 -22.7251 322.456 -27.2948 328.02 -30.4531L339.48 -9.00313L339.32 -8.95314C336.269 -8.10361 333.516 -6.41868 331.371 -4.0883C329.226 -1.75793 327.775 1.12523 327.181 4.23613C326.587 7.34703 326.874 10.562 328.01 13.5185C329.145 16.4751 331.084 19.0557 333.607 20.9694C336.131 22.8831 339.139 24.0538 342.292 24.3496C345.445 24.6454 348.619 24.0544 351.454 22.6433C354.289 21.2322 356.674 19.0572 358.339 16.3633C360.005 13.6695 360.885 10.5639 360.88 7.39687C360.879 5.68508 360.623 3.98298 360.12 2.34688C360.12 2.34688 360.12 2.34686 360.12 2.29686C360.12 2.24686 360.03 2.04688 359.97 1.90688C359.9 1.66687 359.81 1.42688 359.72 1.19688L357.93 -2.18312L357.75 -2.43312L340.45 -34.7731L332.36 -49.8831C335.056 -50.6278 337.808 -51.1528 340.59 -51.4531L340.89 -50.8531V-50.7731V-50.7231C343.65 -45.4331 346.7 -40.2631 349.55 -35.0131C358.533 -34.125 366.866 -29.9295 372.929 -23.2415C378.993 -16.5535 382.354 -7.85052 382.36 1.17686Z" fill="#7C1AFB"/>
<path d="M455.13 134.712C455.131 141.11 453.445 147.396 450.242 152.936C447.039 158.475 442.432 163.072 436.886 166.262C431.34 169.453 425.05 171.125 418.652 171.11C412.253 171.094 405.972 169.392 400.441 166.174C394.91 162.957 390.325 158.338 387.149 152.783C383.973 147.228 382.318 140.934 382.35 134.536C382.382 128.137 384.101 121.86 387.333 116.338C390.566 110.816 395.197 106.243 400.76 103.082L412.25 124.552C412.193 124.556 412.139 124.573 412.09 124.602C408.829 125.511 405.914 127.373 403.718 129.949C401.522 132.524 400.145 135.697 399.763 139.061C399.382 142.424 400.013 145.825 401.576 148.827C403.139 151.83 405.563 154.297 408.537 155.914C411.511 157.53 414.9 158.222 418.269 157.901C421.639 157.579 424.836 156.259 427.451 154.11C430.065 151.96 431.979 149.079 432.946 145.835C433.913 142.591 433.89 139.132 432.88 135.902L432.73 135.512C432.65 135.272 432.57 135.042 432.47 134.812L430.68 131.432L430.5 131.182L413.2 98.8519L405.11 83.7319C407.803 82.9915 410.552 82.4698 413.33 82.1719L413.64 82.7719V82.8419V82.9019C416.4 88.1919 419.44 93.3619 422.3 98.6019C431.272 99.4861 439.597 103.669 445.663 110.34C451.728 117.011 455.101 125.696 455.13 134.712Z" fill="#7C1AFB"/>
<path d="M382.36 134.712C382.361 141.109 380.675 147.394 377.472 152.932C374.27 158.471 369.663 163.066 364.117 166.256C358.571 169.445 352.283 171.116 345.885 171.099C339.487 171.083 333.207 169.379 327.678 166.161C322.149 162.943 317.567 158.323 314.393 152.768C311.219 147.214 309.566 140.92 309.6 134.523C309.635 128.125 311.356 121.85 314.59 116.33C317.824 110.81 322.456 106.24 328.02 103.082L339.51 124.552C339.454 124.558 339.399 124.575 339.35 124.602C336.09 125.513 333.176 127.375 330.982 129.952C328.788 132.529 327.412 135.702 327.032 139.065C326.652 142.428 327.284 145.827 328.847 148.829C330.411 151.831 332.835 154.297 335.809 155.913C338.783 157.528 342.171 158.22 345.54 157.898C348.909 157.576 352.106 156.256 354.72 154.107C357.334 151.957 359.248 149.077 360.215 145.833C361.182 142.59 361.16 139.132 360.15 135.902C360.1 135.772 360.06 135.642 360 135.512C359.93 135.272 359.84 135.042 359.75 134.812L357.96 131.432C357.905 131.345 357.845 131.261 357.78 131.182L340.48 98.8519L332.39 83.7319C335.086 82.9906 337.839 82.4688 340.62 82.1719L340.92 82.7719V82.8419V82.9019C343.68 88.1919 346.73 93.3619 349.58 98.6019C358.543 99.4977 366.856 103.686 372.911 110.355C378.966 117.025 382.333 125.704 382.36 134.712Z" fill="#7C1AFB"/>
<path d="M418.75 67.9381C418.75 74.336 417.064 80.6209 413.861 86.1592C410.657 91.6975 406.051 96.2935 400.505 99.4836C394.959 102.674 388.67 104.346 382.272 104.33C375.875 104.315 369.594 102.613 364.063 99.3962C358.533 96.1795 353.948 91.5615 350.772 86.0079C347.595 80.4543 345.939 74.1614 345.97 67.7636C346.001 61.3658 347.718 55.0893 350.949 49.5668C354.179 44.0443 358.808 39.471 364.37 36.3081L375.86 57.7781L375.7 57.8281C372.649 58.6777 369.896 60.3626 367.751 62.693C365.606 65.0233 364.155 67.9065 363.561 71.0174C362.967 74.1283 363.254 77.3433 364.39 80.2998C365.525 83.2564 367.464 85.837 369.987 87.7507C372.511 89.6644 375.519 90.8351 378.672 91.1309C381.825 91.4266 384.999 90.8356 387.834 89.4246C390.669 88.0135 393.054 85.8384 394.72 83.1446C396.385 80.4507 397.265 77.3452 397.26 74.1781C397.259 72.4663 397.003 70.7642 396.5 69.1281C396.45 68.9881 396.4 68.8681 396.34 68.7381C396.26 68.4981 396.18 68.2581 396.08 68.0281L394.3 64.6481C394.246 64.5635 394.186 64.4832 394.12 64.4081L376.8 31.9981L368.71 16.8882C371.407 16.1487 374.159 15.6269 376.94 15.3281L377.25 15.9281V15.9981C380.02 21.2981 383.06 26.4581 385.91 31.7081C394.905 32.5921 403.249 36.791 409.319 43.4876C415.389 50.1843 418.751 58.8998 418.75 67.9381Z" fill="#7C1AFB"/>
<path d="M346.019 67.9381C346.021 74.3368 344.335 80.6226 341.132 86.1619C337.929 91.7011 333.322 96.2979 327.776 99.4886C322.229 102.679 315.94 104.351 309.541 104.336C303.143 104.32 296.861 102.618 291.33 99.4005C285.8 96.1829 281.215 91.5639 278.039 86.0092C274.863 80.4545 273.207 74.1606 273.24 67.7621C273.272 61.3636 274.991 55.0867 278.223 49.5644C281.455 44.0421 286.086 39.4696 291.649 36.3081L303.139 57.7781L302.979 57.8281C299.719 58.7372 296.804 60.5989 294.608 63.1748C292.412 65.7507 291.035 68.9236 290.653 72.287C290.271 75.6503 290.902 79.051 292.465 82.0535C294.029 85.056 296.452 87.5235 299.426 89.14C302.4 90.7564 305.789 91.4482 309.159 91.1268C312.528 90.8054 315.725 89.4854 318.34 87.3358C320.955 85.1862 322.869 82.305 323.836 79.0612C324.803 75.8174 324.78 72.3587 323.769 69.1281L323.619 68.7381C323.539 68.4981 323.459 68.2581 323.359 68.0281L321.569 64.6481C321.569 64.6481 321.459 64.4881 321.389 64.4081L304.019 31.9981L295.929 16.8882C298.626 16.1468 301.378 15.6251 304.159 15.3281L304.459 15.9281V15.9981C307.219 21.2981 310.259 26.4581 313.119 31.7081C322.126 32.5759 330.486 36.7681 336.569 43.4666C342.652 50.1652 346.021 58.8898 346.019 67.9381Z" fill="#7C1AFB"/>
<path d="M455.13 1.17686C455.131 7.57548 453.445 13.8614 450.242 19.4006C447.039 24.9398 442.432 29.5366 436.886 32.7274C431.34 35.9181 425.05 37.5901 418.652 37.5746C412.253 37.5591 405.972 35.8568 400.441 32.6392C394.91 29.4216 390.325 24.8026 387.149 19.248C383.973 13.6933 382.318 7.39934 382.35 1.00081C382.382 -5.39772 384.101 -11.6746 387.333 -17.1969C390.566 -22.7192 395.197 -27.2916 400.76 -30.4531L412.25 -9.00313L412.09 -8.95314C409.039 -8.10361 406.286 -6.41868 404.141 -4.0883C401.996 -1.75793 400.545 1.12523 399.951 4.23613C399.357 7.34703 399.644 10.562 400.78 13.5185C401.915 16.4751 403.854 19.0557 406.377 20.9694C408.901 22.8831 411.909 24.0538 415.062 24.3496C418.215 24.6454 421.388 24.0544 424.224 22.6433C427.059 21.2322 429.444 19.0572 431.109 16.3633C432.775 13.6695 433.655 10.5639 433.65 7.39687C433.646 5.68459 433.386 3.9825 432.88 2.34688C432.88 2.34688 432.88 2.34686 432.88 2.29686L432.73 1.90688C432.65 1.66687 432.57 1.42688 432.47 1.19688L430.68 -2.18312L430.5 -2.43312L413.2 -34.7731L405.11 -49.8831C407.803 -50.6269 410.552 -51.1519 413.33 -51.4531L413.64 -50.8531V-50.7731V-50.7231C416.4 -45.4331 419.44 -40.2631 422.3 -35.0131C431.287 -34.1297 439.625 -29.9362 445.692 -23.2477C451.759 -16.5592 455.123 -7.85365 455.13 1.17686Z" fill="#7C1AFB"/>
<path d="M382.36 1.17686C382.361 7.57445 380.675 13.8593 377.472 19.3974C374.27 24.9356 369.663 29.5312 364.117 32.7207C358.571 35.9103 352.283 37.5811 345.885 37.5644C339.487 37.5478 333.207 35.8444 327.678 32.626C322.149 29.4077 317.567 24.7881 314.393 19.2334C311.219 13.6787 309.566 7.38521 309.6 0.987717C309.635 -5.40977 311.356 -11.685 314.59 -17.2051C317.824 -22.7251 322.456 -27.2948 328.02 -30.4531L339.48 -9.00313L339.32 -8.95314C336.269 -8.10361 333.516 -6.41868 331.371 -4.0883C329.226 -1.75793 327.775 1.12523 327.181 4.23613C326.587 7.34703 326.874 10.562 328.01 13.5185C329.145 16.4751 331.084 19.0557 333.607 20.9694C336.131 22.8831 339.139 24.0538 342.292 24.3496C345.445 24.6454 348.619 24.0544 351.454 22.6433C354.289 21.2322 356.674 19.0572 358.339 16.3633C360.005 13.6695 360.885 10.5639 360.88 7.39687C360.879 5.68508 360.623 3.98298 360.12 2.34688C360.12 2.34688 360.12 2.34686 360.12 2.29686C360.12 2.24686 360.03 2.04688 359.97 1.90688C359.9 1.66687 359.81 1.42688 359.72 1.19688L357.93 -2.18312L357.75 -2.43312L340.45 -34.7731L332.36 -49.8831C335.056 -50.6278 337.808 -51.1528 340.59 -51.4531L340.89 -50.8531V-50.7731V-50.7231C343.65 -45.4331 346.7 -40.2631 349.55 -35.0131C358.533 -34.125 366.866 -29.9295 372.929 -23.2415C378.993 -16.5535 382.354 -7.85052 382.36 1.17686Z" fill="#7C1AFB"/>
<path d="M455.13 134.712C455.131 141.11 453.445 147.396 450.242 152.936C447.039 158.475 442.432 163.072 436.886 166.262C431.34 169.453 425.05 171.125 418.652 171.11C412.253 171.094 405.972 169.392 400.441 166.174C394.91 162.957 390.325 158.338 387.149 152.783C383.973 147.228 382.318 140.934 382.35 134.536C382.382 128.137 384.101 121.86 387.333 116.338C390.566 110.816 395.197 106.243 400.76 103.082L412.25 124.552C412.193 124.556 412.139 124.573 412.09 124.602C408.829 125.511 405.914 127.373 403.718 129.949C401.522 132.524 400.145 135.697 399.763 139.061C399.382 142.424 400.013 145.825 401.576 148.827C403.139 151.83 405.563 154.297 408.537 155.914C411.511 157.53 414.9 158.222 418.269 157.901C421.639 157.579 424.836 156.259 427.451 154.11C430.065 151.96 431.979 149.079 432.946 145.835C433.913 142.591 433.89 139.132 432.88 135.902L432.73 135.512C432.65 135.272 432.57 135.042 432.47 134.812L430.68 131.432L430.5 131.182L413.2 98.8519L405.11 83.7319C407.803 82.9915 410.552 82.4698 413.33 82.1719L413.64 82.7719V82.8419V82.9019C416.4 88.1919 419.44 93.3619 422.3 98.6019C431.272 99.4861 439.597 103.669 445.663 110.34C451.728 117.011 455.101 125.696 455.13 134.712Z" fill="#7C1AFB"/>
<path d="M382.36 134.712C382.361 141.109 380.675 147.394 377.472 152.932C374.27 158.471 369.663 163.066 364.117 166.256C358.571 169.445 352.283 171.116 345.885 171.099C339.487 171.083 333.207 169.379 327.678 166.161C322.149 162.943 317.567 158.323 314.393 152.768C311.219 147.214 309.566 140.92 309.6 134.523C309.635 128.125 311.356 121.85 314.59 116.33C317.824 110.81 322.456 106.24 328.02 103.082L339.51 124.552C339.454 124.558 339.399 124.575 339.35 124.602C336.09 125.513 333.176 127.375 330.982 129.952C328.788 132.529 327.412 135.702 327.032 139.065C326.652 142.428 327.284 145.827 328.847 148.829C330.411 151.831 332.835 154.297 335.809 155.913C338.783 157.528 342.171 158.22 345.54 157.898C348.909 157.576 352.106 156.256 354.72 154.107C357.334 151.957 359.248 149.077 360.215 145.833C361.182 142.59 361.16 139.132 360.15 135.902C360.1 135.772 360.06 135.642 360 135.512C359.93 135.272 359.84 135.042 359.75 134.812L357.96 131.432C357.905 131.345 357.845 131.261 357.78 131.182L340.48 98.8519L332.39 83.7319C335.086 82.9906 337.839 82.4688 340.62 82.1719L340.92 82.7719V82.8419V82.9019C343.68 88.1919 346.73 93.3619 349.58 98.6019C358.543 99.4977 366.856 103.686 372.911 110.355C378.966 117.025 382.333 125.704 382.36 134.712Z" fill="#7C1AFB"/>
<path d="M309.599 1.17686C309.6 7.57475 307.913 13.8597 304.71 19.398C301.507 24.9363 296.9 29.5322 291.355 32.7224C285.809 35.9126 279.52 37.5842 273.122 37.5689C266.724 37.5536 260.443 35.8517 254.913 32.635C249.383 29.4182 244.798 24.8003 241.622 19.2467C238.445 13.6931 236.789 7.40015 236.82 1.00233C236.851 -5.39548 238.568 -11.672 241.798 -17.1945C245.029 -22.717 249.658 -27.2902 255.219 -30.4531L266.709 -9.00313L266.549 -8.95314C263.498 -8.10361 260.745 -6.41868 258.601 -4.0883C256.456 -1.75793 255.005 1.12523 254.411 4.23613C253.817 7.34703 254.104 10.562 255.239 13.5185C256.375 16.4751 258.314 19.0557 260.837 20.9694C263.361 22.8831 266.369 24.0538 269.522 24.3496C272.675 24.6454 275.848 24.0544 278.684 22.6433C281.519 21.2322 283.904 19.0572 285.569 16.3633C287.235 13.6695 288.114 10.5639 288.109 7.39687C288.109 5.68508 287.853 3.98298 287.349 2.34688C287.345 2.33055 287.345 2.31319 287.349 2.29686L287.189 1.90688C287.109 1.66687 287.029 1.42688 286.929 1.19688L285.149 -2.18312C285.094 -2.26948 285.034 -2.35292 284.969 -2.43312L267.679 -34.7731L259.579 -49.8831C262.276 -50.626 265.028 -51.151 267.809 -51.4531L268.119 -50.8531V-50.7731V-50.7231C270.879 -45.4331 273.919 -40.2631 276.769 -35.0131C285.757 -34.1297 294.094 -29.9362 300.162 -23.2477C306.229 -16.5592 309.593 -7.85365 309.599 1.17686Z" fill="#7C1AFB"/>
<path d="M236.829 1.17686C236.83 7.57548 235.144 13.8614 231.941 19.4006C228.738 24.9398 224.132 29.5366 218.585 32.7274C213.039 35.9181 206.749 37.5901 200.351 37.5746C193.952 37.5591 187.671 35.8568 182.14 32.6392C176.609 29.4216 172.025 24.8026 168.848 19.248C165.672 13.6933 164.017 7.39934 164.049 1.00081C164.082 -5.39772 165.801 -11.6746 169.033 -17.1969C172.265 -22.7192 176.896 -27.2916 182.459 -30.4531L193.949 -9.00313L193.789 -8.95314C190.528 -8.04411 187.613 -6.18239 185.417 -3.60646C183.221 -1.03053 181.844 2.14233 181.463 5.50569C181.081 8.86905 181.712 12.2698 183.275 15.2722C184.838 18.2747 187.262 20.7422 190.236 22.3587C193.21 23.9752 196.599 24.667 199.968 24.3456C203.338 24.0241 206.535 22.7041 209.15 20.5546C211.765 18.405 213.678 15.5238 214.645 12.28C215.613 9.03614 215.589 5.57743 214.579 2.34688C214.579 2.34688 214.579 2.34686 214.579 2.29686L214.429 1.90688C214.359 1.66687 214.269 1.42688 214.179 1.19688L212.389 -2.18312L212.209 -2.43312L194.909 -34.7731L186.819 -49.8831C189.515 -50.6278 192.268 -51.1528 195.049 -51.4531L195.349 -50.8531V-50.7731V-50.7231C198.109 -45.4331 201.149 -40.2631 204.009 -35.0131C212.994 -34.1273 221.329 -29.9328 227.395 -23.2446C233.46 -16.5563 236.823 -7.85209 236.829 1.17686Z" fill="#7C1AFB"/>
<path d="M309.599 134.712C309.6 141.11 307.913 147.395 304.71 152.933C301.507 158.471 296.9 163.067 291.355 166.257C285.809 169.448 279.52 171.119 273.122 171.104C266.724 171.089 260.443 169.387 254.913 166.17C249.383 162.953 244.798 158.335 241.622 152.782C238.445 147.228 236.789 140.935 236.82 134.537C236.851 128.14 238.568 121.863 241.798 116.34C245.029 110.818 249.658 106.245 255.219 103.082L266.709 124.552C266.654 124.559 266.599 124.576 266.549 124.602C263.29 125.513 260.376 127.375 258.182 129.952C255.987 132.529 254.612 135.702 254.232 139.065C253.851 142.428 254.483 145.827 256.047 148.829C257.611 151.831 260.035 154.297 263.009 155.913C265.983 157.528 269.371 158.22 272.74 157.898C276.109 157.576 279.306 156.256 281.92 154.107C284.534 151.957 286.448 149.077 287.415 145.833C288.382 142.59 288.359 139.132 287.349 135.902C287.299 135.772 287.249 135.642 287.189 135.512C287.109 135.272 287.029 135.042 286.929 134.812L285.149 131.432C285.098 131.342 285.038 131.259 284.969 131.182L267.679 98.8519L259.579 83.7319C262.276 82.9924 265.029 82.4707 267.809 82.1719L268.119 82.7719V82.8419V82.9019C270.879 88.1919 273.919 93.3619 276.769 98.6019C285.742 99.4861 294.067 103.669 300.132 110.34C306.197 117.011 309.571 125.696 309.599 134.712Z" fill="#7C1AFB"/>
<path d="M309.599 134.712C309.6 141.11 307.913 147.395 304.71 152.933C301.507 158.471 296.9 163.067 291.355 166.257C285.809 169.448 279.52 171.119 273.122 171.104C266.724 171.089 260.443 169.387 254.913 166.17C249.383 162.953 244.798 158.335 241.622 152.782C238.445 147.228 236.789 140.935 236.82 134.537C236.851 128.14 238.568 121.863 241.798 116.34C245.029 110.818 249.658 106.245 255.219 103.082L266.709 124.552C266.654 124.559 266.599 124.576 266.549 124.602C263.29 125.513 260.376 127.375 258.182 129.952C255.987 132.529 254.612 135.702 254.232 139.065C253.851 142.428 254.483 145.827 256.047 148.829C257.611 151.831 260.035 154.297 263.009 155.913C265.983 157.528 269.371 158.22 272.74 157.898C276.109 157.576 279.306 156.256 281.92 154.107C284.534 151.957 286.448 149.077 287.415 145.833C288.382 142.59 288.359 139.132 287.349 135.902C287.299 135.772 287.249 135.642 287.189 135.512C287.109 135.272 287.029 135.042 286.929 134.812L285.149 131.432C285.098 131.342 285.038 131.259 284.969 131.182L267.679 98.8519L259.579 83.7319C262.276 82.9924 265.029 82.4707 267.809 82.1719L268.119 82.7719V82.8419V82.9019C270.879 88.1919 273.919 93.3619 276.769 98.6019C285.742 99.4861 294.067 103.669 300.132 110.34C306.197 117.011 309.571 125.696 309.599 134.712Z" fill="#845CB9"/>
<path d="M236.829 134.711C236.83 141.11 235.144 147.395 231.941 152.935C228.738 158.474 224.132 163.071 218.585 166.261C213.039 169.452 206.749 171.124 200.351 171.109C193.952 171.093 187.671 169.391 182.14 166.173C176.609 162.956 172.025 158.337 168.848 152.782C165.672 147.227 164.017 140.933 164.049 134.535C164.082 128.136 165.801 121.859 169.033 116.337C172.265 110.815 176.896 106.242 182.459 103.081L193.949 124.551C193.893 124.557 193.838 124.574 193.789 124.601C190.737 125.451 187.984 127.136 185.839 129.467C183.694 131.798 182.243 134.681 181.65 137.793C181.056 140.904 181.344 144.119 182.48 147.076C183.617 150.033 185.556 152.613 188.081 154.526C190.605 156.44 193.614 157.61 196.768 157.904C199.921 158.199 203.095 157.607 205.93 156.194C208.765 154.782 211.149 152.605 212.813 149.91C214.478 147.215 215.356 144.108 215.349 140.941C215.347 139.245 215.087 137.559 214.579 135.941L214.429 135.551C214.359 135.311 214.269 135.081 214.179 134.851L212.389 131.471C212.335 131.384 212.274 131.3 212.209 131.221L194.909 98.891L186.819 83.7709C189.516 83.0296 192.268 82.5079 195.049 82.2109L195.349 82.8109V82.881V82.9409C198.109 88.2309 201.149 93.401 204.009 98.641C212.973 99.5268 221.29 103.705 227.352 110.367C233.414 117.03 236.791 125.703 236.829 134.711Z" fill="#7C1AFB"/>
<path d="M346.019 67.9381C346.021 74.3368 344.335 80.6226 341.132 86.1619C337.929 91.7011 333.322 96.2979 327.776 99.4886C322.229 102.679 315.94 104.351 309.541 104.336C303.143 104.32 296.861 102.618 291.33 99.4005C285.8 96.1829 281.215 91.5639 278.039 86.0092C274.863 80.4545 273.207 74.1606 273.24 67.7621C273.272 61.3636 274.991 55.0867 278.223 49.5644C281.455 44.0421 286.086 39.4696 291.649 36.3081L303.139 57.7781L302.979 57.8281C299.719 58.7372 296.804 60.5989 294.608 63.1748C292.412 65.7507 291.035 68.9236 290.653 72.287C290.271 75.6503 290.902 79.051 292.465 82.0535C294.029 85.056 296.452 87.5235 299.426 89.14C302.4 90.7564 305.789 91.4482 309.159 91.1268C312.528 90.8054 315.725 89.4854 318.34 87.3358C320.955 85.1862 322.869 82.305 323.836 79.0612C324.803 75.8174 324.78 72.3587 323.769 69.1281L323.619 68.7381C323.539 68.4981 323.459 68.2581 323.359 68.0281L321.569 64.6481C321.569 64.6481 321.459 64.4881 321.389 64.4081L304.019 31.9981L295.929 16.8882C298.626 16.1468 301.378 15.6251 304.159 15.3281L304.459 15.9281V15.9981C307.219 21.2981 310.259 26.4581 313.119 31.7081C322.126 32.5759 330.486 36.7681 336.569 43.4666C342.652 50.1652 346.021 58.8898 346.019 67.9381Z" fill="#7C1AFB"/>
<path d="M273.209 67.9381C273.208 74.3335 271.52 80.6155 268.317 86.1508C265.113 91.6861 260.507 96.2792 254.963 99.467C249.419 102.655 243.132 104.325 236.737 104.309C230.342 104.292 224.063 102.591 218.535 99.3746C213.007 96.1587 208.425 91.5423 205.25 85.9908C202.074 80.4393 200.419 74.1489 200.45 67.7535C200.48 61.3582 202.197 55.084 205.425 49.5634C208.654 44.0427 213.28 39.4707 218.839 36.3081L230.329 57.7781L230.169 57.8281C227.118 58.6777 224.365 60.3626 222.22 62.693C220.076 65.0233 218.625 67.9065 218.031 71.0174C217.437 74.1283 217.724 77.3433 218.859 80.2998C219.995 83.2564 221.934 85.837 224.457 87.7507C226.981 89.6644 229.988 90.8351 233.142 91.1309C236.295 91.4266 239.468 90.8356 242.303 89.4246C245.139 88.0135 247.524 85.8384 249.189 83.1446C250.854 80.4507 251.734 77.3452 251.729 74.1781C251.729 72.4663 251.473 70.7642 250.969 69.1281C250.93 68.9944 250.88 68.8639 250.819 68.7381C250.739 68.4981 250.659 68.2581 250.559 68.0281L248.769 64.6481C248.709 64.5681 248.659 64.4881 248.589 64.4081L231.269 31.9981L223.179 16.8882C225.876 16.1468 228.628 15.6251 231.409 15.3281L231.719 15.9281V15.9981C234.479 21.2981 237.529 26.4581 240.379 31.7081C249.373 32.5923 257.717 36.7915 263.785 43.4884C269.853 50.1853 273.213 58.9007 273.209 67.9381Z" fill="#7C1AFB"/>
<path d="M200.45 67.9381C200.45 74.336 198.764 80.6209 195.561 86.1592C192.358 91.6975 187.751 96.2935 182.205 99.4836C176.659 102.674 170.371 104.346 163.973 104.33C157.575 104.315 151.294 102.613 145.764 99.3962C140.233 96.1795 135.649 91.5615 132.472 86.0079C129.295 80.4543 127.639 74.1614 127.67 67.7636C127.701 61.3658 129.419 55.0893 132.649 49.5668C135.879 44.0443 140.509 39.471 146.07 36.3081L157.56 57.7781L157.4 57.8281C154.349 58.6777 151.596 60.3626 149.451 62.693C147.306 65.0233 145.855 67.9065 145.261 71.0174C144.668 74.1283 144.955 77.3433 146.09 80.2998C147.225 83.2564 149.164 85.837 151.688 87.7507C154.211 89.6644 157.219 90.8351 160.372 91.1309C163.526 91.4266 166.699 90.8356 169.534 89.4246C172.37 88.0135 174.754 85.8384 176.42 83.1446C178.085 80.4507 178.965 77.3452 178.96 74.1781C178.959 72.4663 178.703 70.7642 178.2 69.1281C178.2 68.9881 178.1 68.8681 178.05 68.7381C177.97 68.4981 177.89 68.2581 177.79 68.0281L176.02 64.5981C175.966 64.5135 175.906 64.4332 175.84 64.3581L158.51 31.9981L150.42 16.8882C153.113 16.1477 155.862 15.626 158.64 15.3281L158.95 15.9281V15.9981C161.71 21.2981 164.75 26.4581 167.6 31.7081C176.598 32.5876 184.946 36.7848 191.018 43.4822C197.091 50.1796 200.453 58.8976 200.45 67.9381Z" fill="#7C1AFB"/>
<path d="M309.599 1.17686C309.6 7.57475 307.913 13.8597 304.71 19.398C301.507 24.9363 296.9 29.5322 291.355 32.7224C285.809 35.9126 279.52 37.5842 273.122 37.5689C266.724 37.5536 260.443 35.8517 254.913 32.635C249.383 29.4182 244.798 24.8003 241.622 19.2467C238.445 13.6931 236.789 7.40015 236.82 1.00233C236.851 -5.39548 238.568 -11.672 241.798 -17.1945C245.029 -22.717 249.658 -27.2902 255.219 -30.4531L266.709 -9.00313L266.549 -8.95314C263.498 -8.10361 260.745 -6.41868 258.601 -4.0883C256.456 -1.75793 255.005 1.12523 254.411 4.23613C253.817 7.34703 254.104 10.562 255.239 13.5185C256.375 16.4751 258.314 19.0557 260.837 20.9694C263.361 22.8831 266.369 24.0538 269.522 24.3496C272.675 24.6454 275.848 24.0544 278.684 22.6433C281.519 21.2322 283.904 19.0572 285.569 16.3633C287.235 13.6695 288.114 10.5639 288.109 7.39687C288.109 5.68508 287.853 3.98298 287.349 2.34688C287.345 2.33055 287.345 2.31319 287.349 2.29686L287.189 1.90688C287.109 1.66687 287.029 1.42688 286.929 1.19688L285.149 -2.18312C285.094 -2.26948 285.034 -2.35292 284.969 -2.43312L267.679 -34.7731L259.579 -49.8831C262.276 -50.626 265.028 -51.151 267.809 -51.4531L268.119 -50.8531V-50.7731V-50.7231C270.879 -45.4331 273.919 -40.2631 276.769 -35.0131C285.757 -34.1297 294.094 -29.9362 300.162 -23.2477C306.229 -16.5592 309.593 -7.85365 309.599 1.17686Z" fill="#3E0D7E"/>
<path d="M236.829 1.17686C236.83 7.57548 235.144 13.8614 231.941 19.4006C228.738 24.9398 224.132 29.5366 218.585 32.7274C213.039 35.9181 206.749 37.5901 200.351 37.5746C193.952 37.5591 187.671 35.8568 182.14 32.6392C176.609 29.4216 172.025 24.8026 168.848 19.248C165.672 13.6933 164.017 7.39934 164.049 1.00081C164.082 -5.39772 165.801 -11.6746 169.033 -17.1969C172.265 -22.7192 176.896 -27.2916 182.459 -30.4531L193.949 -9.00313L193.789 -8.95314C190.528 -8.04411 187.613 -6.18239 185.417 -3.60646C183.221 -1.03053 181.844 2.14233 181.463 5.50569C181.081 8.86905 181.712 12.2698 183.275 15.2722C184.838 18.2747 187.262 20.7422 190.236 22.3587C193.21 23.9752 196.599 24.667 199.968 24.3456C203.338 24.0241 206.535 22.7041 209.15 20.5546C211.765 18.405 213.678 15.5238 214.645 12.28C215.613 9.03614 215.589 5.57743 214.579 2.34688C214.579 2.34688 214.579 2.34686 214.579 2.29686L214.429 1.90688C214.359 1.66687 214.269 1.42688 214.179 1.19688L212.389 -2.18312L212.209 -2.43312L194.909 -34.7731L186.819 -49.8831C189.515 -50.6278 192.268 -51.1528 195.049 -51.4531L195.349 -50.8531V-50.7731V-50.7231C198.109 -45.4331 201.149 -40.2631 204.009 -35.0131C212.994 -34.1273 221.329 -29.9328 227.395 -23.2446C233.46 -16.5563 236.823 -7.85209 236.829 1.17686Z" fill="#845CB9"/>
<path d="M236.829 134.711C236.83 141.11 235.144 147.395 231.941 152.935C228.738 158.474 224.132 163.071 218.585 166.261C213.039 169.452 206.749 171.124 200.351 171.109C193.952 171.093 187.671 169.391 182.14 166.173C176.609 162.956 172.025 158.337 168.848 152.782C165.672 147.227 164.017 140.933 164.049 134.535C164.082 128.136 165.801 121.859 169.033 116.337C172.265 110.815 176.896 106.242 182.459 103.081L193.949 124.551C193.893 124.557 193.838 124.574 193.789 124.601C190.737 125.451 187.984 127.136 185.839 129.467C183.694 131.798 182.243 134.681 181.65 137.793C181.056 140.904 181.344 144.119 182.48 147.076C183.617 150.033 185.556 152.613 188.081 154.526C190.605 156.44 193.614 157.61 196.768 157.904C199.921 158.199 203.095 157.607 205.93 156.194C208.765 154.782 211.149 152.605 212.813 149.91C214.478 147.215 215.356 144.108 215.349 140.941C215.347 139.245 215.087 137.559 214.579 135.941L214.429 135.551C214.359 135.311 214.269 135.081 214.179 134.851L212.389 131.471C212.335 131.384 212.274 131.3 212.209 131.221L194.909 98.891L186.819 83.7709C189.516 83.0296 192.268 82.5079 195.049 82.2109L195.349 82.8109V82.881V82.9409C198.109 88.2309 201.149 93.401 204.009 98.641C212.973 99.5268 221.29 103.705 227.352 110.367C233.414 117.03 236.791 125.703 236.829 134.711Z" fill="#7C1AFB"/>
<path d="M164.02 1.17906C164.018 7.57446 162.331 13.8564 159.127 19.3917C155.924 24.9271 151.318 29.5201 145.774 32.708C140.229 35.8958 133.943 37.5658 127.547 37.5496C121.152 37.5333 114.874 35.8315 109.346 32.6156C103.818 29.3996 99.2354 24.7832 96.0602 19.2317C92.885 13.6802 91.2294 7.38979 91.2602 0.994461C91.291 -5.40086 93.0072 -11.6751 96.2357 -17.1957C99.4642 -22.7164 104.091 -27.2884 109.65 -30.4509L121.18 -9.00093L121.02 -8.95094C117.969 -8.10141 115.216 -6.41648 113.071 -4.08611C110.926 -1.75573 109.475 1.12742 108.881 4.23833C108.287 7.34923 108.574 10.5642 109.71 13.5207C110.845 16.4773 112.784 19.0579 115.308 20.9716C117.831 22.8853 120.839 24.056 123.992 24.3518C127.145 24.6476 130.319 24.0566 133.154 22.6455C135.989 21.2344 138.374 19.0594 140.04 16.3655C141.705 13.6717 142.585 10.5661 142.58 7.39906C142.579 5.68728 142.323 3.98518 141.82 2.34908C141.82 2.34908 141.82 2.34906 141.82 2.29906C141.777 2.16644 141.727 2.03627 141.67 1.90907C141.59 1.66907 141.51 1.42908 141.41 1.19908L139.62 -2.18092C139.564 -2.26728 139.504 -2.35073 139.44 -2.43092L122.14 -34.7709L114.02 -49.8909C116.716 -50.6348 119.469 -51.1598 122.25 -51.4609L122.56 -50.8609V-50.7809V-50.7309C125.32 -45.4409 128.37 -40.2709 131.22 -35.0209C140.203 -34.1303 148.535 -29.9324 154.597 -23.2425C160.658 -16.5526 164.017 -7.84849 164.02 1.17906Z" fill="#7C1AFB"/>
<path d="M91.2996 1.17686C91.2999 7.57475 89.6135 13.8597 86.4103 19.398C83.2072 24.9363 78.6005 29.5322 73.0547 32.7224C67.509 35.9126 61.2201 37.5842 54.8223 37.5689C48.4244 37.5536 42.1436 35.8517 36.6132 32.635C31.0828 29.4182 26.4983 24.8003 23.3217 19.2467C20.1452 13.6931 18.4889 7.40015 18.52 1.00233C18.551 -5.39548 20.2683 -11.672 23.4986 -17.1945C26.7289 -22.717 31.3582 -27.2902 36.9196 -30.4531L48.4095 -9.00313L48.2595 -8.95314C45.2085 -8.10361 42.4555 -6.41868 40.3108 -4.0883C38.1661 -1.75793 36.715 1.12523 36.1211 4.23613C35.5272 7.34703 35.8142 10.562 36.9496 13.5185C38.085 16.4751 40.0238 19.0557 42.5473 20.9694C45.0708 22.8831 48.0788 24.0538 51.232 24.3496C54.3852 24.6454 57.5584 24.0544 60.3938 22.6433C63.2292 21.2322 65.6139 19.0572 67.2794 16.3633C68.9448 13.6695 69.8246 10.5639 69.8195 7.39687C69.8157 5.68459 69.5562 3.9825 69.0496 2.34688C69.0496 2.34688 69.0496 2.34686 69.0496 2.29686C69.0496 2.24686 68.9495 2.04688 68.8995 1.90688C68.8195 1.66687 68.7395 1.42688 68.6395 1.19688L66.8495 -2.18312C66.7939 -2.26948 66.7338 -2.35292 66.6696 -2.43312L49.3795 -34.7731L41.2896 -49.8831C43.9828 -50.6269 46.7317 -51.1519 49.5095 -51.4531L49.8195 -50.8531V-50.7731V-50.7231C52.5795 -45.4331 55.6196 -40.2631 58.4796 -35.0131C67.465 -34.1273 75.8002 -29.9328 81.8656 -23.2446C87.931 -16.5563 91.2935 -7.85209 91.2996 1.17686Z" fill="#7C1AFB"/>
<path d="M164.02 134.71C164.018 141.106 162.331 147.388 159.127 152.923C155.924 158.458 151.318 163.051 145.774 166.239C140.229 169.427 133.943 171.097 127.547 171.081C121.152 171.065 114.874 169.363 109.346 166.147C103.818 162.931 99.2354 158.314 96.0602 152.763C92.885 147.211 91.2294 140.921 91.2602 134.526C91.291 128.13 93.0072 121.856 96.2357 116.336C99.4642 110.815 104.091 106.243 109.65 103.08L121.14 124.55C121.084 124.558 121.03 124.575 120.98 124.6C117.72 125.511 114.807 127.374 112.612 129.951C110.418 132.527 109.042 135.7 108.662 139.063C108.282 142.426 108.914 145.826 110.477 148.827C112.041 151.829 114.465 154.296 117.439 155.911C120.413 157.527 123.801 158.218 127.17 157.896C130.54 157.575 133.736 156.254 136.35 154.105C138.965 151.956 140.878 149.075 141.845 145.832C142.812 142.589 142.79 139.131 141.78 135.9C141.739 135.767 141.688 135.637 141.63 135.51C141.55 135.27 141.47 135.04 141.37 134.81L139.58 131.43C139.529 131.341 139.469 131.257 139.4 131.18L122.1 98.8503L114.02 83.6303C116.717 82.8898 119.469 82.3681 122.25 82.0703L122.56 82.6703V82.7403V82.8003C125.32 88.0903 128.37 93.2603 131.22 98.5003C140.204 99.3932 148.536 103.593 154.597 110.285C160.659 116.976 164.017 125.682 164.02 134.71Z" fill="#7C1AFB"/>
<path d="M164.02 134.71C164.018 141.106 162.331 147.388 159.127 152.923C155.924 158.458 151.318 163.051 145.774 166.239C140.229 169.427 133.943 171.097 127.547 171.081C121.152 171.065 114.874 169.363 109.346 166.147C103.818 162.931 99.2354 158.314 96.0602 152.763C92.885 147.211 91.2294 140.921 91.2602 134.526C91.291 128.13 93.0072 121.856 96.2357 116.336C99.4642 110.815 104.091 106.243 109.65 103.08L121.14 124.55C121.084 124.558 121.03 124.575 120.98 124.6C117.72 125.511 114.807 127.374 112.612 129.951C110.418 132.527 109.042 135.7 108.662 139.063C108.282 142.426 108.914 145.826 110.477 148.827C112.041 151.829 114.465 154.296 117.439 155.911C120.413 157.527 123.801 158.218 127.17 157.896C130.54 157.575 133.736 156.254 136.35 154.105C138.965 151.956 140.878 149.075 141.845 145.832C142.812 142.589 142.79 139.131 141.78 135.9C141.739 135.767 141.688 135.637 141.63 135.51C141.55 135.27 141.47 135.04 141.37 134.81L139.58 131.43C139.529 131.341 139.469 131.257 139.4 131.18L122.1 98.8503L114.02 83.6303C116.717 82.8898 119.469 82.3681 122.25 82.0703L122.56 82.6703V82.7403V82.8003C125.32 88.0903 128.37 93.2603 131.22 98.5003C140.204 99.3932 148.536 103.593 154.597 110.285C160.659 116.976 164.017 125.682 164.02 134.71Z" fill="#3E0D7E"/>
<path d="M91.2996 134.712C91.2999 141.11 89.6135 147.395 86.4103 152.933C83.2072 158.471 78.6005 163.067 73.0547 166.257C67.509 169.448 61.2201 171.119 54.8223 171.104C48.4244 171.089 42.1436 169.387 36.6132 166.17C31.0828 162.953 26.4983 158.335 23.3217 152.782C20.1452 147.228 18.4889 140.935 18.52 134.537C18.551 128.14 20.2683 121.863 23.4986 116.34C26.7289 110.818 31.3582 106.245 36.9196 103.082L48.4095 124.552C48.3566 124.558 48.3055 124.575 48.2595 124.602C44.9959 125.506 42.0766 127.364 39.876 129.938C37.6753 132.512 36.2936 135.685 35.9079 139.049C35.5222 142.413 36.1502 145.816 37.7113 148.822C39.2724 151.827 41.6955 154.297 44.6699 155.916C47.6443 157.535 51.0345 158.229 54.4058 157.909C57.7771 157.588 60.9759 156.268 63.592 154.118C66.2082 151.968 68.1225 149.085 69.0895 145.839C70.0565 142.594 70.0321 139.133 69.0195 135.902L68.8695 135.512C68.7895 135.272 68.7096 135.042 68.6096 134.812L66.8195 131.432C66.7686 131.342 66.7083 131.259 66.6395 131.182L49.3496 98.8519L41.2595 83.7319C43.9531 82.9915 46.702 82.4698 49.4796 82.1719L49.7896 82.7719V82.8419V82.9019C52.5496 88.1919 55.5895 93.3619 58.4495 98.6019C67.4258 99.4814 75.7558 103.662 81.8251 110.334C87.8944 117.005 91.2707 125.693 91.2996 134.712Z" fill="#7C1AFB"/>
<path d="M200.45 67.9381C200.45 74.336 198.764 80.6209 195.561 86.1592C192.358 91.6975 187.751 96.2935 182.205 99.4836C176.659 102.674 170.371 104.346 163.973 104.33C157.575 104.315 151.294 102.613 145.764 99.3962C140.233 96.1795 135.649 91.5615 132.472 86.0079C129.295 80.4543 127.639 74.1614 127.67 67.7636C127.701 61.3658 129.419 55.0893 132.649 49.5668C135.879 44.0443 140.509 39.471 146.07 36.3081L157.56 57.7781L157.4 57.8281C154.349 58.6777 151.596 60.3626 149.451 62.693C147.306 65.0233 145.855 67.9065 145.261 71.0174C144.668 74.1283 144.955 77.3433 146.09 80.2998C147.225 83.2564 149.164 85.837 151.688 87.7507C154.211 89.6644 157.219 90.8351 160.372 91.1309C163.526 91.4266 166.699 90.8356 169.534 89.4246C172.37 88.0135 174.754 85.8384 176.42 83.1446C178.085 80.4507 178.965 77.3452 178.96 74.1781C178.959 72.4663 178.703 70.7642 178.2 69.1281C178.2 68.9881 178.1 68.8681 178.05 68.7381C177.97 68.4981 177.89 68.2581 177.79 68.0281L176.02 64.5981C175.966 64.5135 175.906 64.4332 175.84 64.3581L158.51 31.9981L150.42 16.8882C153.113 16.1477 155.862 15.626 158.64 15.3281L158.95 15.9281V15.9981C161.71 21.2981 164.75 26.4581 167.6 31.7081C176.598 32.5876 184.946 36.7848 191.018 43.4822C197.091 50.1796 200.453 58.8976 200.45 67.9381Z" fill="#CAADF0"/>
<path d="M127.679 67.9381C127.681 74.3368 125.995 80.6226 122.792 86.1619C119.589 91.7011 114.982 96.2979 109.436 99.4886C103.89 102.679 97.5999 104.351 91.2013 104.336C84.8027 104.32 78.5214 102.618 72.9906 99.4005C67.4598 96.1829 62.8752 91.5639 59.699 86.0092C56.5229 80.4545 54.8675 74.1606 54.8999 67.7621C54.9322 61.3636 56.6511 55.0867 59.8832 49.5644C63.1153 44.0421 67.7463 39.4696 73.3094 36.3081L84.7994 57.7781L84.6394 57.8281C81.3788 58.7372 78.4638 60.5989 76.2678 63.1748C74.0718 65.7507 72.6948 68.9236 72.3131 72.287C71.9315 75.6503 72.5626 79.051 74.1256 82.0535C75.6886 85.056 78.1124 87.5235 81.0864 89.14C84.0604 90.7564 87.4493 91.4482 90.8189 91.1268C94.1886 90.8054 97.3856 89.4854 100 87.3358C102.615 85.1862 104.529 82.305 105.496 79.0612C106.463 75.8174 106.44 72.3587 105.429 69.1281C105.429 69.1281 105.329 68.8681 105.279 68.7381C105.209 68.4981 105.119 68.2581 105.029 68.0281L103.239 64.6481C103.239 64.6481 103.129 64.4881 103.059 64.4081L85.7394 31.9981L77.6494 16.8882C80.3461 16.1468 83.0984 15.6251 85.8794 15.3281L86.1794 15.9281V15.9981C88.9394 21.2981 91.9894 26.4581 94.8394 31.7081C103.835 32.5899 112.181 36.7881 118.252 43.4853C124.322 50.1824 127.683 58.8992 127.679 67.9381Z" fill="#7C1AFB"/>
<path d="M54.9094 67.9381C54.9078 74.3335 53.2202 80.6155 50.0169 86.1508C46.8136 91.6861 42.2076 96.2792 36.6634 99.467C31.1191 102.655 24.8325 104.325 18.4371 104.309C12.0418 104.292 5.76366 102.591 0.235651 99.3746C-5.29235 96.1587 -9.87491 91.5423 -13.0501 85.9908C-16.2253 80.4393 -17.881 74.1489 -17.8502 67.7535C-17.8194 61.3582 -16.1032 55.084 -12.8747 49.5634C-9.64616 44.0427 -5.01931 39.4707 0.539423 36.3081L12.0194 57.7781L11.8594 57.8281C8.80841 58.6777 6.05535 60.3626 3.91064 62.693C1.76593 65.0233 0.314814 67.9065 -0.279058 71.0174C-0.872931 74.1283 -0.585938 77.3433 0.549494 80.2998C1.68493 83.2564 3.62369 85.837 6.14721 87.7507C8.67073 89.6644 11.6787 90.8351 14.8319 91.1309C17.9851 91.4266 21.1583 90.8356 23.9936 89.4246C26.829 88.0135 29.2139 85.8384 30.8793 83.1446C32.5447 80.4507 33.4245 77.3452 33.4194 74.1781C33.4189 72.4663 33.1628 70.7642 32.6594 69.1281C32.6594 68.9881 32.5594 68.8681 32.4994 68.7381C32.4194 68.4981 32.3394 68.2581 32.2394 68.0281L30.4594 64.6481C30.4059 64.5635 30.3457 64.4832 30.2794 64.4081L13.0194 31.9981L4.92938 16.8882C7.62652 16.1487 10.3787 15.6269 13.1594 15.3281L13.4694 15.9281V15.9981C16.2294 21.2981 19.2794 26.4581 22.1294 31.7081C31.1145 32.6039 39.4456 36.8082 45.5037 43.5039C51.5618 50.1996 54.9143 58.9085 54.9094 67.9381Z" fill="#7C1AFB"/>
<path d="M164.02 1.17906C164.018 7.57446 162.331 13.8564 159.127 19.3917C155.924 24.9271 151.318 29.5201 145.774 32.708C140.229 35.8958 133.943 37.5658 127.547 37.5496C121.152 37.5333 114.874 35.8315 109.346 32.6156C103.818 29.3996 99.2354 24.7832 96.0602 19.2317C92.885 13.6802 91.2294 7.38979 91.2602 0.994461C91.291 -5.40086 93.0072 -11.6751 96.2357 -17.1957C99.4642 -22.7164 104.091 -27.2884 109.65 -30.4509L121.18 -9.00093L121.02 -8.95094C117.969 -8.10141 115.216 -6.41648 113.071 -4.08611C110.926 -1.75573 109.475 1.12742 108.881 4.23833C108.287 7.34923 108.574 10.5642 109.71 13.5207C110.845 16.4773 112.784 19.0579 115.308 20.9716C117.831 22.8853 120.839 24.056 123.992 24.3518C127.145 24.6476 130.319 24.0566 133.154 22.6455C135.989 21.2344 138.374 19.0594 140.04 16.3655C141.705 13.6717 142.585 10.5661 142.58 7.39906C142.579 5.68728 142.323 3.98518 141.82 2.34908C141.82 2.34908 141.82 2.34906 141.82 2.29906C141.777 2.16644 141.727 2.03627 141.67 1.90907C141.59 1.66907 141.51 1.42908 141.41 1.19908L139.62 -2.18092C139.564 -2.26728 139.504 -2.35073 139.44 -2.43092L122.14 -34.7709L114.02 -49.8909C116.716 -50.6348 119.469 -51.1598 122.25 -51.4609L122.56 -50.8609V-50.7809V-50.7309C125.32 -45.4409 128.37 -40.2709 131.22 -35.0209C140.203 -34.1303 148.535 -29.9324 154.597 -23.2425C160.658 -16.5526 164.017 -7.84849 164.02 1.17906Z" fill="#A28CBF"/>
<path d="M91.2996 1.17686C91.2999 7.57475 89.6135 13.8597 86.4103 19.398C83.2072 24.9363 78.6005 29.5322 73.0547 32.7224C67.509 35.9126 61.2201 37.5842 54.8223 37.5689C48.4244 37.5536 42.1436 35.8517 36.6132 32.635C31.0828 29.4182 26.4983 24.8003 23.3217 19.2467C20.1452 13.6931 18.4889 7.40015 18.52 1.00233C18.551 -5.39548 20.2683 -11.672 23.4986 -17.1945C26.7289 -22.717 31.3582 -27.2902 36.9196 -30.4531L48.4095 -9.00313L48.2595 -8.95314C45.2085 -8.10361 42.4555 -6.41868 40.3108 -4.0883C38.1661 -1.75793 36.715 1.12523 36.1211 4.23613C35.5272 7.34703 35.8142 10.562 36.9496 13.5185C38.085 16.4751 40.0238 19.0557 42.5473 20.9694C45.0708 22.8831 48.0788 24.0538 51.232 24.3496C54.3852 24.6454 57.5584 24.0544 60.3938 22.6433C63.2292 21.2322 65.6139 19.0572 67.2794 16.3633C68.9448 13.6695 69.8246 10.5639 69.8195 7.39687C69.8157 5.68459 69.5562 3.9825 69.0496 2.34688C69.0496 2.34688 69.0496 2.34686 69.0496 2.29686C69.0496 2.24686 68.9495 2.04688 68.8995 1.90688C68.8195 1.66687 68.7395 1.42688 68.6395 1.19688L66.8495 -2.18312C66.7939 -2.26948 66.7338 -2.35292 66.6696 -2.43312L49.3795 -34.7731L41.2896 -49.8831C43.9828 -50.6269 46.7317 -51.1519 49.5095 -51.4531L49.8195 -50.8531V-50.7731V-50.7231C52.5795 -45.4331 55.6196 -40.2631 58.4796 -35.0131C67.465 -34.1273 75.8002 -29.9328 81.8656 -23.2446C87.931 -16.5563 91.2935 -7.85209 91.2996 1.17686Z" fill="#845CB9"/>
<path d="M91.2996 134.712C91.2999 141.11 89.6135 147.395 86.4103 152.933C83.2072 158.471 78.6005 163.067 73.0547 166.257C67.509 169.448 61.2201 171.119 54.8223 171.104C48.4244 171.089 42.1436 169.387 36.6132 166.17C31.0828 162.953 26.4983 158.335 23.3217 152.782C20.1452 147.228 18.4889 140.935 18.52 134.537C18.551 128.14 20.2683 121.863 23.4986 116.34C26.7289 110.818 31.3582 106.245 36.9196 103.082L48.4095 124.552C48.3566 124.558 48.3055 124.575 48.2595 124.602C44.9959 125.506 42.0766 127.364 39.876 129.938C37.6753 132.512 36.2936 135.685 35.9079 139.049C35.5222 142.413 36.1502 145.816 37.7113 148.822C39.2724 151.827 41.6955 154.297 44.6699 155.916C47.6443 157.535 51.0345 158.229 54.4058 157.909C57.7771 157.588 60.9759 156.268 63.592 154.118C66.2082 151.968 68.1225 149.085 69.0895 145.839C70.0565 142.594 70.0321 139.133 69.0195 135.902L68.8695 135.512C68.7895 135.272 68.7096 135.042 68.6096 134.812L66.8195 131.432C66.7686 131.342 66.7083 131.259 66.6395 131.182L49.3496 98.8519L41.2595 83.7319C43.9531 82.9915 46.702 82.4698 49.4796 82.1719L49.7896 82.7719V82.8419V82.9019C52.5496 88.1919 55.5895 93.3619 58.4495 98.6019C67.4258 99.4814 75.7558 103.662 81.8251 110.334C87.8944 117.005 91.2707 125.693 91.2996 134.712Z" fill="#7C1AFB"/>
<path d="M18.5295 1.1803C18.5279 7.5757 16.8403 13.8577 13.637 19.393C10.4337 24.9283 5.82775 29.5214 0.283504 32.7092C-5.26075 35.8971 -11.5474 37.567 -17.9428 37.5508C-24.3381 37.5346 -30.6162 35.8327 -36.1442 32.6168C-41.6722 29.4008 -46.2548 24.7845 -49.43 19.233C-52.6052 13.6815 -54.2609 7.39102 -54.23 0.995697C-54.1992 -5.39963 -52.4831 -11.6738 -49.2545 -17.1945C-46.026 -22.7151 -41.3992 -27.2872 -35.8405 -30.4497L-24.3505 -8.99969L-24.5105 -8.94971C-27.5639 -8.10555 -30.3206 -6.42501 -32.4698 -4.09766C-34.619 -1.7703 -36.0751 1.11128 -36.674 4.22208C-37.2728 7.33287 -36.9905 10.5491 -35.859 13.5081C-34.7274 16.467 -32.7915 19.0508 -30.2698 20.9682C-27.748 22.8856 -24.7407 24.0602 -21.5869 24.3596C-18.4332 24.6589 -15.2585 24.0711 -12.421 22.6624C-9.58355 21.2537 -7.19616 19.0803 -5.52808 16.3871C-3.86 13.6939 -2.97762 10.5882 -2.98047 7.42032C-2.98095 5.70853 -3.23712 4.0064 -3.74048 2.3703C-3.74048 2.3703 -3.74048 2.37031 -3.74048 2.32031C-3.74048 2.27031 -3.83044 2.0703 -3.89045 1.9303C-3.96045 1.6903 -4.05045 1.45031 -4.14045 1.22031L-5.93048 -2.1597L-6.11048 -2.4097L-23.4105 -34.7497L-31.5005 -49.8597C-28.804 -50.6044 -26.0517 -51.1294 -23.2705 -51.4297L-22.9705 -50.8297V-50.7497V-50.6997C-20.2105 -45.4097 -17.1605 -40.2397 -14.3105 -34.9897C-5.32492 -34.1089 3.01239 -29.9193 9.08148 -23.2348C15.1506 -16.5503 18.518 -7.84833 18.5295 1.1803Z" fill="#7C1AFB"/>
<path d="M18.5295 134.712C18.5279 141.107 16.8403 147.389 13.637 152.925C10.4337 158.46 5.82775 163.053 0.283504 166.241C-5.26075 169.429 -11.5474 171.099 -17.9428 171.082C-24.3381 171.066 -30.6162 169.364 -36.1442 166.148C-41.6722 162.932 -46.2548 158.316 -49.43 152.765C-52.6052 147.213 -54.2609 140.923 -54.23 134.527C-54.1992 128.132 -52.4831 121.858 -49.2545 116.337C-46.026 110.816 -41.3992 106.244 -35.8405 103.082L-24.3505 124.552C-24.4066 124.558 -24.461 124.575 -24.5105 124.602C-27.7701 125.513 -30.6836 127.375 -32.8781 129.952C-35.0725 132.529 -36.448 135.702 -36.8283 139.065C-37.2086 142.428 -36.5764 145.827 -35.0128 148.829C-33.4491 151.831 -31.0251 154.297 -28.0512 155.913C-25.0773 157.528 -21.6889 158.22 -18.3198 157.898C-14.9507 157.576 -11.7543 156.256 -9.13996 154.107C-6.5256 151.957 -4.6123 149.077 -3.64502 145.833C-2.67774 142.59 -2.70051 139.132 -3.71045 135.902C-3.71045 135.772 -3.80048 135.642 -3.86048 135.512C-3.93048 135.272 -4.02048 135.042 -4.11048 134.812L-5.90046 131.432C-5.95472 131.345 -6.01485 131.261 -6.08045 131.182L-23.3805 98.8519L-31.4705 83.7319C-28.7737 82.9906 -26.0214 82.4688 -23.2405 82.1719L-22.9405 82.7719V82.8419V82.9019C-20.1805 88.1919 -17.1305 93.3619 -14.2805 98.6019C-5.31142 99.4907 3.0089 103.676 9.06994 110.346C15.131 117.017 18.5017 125.699 18.5295 134.712Z" fill="#7C1AFB"/>
<path d="M54.9094 67.9381C54.9078 74.3335 53.2202 80.6155 50.0169 86.1508C46.8136 91.6861 42.2076 96.2792 36.6634 99.467C31.1191 102.655 24.8325 104.325 18.4371 104.309C12.0418 104.292 5.76366 102.591 0.235651 99.3746C-5.29235 96.1587 -9.87491 91.5423 -13.0501 85.9908C-16.2253 80.4393 -17.881 74.1489 -17.8502 67.7535C-17.8194 61.3582 -16.1032 55.084 -12.8747 49.5634C-9.64616 44.0427 -5.01931 39.4707 0.539423 36.3081L12.0194 57.7781L11.8594 57.8281C8.80841 58.6777 6.05535 60.3626 3.91064 62.693C1.76593 65.0233 0.314814 67.9065 -0.279058 71.0174C-0.872931 74.1283 -0.585938 77.3433 0.549494 80.2998C1.68493 83.2564 3.62369 85.837 6.14721 87.7507C8.67073 89.6644 11.6787 90.8351 14.8319 91.1309C17.9851 91.4266 21.1583 90.8356 23.9936 89.4246C26.829 88.0135 29.2139 85.8384 30.8793 83.1446C32.5447 80.4507 33.4245 77.3452 33.4194 74.1781C33.4189 72.4663 33.1628 70.7642 32.6594 69.1281C32.6594 68.9881 32.5594 68.8681 32.4994 68.7381C32.4194 68.4981 32.3394 68.2581 32.2394 68.0281L30.4594 64.6481C30.4059 64.5635 30.3457 64.4832 30.2794 64.4081L13.0194 31.9981L4.92938 16.8882C7.62652 16.1487 10.3787 15.6269 13.1594 15.3281L13.4694 15.9281V15.9981C16.2294 21.2981 19.2794 26.4581 22.1294 31.7081C31.1145 32.6039 39.4456 36.8082 45.5037 43.5039C51.5618 50.1996 54.9143 58.9085 54.9094 67.9381Z" fill="#845CB9"/>
<path d="M18.5295 1.1803C18.5279 7.5757 16.8403 13.8577 13.637 19.393C10.4337 24.9283 5.82775 29.5214 0.283504 32.7092C-5.26075 35.8971 -11.5474 37.567 -17.9428 37.5508C-24.3381 37.5346 -30.6162 35.8327 -36.1442 32.6168C-41.6722 29.4008 -46.2548 24.7845 -49.43 19.233C-52.6052 13.6815 -54.2609 7.39102 -54.23 0.995697C-54.1992 -5.39963 -52.4831 -11.6738 -49.2545 -17.1945C-46.026 -22.7151 -41.3992 -27.2872 -35.8405 -30.4497L-24.3505 -8.99969L-24.5105 -8.94971C-27.5639 -8.10555 -30.3206 -6.42501 -32.4698 -4.09766C-34.619 -1.7703 -36.0751 1.11128 -36.674 4.22208C-37.2728 7.33287 -36.9905 10.5491 -35.859 13.5081C-34.7274 16.467 -32.7915 19.0508 -30.2698 20.9682C-27.748 22.8856 -24.7407 24.0602 -21.5869 24.3596C-18.4332 24.6589 -15.2585 24.0711 -12.421 22.6624C-9.58355 21.2537 -7.19616 19.0803 -5.52808 16.3871C-3.86 13.6939 -2.97762 10.5882 -2.98047 7.42032C-2.98095 5.70853 -3.23712 4.0064 -3.74048 2.3703C-3.74048 2.3703 -3.74048 2.37031 -3.74048 2.32031C-3.74048 2.27031 -3.83044 2.0703 -3.89045 1.9303C-3.96045 1.6903 -4.05045 1.45031 -4.14045 1.22031L-5.93048 -2.1597L-6.11048 -2.4097L-23.4105 -34.7497L-31.5005 -49.8597C-28.804 -50.6044 -26.0517 -51.1294 -23.2705 -51.4297L-22.9705 -50.8297V-50.7497V-50.6997C-20.2105 -45.4097 -17.1605 -40.2397 -14.3105 -34.9897C-5.32492 -34.1089 3.01239 -29.9193 9.08148 -23.2348C15.1506 -16.5503 18.518 -7.84833 18.5295 1.1803Z" fill="#7C1AFB"/>
<path d="M18.5295 134.712C18.5279 141.107 16.8403 147.389 13.637 152.925C10.4337 158.46 5.82775 163.053 0.283504 166.241C-5.26075 169.429 -11.5474 171.099 -17.9428 171.082C-24.3381 171.066 -30.6162 169.364 -36.1442 166.148C-41.6722 162.932 -46.2548 158.316 -49.43 152.765C-52.6052 147.213 -54.2609 140.923 -54.23 134.527C-54.1992 128.132 -52.4831 121.858 -49.2545 116.337C-46.026 110.816 -41.3992 106.244 -35.8405 103.082L-24.3505 124.552C-24.4066 124.558 -24.461 124.575 -24.5105 124.602C-27.7701 125.513 -30.6836 127.375 -32.8781 129.952C-35.0725 132.529 -36.448 135.702 -36.8283 139.065C-37.2086 142.428 -36.5764 145.827 -35.0128 148.829C-33.4491 151.831 -31.0251 154.297 -28.0512 155.913C-25.0773 157.528 -21.6889 158.22 -18.3198 157.898C-14.9507 157.576 -11.7543 156.256 -9.13996 154.107C-6.5256 151.957 -4.6123 149.077 -3.64502 145.833C-2.67774 142.59 -2.70051 139.132 -3.71045 135.902C-3.71045 135.772 -3.80048 135.642 -3.86048 135.512C-3.93048 135.272 -4.02048 135.042 -4.11048 134.812L-5.90046 131.432C-5.95472 131.345 -6.01485 131.261 -6.08045 131.182L-23.3805 98.8519L-31.4705 83.7319C-28.7737 82.9906 -26.0214 82.4688 -23.2405 82.1719L-22.9405 82.7719V82.8419V82.9019C-20.1805 88.1919 -17.1305 93.3619 -14.2805 98.6019C-5.31142 99.4907 3.0089 103.676 9.06994 110.346C15.131 117.017 18.5017 125.699 18.5295 134.712Z" fill="#CAADF0"/>
</svg>
