<svg width="26" height="26" viewBox="0 0 26 26" fill="none" xmlns="http://www.w3.org/2000/svg">
<path d="M12.9624 0.5C6.0624 0.5 0.462402 6.1 0.462402 13C0.462402 19.9 6.0624 25.5 12.9624 25.5C19.8624 25.5 25.4624 19.9 25.4624 13C25.4624 6.1 19.8749 0.5 12.9624 0.5ZM11.3999 16.7875C11.3999 17.3875 11.1499 17.625 10.5124 17.625H8.8874C8.2499 17.625 7.9999 17.3875 7.9999 16.7875V9.2125C7.9999 8.6125 8.2499 8.375 8.8874 8.375H10.4999C11.1374 8.375 11.3874 8.6125 11.3874 9.2125V16.7875H11.3999ZM17.9999 16.7875C17.9999 17.3875 17.7499 17.625 17.1124 17.625H15.4999C14.8624 17.625 14.6124 17.3875 14.6124 16.7875V9.2125C14.6124 8.6125 14.8624 8.375 15.4999 8.375H17.1124C17.7499 8.375 17.9999 8.6125 17.9999 9.2125V16.7875Z" fill="#E1E1E1"/>
</svg>
