<svg width="22" height="22" viewBox="0 0 22 22" fill="none" xmlns="http://www.w3.org/2000/svg">
<path d="M17.1755 20.62C16.2955 20.88 15.2555 21 14.0355 21H8.0355C6.8155 21 5.77551 20.88 4.89551 20.62C5.11551 18.02 7.7855 15.97 11.0355 15.97C14.2855 15.97 16.9555 18.02 17.1755 20.62Z" stroke="white" stroke-width="1.5" stroke-linecap="round" stroke-linejoin="round"/>
<path d="M14.0352 1H8.03516C3.03516 1 1.03516 3 1.03516 8V14C1.03516 17.78 2.17516 19.85 4.89516 20.62C5.11516 18.02 7.78516 15.97 11.0352 15.97C14.2852 15.97 16.9552 18.02 17.1752 20.62C19.8952 19.85 21.0352 17.78 21.0352 14V8C21.0352 3 19.0352 1 14.0352 1ZM11.0352 13.17C9.05516 13.17 7.45516 11.56 7.45516 9.58C7.45516 7.60002 9.05516 6 11.0352 6C13.0152 6 14.6152 7.60002 14.6152 9.58C14.6152 11.56 13.0152 13.17 11.0352 13.17Z" stroke="white" stroke-width="1.5" stroke-linecap="round" stroke-linejoin="round"/>
<path d="M14.615 9.58C14.615 11.56 13.015 13.17 11.035 13.17C9.05504 13.17 7.45508 11.56 7.45508 9.58C7.45508 7.60002 9.05504 6 11.035 6C13.015 6 14.615 7.60002 14.615 9.58Z" stroke="white" stroke-width="1.5" stroke-linecap="round" stroke-linejoin="round"/>
</svg>
