<svg width="15" height="14" viewBox="0 0 15 14" fill="none" xmlns="http://www.w3.org/2000/svg">
<path d="M2.53877 5.00699L2.97364 5.76799C3.25049 6.25249 3.38891 6.49469 3.38891 6.76029C3.38891 7.02589 3.25049 7.26809 2.97365 7.75259L2.53877 8.51359C1.30047 10.6806 0.681319 11.7642 1.16414 12.3015C1.64696 12.8388 2.79027 12.3386 5.07689 11.3382L11.3526 8.59259C13.1481 7.80709 14.0458 7.41429 14.0458 6.76029C14.0458 6.10629 13.1481 5.71349 11.3526 4.92799L5.0769 2.18239C2.79028 1.182 1.64696 0.681802 1.16414 1.21912C0.681319 1.75644 1.30047 2.83995 2.53877 5.00699Z" fill="#D9D9D9" stroke="white"/>
</svg>
