<svg width="22" height="20" viewBox="0 0 22 20" fill="none" xmlns="http://www.w3.org/2000/svg">
<path d="M13.9884 18.5403H8.01177C3.51094 18.5403 1.58594 16.7903 1.58594 12.6986V12.5903C1.58594 8.89026 3.1901 7.10693 6.78344 6.7986C7.1501 6.7736 7.49844 7.0236 7.5351 7.36526C7.57177 7.70693 7.29677 8.01526 6.91177 8.0486C4.03344 8.29026 2.96094 9.5236 2.96094 12.5986V12.7069C2.96094 16.0986 4.28094 17.2986 8.01177 17.2986H13.9884C17.7193 17.2986 19.0393 16.0986 19.0393 12.7069V12.5986C19.0393 9.50693 17.9484 8.2736 15.0151 8.0486C14.6393 8.01526 14.3551 7.71526 14.3918 7.3736C14.4284 7.03193 14.7493 6.7736 15.1343 6.80693C18.7826 7.09026 20.4143 8.88193 20.4143 12.6069V12.7153C20.4143 16.7903 18.4893 18.5403 13.9884 18.5403Z" fill="white"/>
<path d="M11 13.124C10.6242 13.124 10.3125 12.8406 10.3125 12.499V3.01563C10.3125 2.67396 10.6242 2.39062 11 2.39062C11.3758 2.39062 11.6875 2.67396 11.6875 3.01563V12.499C11.6875 12.8406 11.3758 13.124 11 13.124Z" fill="white"/>
<path d="M14.071 5.50052C13.8969 5.50052 13.7227 5.44219 13.5852 5.31719L11.0002 2.96719L8.41518 5.31719C8.14935 5.55885 7.70935 5.55885 7.44352 5.31719C7.17768 5.07552 7.17768 4.67552 7.44352 4.43385L10.5143 1.64219C10.7802 1.40052 11.2202 1.40052 11.486 1.64219L14.5568 4.43385C14.8227 4.67552 14.8227 5.07552 14.5568 5.31719C14.4285 5.44219 14.2452 5.50052 14.071 5.50052Z" fill="white"/>
</svg>
