<svg width="24" height="27" viewBox="0 0 24 27" fill="none" xmlns="http://www.w3.org/2000/svg">
<path d="M12 9V1L10 3.66667" stroke="white" stroke-width="1.5" stroke-linecap="round" stroke-linejoin="round"/>
<path d="M12 1L15 4" stroke="white" stroke-width="1.5" stroke-linecap="round" stroke-linejoin="round"/>
<path d="M5.88889 14C1 14 1 16.148 1 18.8V20C1 23.312 1 26 7.11111 26H16.8889C21.7778 26 23 23.312 23 20V18.8C23 16.148 23 14 18.1111 14C16.8889 14 16.5467 14.252 15.9111 14.72L14.6644 16.016C13.2222 17.528 10.7778 17.528 9.32333 16.016L8.08889 14.72C7.45333 14.252 7.11111 14 5.88889 14Z" stroke="white" stroke-width="1.5" stroke-miterlimit="10" stroke-linecap="round" stroke-linejoin="round"/>
<path d="M3 13V10.651C3 8.29028 3 6.34061 7 6" stroke="white" stroke-width="1.5" stroke-miterlimit="10" stroke-linecap="round" stroke-linejoin="round"/>
<path d="M21 13V10.651C21 8.29028 21 6.34061 17 6" stroke="white" stroke-width="1.5" stroke-miterlimit="10" stroke-linecap="round" stroke-linejoin="round"/>
</svg>
